<svg width="170" height="45" viewBox="0 0 170 45" fill="none" xmlns="http://www.w3.org/2000/svg">
<mask id="path-1-outside-1_3791_30066" maskUnits="userSpaceOnUse" x="66" y="13" width="104" height="20" fill="black">
<rect fill="white" x="66" y="13" width="104" height="20"/>
<path d="M80.8921 30.012C79.3428 31.5613 77.5228 32.336 75.4321 32.336C72.4268 32.336 70.1868 31.216 68.7121 28.976C67.6481 27.3707 67.1161 25.4853 67.1161 23.32C67.1161 20.5013 67.8441 18.2333 69.3001 16.516C70.7374 14.7987 72.7348 13.94 75.2921 13.94C77.0841 13.94 78.8761 14.696 80.6681 16.208L79.2401 18.532C77.8961 17.5613 76.6734 17.076 75.5721 17.076C74.0414 17.076 72.8561 17.72 72.0161 19.008C71.2881 20.1093 70.9241 21.5467 70.9241 23.32C70.9241 24.888 71.3534 26.232 72.2121 27.352C73.1268 28.528 74.3494 29.116 75.8801 29.116C76.8881 29.116 78.0828 28.6773 79.4641 27.8L80.8921 30.012ZM83.9235 15.872L87.4515 13.94V20.8C87.7502 20.2213 88.3662 19.7267 89.2995 19.316C89.9155 19.0547 90.4942 18.924 91.0355 18.924C92.6595 18.924 93.8355 19.372 94.5635 20.268C95.3102 21.1453 95.6835 22.564 95.6835 24.524V32H92.1555V24.664C92.1555 22.8347 91.3715 21.92 89.8035 21.92C88.6649 21.92 87.8809 22.2373 87.4515 22.872V32H83.9235V15.872ZM109.593 32H106.765L106.485 30.796C105.253 31.8227 104.003 32.336 102.733 32.336C99.9147 32.336 98.5054 30.964 98.5054 28.22C98.5054 26.8573 99.0934 25.7933 100.269 25.028C101.464 24.244 103.228 23.852 105.561 23.852H106.149V23.796C106.149 22.9933 105.981 22.4427 105.645 22.144C105.309 21.8453 104.703 21.696 103.825 21.696C102.593 21.696 101.464 22.088 100.437 22.872C100.101 22.256 99.7841 21.6493 99.4854 21.052C100.549 20.2307 101.473 19.68 102.257 19.4C103.06 19.1013 104.012 18.952 105.113 18.952C108.1 18.952 109.593 20.8187 109.593 24.552V32ZM106.037 26.008H105.617C104.553 26.008 103.695 26.1947 103.041 26.568C102.388 26.9413 102.061 27.436 102.061 28.052C102.061 29.2093 102.565 29.788 103.573 29.788C104.189 29.788 104.731 29.6107 105.197 29.256C105.664 28.9013 105.944 28.4533 106.037 27.912V26.008ZM121.352 22.116H117.712V28.416C117.712 29.3493 118.02 29.816 118.636 29.816C119.196 29.816 119.896 29.5733 120.736 29.088L121.912 30.88C120.587 31.9253 119.121 32.448 117.516 32.448C115.276 32.448 114.156 31.216 114.156 28.752V22.116H112.392V19.288H114.184V17.02C115.117 16.516 116.303 15.8907 117.74 15.144V19.288H121.352V22.116ZM137.969 30.516C135.785 31.7293 133.666 32.336 131.613 32.336C128.813 32.336 126.713 31.244 125.313 29.06C124.268 27.4547 123.745 25.4947 123.745 23.18C123.745 20.4733 124.529 18.2333 126.097 16.46C127.572 14.78 129.448 13.94 131.725 13.94C133.816 13.94 135.673 14.696 137.297 16.208L135.869 18.532C134.525 17.5613 133.218 17.076 131.949 17.076C130.68 17.076 129.625 17.664 128.785 18.84C127.964 20.016 127.553 21.5 127.553 23.292C127.553 25.196 128.085 26.708 129.149 27.828C130.026 28.7613 131.09 29.228 132.341 29.228C133.125 29.228 133.844 29.1067 134.497 28.864V25.196H131.333V22.004H137.969V30.516ZM140.943 32V14.304C141.204 14.248 141.942 14.1733 143.155 14.08C144.368 13.9867 145.292 13.94 145.927 13.94C150.444 13.94 152.703 15.788 152.703 19.484C152.703 21.78 151.919 23.46 150.351 24.524C149.306 25.252 148.074 25.616 146.655 25.616C145.535 25.616 144.854 25.5413 144.611 25.392V32H140.943ZM144.611 17.076V22.424C145.096 22.6107 145.703 22.704 146.431 22.704C147.178 22.704 147.766 22.4427 148.195 21.92C148.624 21.3787 148.839 20.6413 148.839 19.708C148.839 17.8227 148.008 16.88 146.347 16.88C145.395 16.88 144.816 16.9453 144.611 17.076ZM159.368 17.216H154.244V14.276H168.58V17.216H163.064V32H159.368V17.216Z"/>
</mask>
<path d="M80.8921 30.012C79.3428 31.5613 77.5228 32.336 75.4321 32.336C72.4268 32.336 70.1868 31.216 68.7121 28.976C67.6481 27.3707 67.1161 25.4853 67.1161 23.32C67.1161 20.5013 67.8441 18.2333 69.3001 16.516C70.7374 14.7987 72.7348 13.94 75.2921 13.94C77.0841 13.94 78.8761 14.696 80.6681 16.208L79.2401 18.532C77.8961 17.5613 76.6734 17.076 75.5721 17.076C74.0414 17.076 72.8561 17.72 72.0161 19.008C71.2881 20.1093 70.9241 21.5467 70.9241 23.32C70.9241 24.888 71.3534 26.232 72.2121 27.352C73.1268 28.528 74.3494 29.116 75.8801 29.116C76.8881 29.116 78.0828 28.6773 79.4641 27.8L80.8921 30.012ZM83.9235 15.872L87.4515 13.94V20.8C87.7502 20.2213 88.3662 19.7267 89.2995 19.316C89.9155 19.0547 90.4942 18.924 91.0355 18.924C92.6595 18.924 93.8355 19.372 94.5635 20.268C95.3102 21.1453 95.6835 22.564 95.6835 24.524V32H92.1555V24.664C92.1555 22.8347 91.3715 21.92 89.8035 21.92C88.6649 21.92 87.8809 22.2373 87.4515 22.872V32H83.9235V15.872ZM109.593 32H106.765L106.485 30.796C105.253 31.8227 104.003 32.336 102.733 32.336C99.9147 32.336 98.5054 30.964 98.5054 28.22C98.5054 26.8573 99.0934 25.7933 100.269 25.028C101.464 24.244 103.228 23.852 105.561 23.852H106.149V23.796C106.149 22.9933 105.981 22.4427 105.645 22.144C105.309 21.8453 104.703 21.696 103.825 21.696C102.593 21.696 101.464 22.088 100.437 22.872C100.101 22.256 99.7841 21.6493 99.4854 21.052C100.549 20.2307 101.473 19.68 102.257 19.4C103.06 19.1013 104.012 18.952 105.113 18.952C108.1 18.952 109.593 20.8187 109.593 24.552V32ZM106.037 26.008H105.617C104.553 26.008 103.695 26.1947 103.041 26.568C102.388 26.9413 102.061 27.436 102.061 28.052C102.061 29.2093 102.565 29.788 103.573 29.788C104.189 29.788 104.731 29.6107 105.197 29.256C105.664 28.9013 105.944 28.4533 106.037 27.912V26.008ZM121.352 22.116H117.712V28.416C117.712 29.3493 118.02 29.816 118.636 29.816C119.196 29.816 119.896 29.5733 120.736 29.088L121.912 30.88C120.587 31.9253 119.121 32.448 117.516 32.448C115.276 32.448 114.156 31.216 114.156 28.752V22.116H112.392V19.288H114.184V17.02C115.117 16.516 116.303 15.8907 117.74 15.144V19.288H121.352V22.116ZM137.969 30.516C135.785 31.7293 133.666 32.336 131.613 32.336C128.813 32.336 126.713 31.244 125.313 29.06C124.268 27.4547 123.745 25.4947 123.745 23.18C123.745 20.4733 124.529 18.2333 126.097 16.46C127.572 14.78 129.448 13.94 131.725 13.94C133.816 13.94 135.673 14.696 137.297 16.208L135.869 18.532C134.525 17.5613 133.218 17.076 131.949 17.076C130.68 17.076 129.625 17.664 128.785 18.84C127.964 20.016 127.553 21.5 127.553 23.292C127.553 25.196 128.085 26.708 129.149 27.828C130.026 28.7613 131.09 29.228 132.341 29.228C133.125 29.228 133.844 29.1067 134.497 28.864V25.196H131.333V22.004H137.969V30.516ZM140.943 32V14.304C141.204 14.248 141.942 14.1733 143.155 14.08C144.368 13.9867 145.292 13.94 145.927 13.94C150.444 13.94 152.703 15.788 152.703 19.484C152.703 21.78 151.919 23.46 150.351 24.524C149.306 25.252 148.074 25.616 146.655 25.616C145.535 25.616 144.854 25.5413 144.611 25.392V32H140.943ZM144.611 17.076V22.424C145.096 22.6107 145.703 22.704 146.431 22.704C147.178 22.704 147.766 22.4427 148.195 21.92C148.624 21.3787 148.839 20.6413 148.839 19.708C148.839 17.8227 148.008 16.88 146.347 16.88C145.395 16.88 144.816 16.9453 144.611 17.076ZM159.368 17.216H154.244V14.276H168.58V17.216H163.064V32H159.368V17.216Z" fill="black"/>
<path d="M80.8921 30.012L81.2456 30.3656L81.5312 30.08L81.3122 29.7408L80.8921 30.012ZM68.7121 28.976L69.1297 28.7011L69.1289 28.6998L68.7121 28.976ZM69.3001 16.516L69.6815 16.8393L69.6835 16.8369L69.3001 16.516ZM80.6681 16.208L81.0941 16.4698L81.3193 16.1033L80.9905 15.8259L80.6681 16.208ZM79.2401 18.532L78.9473 18.9373L79.3841 19.2527L79.6661 18.7938L79.2401 18.532ZM72.0161 19.008L72.4332 19.2837L72.4349 19.2811L72.0161 19.008ZM72.2121 27.352L71.8153 27.6562L71.8174 27.659L72.2121 27.352ZM79.4641 27.8L79.8842 27.5288L79.615 27.1118L79.196 27.3779L79.4641 27.8ZM80.8921 30.012L80.5385 29.6584C79.078 31.119 77.3832 31.836 75.4321 31.836V32.336V32.836C77.6623 32.836 79.6076 32.0036 81.2456 30.3656L80.8921 30.012ZM75.4321 32.336V31.836C72.5711 31.836 70.4995 30.7817 69.1297 28.7011L68.7121 28.976L68.2945 29.2509C69.874 31.6503 72.2824 32.836 75.4321 32.836V32.336ZM68.7121 28.976L69.1289 28.6998C68.1257 27.1863 67.6161 25.3997 67.6161 23.32H67.1161H66.6161C66.6161 25.571 67.1705 27.5551 68.2953 29.2522L68.7121 28.976ZM67.1161 23.32H67.6161C67.6161 20.589 68.3198 18.4454 69.6815 16.8393L69.3001 16.516L68.9187 16.1927C67.3684 18.0213 66.6161 20.4137 66.6161 23.32H67.1161ZM69.3001 16.516L69.6835 16.8369C71.0117 15.25 72.8593 14.44 75.2921 14.44V13.94V13.44C72.6103 13.44 70.4631 14.3474 68.9167 16.1951L69.3001 16.516ZM75.2921 13.94V14.44C76.9338 14.44 78.6156 15.1304 80.3457 16.5901L80.6681 16.208L80.9905 15.8259C79.1366 14.2616 77.2344 13.44 75.2921 13.44V13.94ZM80.6681 16.208L80.2421 15.9462L78.8141 18.2702L79.2401 18.532L79.6661 18.7938L81.0941 16.4698L80.6681 16.208ZM79.2401 18.532L79.5328 18.1267C78.1443 17.1238 76.8195 16.576 75.5721 16.576V17.076V17.576C76.5273 17.576 77.6479 17.9988 78.9473 18.9373L79.2401 18.532ZM75.5721 17.076V16.576C73.8715 16.576 72.5291 17.3061 71.5973 18.7349L72.0161 19.008L72.4349 19.2811C73.1831 18.1339 74.2113 17.576 75.5721 17.576V17.076ZM72.0161 19.008L71.599 18.7323C70.8013 19.9391 70.4241 21.4815 70.4241 23.32H70.9241H71.4241C71.4241 21.6118 71.7749 20.2796 72.4332 19.2837L72.0161 19.008ZM70.9241 23.32H70.4241C70.4241 24.9851 70.8823 26.4392 71.8153 27.6562L72.2121 27.352L72.6089 27.0478C71.8246 26.0248 71.4241 24.7909 71.4241 23.32H70.9241ZM72.2121 27.352L71.8174 27.659C72.8298 28.9606 74.2001 29.616 75.8801 29.616V29.116V28.616C74.4988 28.616 73.4237 28.0954 72.6068 27.045L72.2121 27.352ZM75.8801 29.116V29.616C77.0252 29.616 78.3159 29.1216 79.7322 28.2221L79.4641 27.8L79.196 27.3779C77.8497 28.2331 76.751 28.616 75.8801 28.616V29.116ZM79.4641 27.8L79.044 28.0712L80.472 30.2832L80.8921 30.012L81.3122 29.7408L79.8842 27.5288L79.4641 27.8ZM83.9235 15.872L83.6834 15.4335L83.4235 15.5757V15.872H83.9235ZM87.4515 13.94H87.9515V13.0961L87.2114 13.5015L87.4515 13.94ZM87.4515 20.8H86.9515L87.8958 21.0293L87.4515 20.8ZM89.2995 19.316L89.1042 18.8557L89.0982 18.8583L89.2995 19.316ZM94.5635 20.268L94.1754 20.5834L94.1828 20.5921L94.5635 20.268ZM95.6835 32V32.5H96.1835V32H95.6835ZM92.1555 32H91.6555V32.5H92.1555V32ZM87.4515 22.872L87.0374 22.5918L86.9515 22.7188V22.872H87.4515ZM87.4515 32V32.5H87.9515V32H87.4515ZM83.9235 32H83.4235V32.5H83.9235V32ZM83.9235 15.872L84.1637 16.3105L87.6917 14.3785L87.4515 13.94L87.2114 13.5015L83.6834 15.4335L83.9235 15.872ZM87.4515 13.94H86.9515V20.8H87.4515H87.9515V13.94H87.4515ZM87.4515 20.8L87.8958 21.0293C88.1196 20.5958 88.6164 20.1628 89.5009 19.7737L89.2995 19.316L89.0982 18.8583C88.116 19.2905 87.3808 19.8469 87.0072 20.5707L87.4515 20.8ZM89.2995 19.316L89.4948 19.7763C90.0632 19.5352 90.5751 19.424 91.0355 19.424V18.924V18.424C90.4133 18.424 89.7679 18.5742 89.1043 18.8557L89.2995 19.316ZM91.0355 18.924V19.424C92.5732 19.424 93.5766 19.8462 94.1755 20.5833L94.5635 20.268L94.9516 19.9527C94.0945 18.8978 92.7459 18.424 91.0355 18.424V18.924ZM94.5635 20.268L94.1828 20.5921C94.8144 21.3342 95.1835 22.6065 95.1835 24.524H95.6835H96.1835C96.1835 22.5215 95.806 20.9565 94.9443 19.9439L94.5635 20.268ZM95.6835 24.524H95.1835V32H95.6835H96.1835V24.524H95.6835ZM95.6835 32V31.5H92.1555V32V32.5H95.6835V32ZM92.1555 32H92.6555V24.664H92.1555H91.6555V32H92.1555ZM92.1555 24.664H92.6555C92.6555 23.6895 92.4484 22.8653 91.9472 22.2806C91.4333 21.6811 90.6865 21.42 89.8035 21.42V21.92V22.42C90.4886 22.42 90.9177 22.6162 91.1879 22.9314C91.4707 23.2613 91.6555 23.8092 91.6555 24.664H92.1555ZM89.8035 21.92V21.42C88.5844 21.42 87.5991 21.7615 87.0374 22.5918L87.4515 22.872L87.8657 23.1522C88.1626 22.7132 88.7453 22.42 89.8035 22.42V21.92ZM87.4515 22.872H86.9515V32H87.4515H87.9515V22.872H87.4515ZM87.4515 32V31.5H83.9235V32V32.5H87.4515V32ZM83.9235 32H84.4235V15.872H83.9235H83.4235V32H83.9235ZM109.593 32V32.5H110.093V32H109.593ZM106.765 32L106.278 32.1133L106.368 32.5H106.765V32ZM106.485 30.796L106.972 30.6827L106.789 29.8925L106.165 30.4119L106.485 30.796ZM100.269 25.028L100.542 25.4471L100.544 25.446L100.269 25.028ZM106.149 23.852V24.352H106.649V23.852H106.149ZM105.645 22.144L105.313 22.5177L105.645 22.144ZM100.437 22.872L99.9985 23.1114L100.278 23.6232L100.741 23.2694L100.437 22.872ZM99.4854 21.052L99.1799 20.6562L98.8542 20.9076L99.0382 21.2756L99.4854 21.052ZM102.257 19.4L102.426 19.8709L102.432 19.8686L102.257 19.4ZM106.037 26.008H106.537V25.508H106.037V26.008ZM103.041 26.568L103.289 27.0021L103.041 26.568ZM105.197 29.256L105.5 29.6541L105.197 29.256ZM106.037 27.912L106.53 27.997L106.537 27.9548V27.912H106.037ZM109.593 32V31.5H106.765V32V32.5H109.593V32ZM106.765 32L107.252 31.8867L106.972 30.6827L106.485 30.796L105.998 30.9093L106.278 32.1133L106.765 32ZM106.485 30.796L106.165 30.4119C104.999 31.3839 103.858 31.836 102.733 31.836V32.336V32.836C104.148 32.836 105.508 32.2614 106.806 31.1801L106.485 30.796ZM102.733 32.336V31.836C101.398 31.836 100.489 31.5109 99.9112 30.9487C99.3363 30.389 99.0054 29.5115 99.0054 28.22H98.5054H98.0054C98.0054 29.6725 98.3792 30.853 99.2136 31.6653C100.046 32.4751 101.25 32.836 102.733 32.836V32.336ZM98.5054 28.22H99.0054C99.0054 27.0324 99.5028 26.1234 100.542 25.4471L100.269 25.028L99.9967 24.6089C98.684 25.4632 98.0054 26.6822 98.0054 28.22H98.5054ZM100.269 25.028L100.544 25.446C101.62 24.7396 103.27 24.352 105.561 24.352V23.852V23.352C103.186 23.352 101.308 23.7484 99.9951 24.61L100.269 25.028ZM105.561 23.852V24.352H106.149V23.852V23.352H105.561V23.852ZM106.149 23.852H106.649V23.796H106.149H105.649V23.852H106.149ZM106.149 23.796H106.649C106.649 22.9552 106.479 22.2163 105.978 21.7703L105.645 22.144L105.313 22.5177C105.483 22.6691 105.649 23.0314 105.649 23.796H106.149ZM105.645 22.144L105.978 21.7703C105.496 21.3419 104.724 21.196 103.825 21.196V21.696V22.196C104.681 22.196 105.123 22.3488 105.313 22.5177L105.645 22.144ZM103.825 21.696V21.196C102.478 21.196 101.243 21.6275 100.134 22.4746L100.437 22.872L100.741 23.2694C101.685 22.5485 102.709 22.196 103.825 22.196V21.696ZM100.437 22.872L100.876 22.6326C100.543 22.0215 100.228 21.4201 99.9326 20.8284L99.4854 21.052L99.0382 21.2756C99.3396 21.8785 99.6598 22.4905 99.9985 23.1114L100.437 22.872ZM99.4854 21.052L99.7909 21.4478C100.836 20.6414 101.712 20.1258 102.426 19.8709L102.257 19.4L102.089 18.9291C101.235 19.2342 100.263 19.8199 99.1799 20.6562L99.4854 21.052ZM102.257 19.4L102.432 19.8686C103.165 19.5957 104.055 19.452 105.113 19.452V18.952V18.452C103.969 18.452 102.955 18.607 102.083 18.9314L102.257 19.4ZM105.113 18.952V19.452C106.496 19.452 107.454 19.8787 108.083 20.6643C108.729 21.4713 109.093 22.7388 109.093 24.552H109.593H110.093C110.093 22.6319 109.712 21.0993 108.864 20.0397C107.999 18.9587 106.717 18.452 105.113 18.452V18.952ZM109.593 24.552H109.093V32H109.593H110.093V24.552H109.593ZM106.037 26.008V25.508H105.617V26.008V26.508H106.037V26.008ZM105.617 26.008V25.508C104.5 25.508 103.547 25.7031 102.793 26.1339L103.041 26.568L103.289 27.0021C103.842 26.6862 104.606 26.508 105.617 26.508V26.008ZM103.041 26.568L102.793 26.1339C102.025 26.573 101.561 27.2143 101.561 28.052H102.061H102.561C102.561 27.6577 102.751 27.3096 103.289 27.0021L103.041 26.568ZM102.061 28.052H101.561C101.561 28.6921 101.699 29.2655 102.062 29.6824C102.437 30.1125 102.973 30.288 103.573 30.288V29.788V29.288C103.166 29.288 102.946 29.1742 102.816 29.0256C102.676 28.8638 102.561 28.5692 102.561 28.052H102.061ZM103.573 29.788V30.288C104.293 30.288 104.942 30.0784 105.5 29.6541L105.197 29.256L104.895 28.8579C104.52 29.1429 104.086 29.288 103.573 29.288V29.788ZM105.197 29.256L105.5 29.6541C106.06 29.2285 106.414 28.6718 106.53 27.997L106.037 27.912L105.545 27.827C105.474 28.2348 105.268 28.5742 104.895 28.8579L105.197 29.256ZM106.037 27.912H106.537V26.008H106.037H105.537V27.912H106.037ZM121.352 22.116V22.616H121.852V22.116H121.352ZM117.712 22.116V21.616H117.212V22.116H117.712ZM120.736 29.088L121.154 28.8137L120.895 28.4188L120.486 28.6551L120.736 29.088ZM121.912 30.88L122.222 31.2726L122.582 30.9888L122.33 30.6057L121.912 30.88ZM114.156 22.116H114.656V21.616H114.156V22.116ZM112.392 22.116H111.892V22.616H112.392V22.116ZM112.392 19.288V18.788H111.892V19.288H112.392ZM114.184 19.288V19.788H114.684V19.288H114.184ZM114.184 17.02L113.947 16.58L113.684 16.7218V17.02H114.184ZM117.74 15.144H118.24V14.3208L117.51 14.7003L117.74 15.144ZM117.74 19.288H117.24V19.788H117.74V19.288ZM121.352 19.288H121.852V18.788H121.352V19.288ZM121.352 22.116V21.616H117.712V22.116V22.616H121.352V22.116ZM117.712 22.116H117.212V28.416H117.712H118.212V22.116H117.712ZM117.712 28.416H117.212C117.212 28.9218 117.293 29.3882 117.526 29.7414C117.783 30.131 118.18 30.316 118.636 30.316V29.816V29.316C118.476 29.316 118.411 29.2677 118.36 29.1906C118.286 29.0771 118.212 28.8435 118.212 28.416H117.712ZM118.636 29.816V30.316C119.327 30.316 120.119 30.0221 120.986 29.5209L120.736 29.088L120.486 28.6551C119.673 29.1245 119.065 29.316 118.636 29.316V29.816ZM120.736 29.088L120.318 29.3623L121.494 31.1543L121.912 30.88L122.33 30.6057L121.154 28.8137L120.736 29.088ZM121.912 30.88L121.602 30.4874C120.36 31.467 119.003 31.948 117.516 31.948V32.448V32.948C119.24 32.948 120.813 32.3836 122.222 31.2726L121.912 30.88ZM117.516 32.448V31.948C116.486 31.948 115.802 31.6669 115.366 31.1877C114.922 30.6993 114.656 29.9181 114.656 28.752H114.156H113.656C113.656 30.0499 113.95 31.1167 114.626 31.8603C115.31 32.6131 116.306 32.948 117.516 32.948V32.448ZM114.156 28.752H114.656V22.116H114.156H113.656V28.752H114.156ZM114.156 22.116V21.616H112.392V22.116V22.616H114.156V22.116ZM112.392 22.116H112.892V19.288H112.392H111.892V22.116H112.392ZM112.392 19.288V19.788H114.184V19.288V18.788H112.392V19.288ZM114.184 19.288H114.684V17.02H114.184H113.684V19.288H114.184ZM114.184 17.02L114.422 17.46C115.352 16.9577 116.535 16.3337 117.971 15.5877L117.74 15.144L117.51 14.7003C116.071 15.4476 114.883 16.0743 113.947 16.58L114.184 17.02ZM117.74 15.144H117.24V19.288H117.74H118.24V15.144H117.74ZM117.74 19.288V19.788H121.352V19.288V18.788H117.74V19.288ZM121.352 19.288H120.852V22.116H121.352H121.852V19.288H121.352ZM137.969 30.516L138.212 30.9531L138.469 30.8102V30.516H137.969ZM125.313 29.06L125.734 28.7902L125.732 28.7872L125.313 29.06ZM126.097 16.46L126.472 16.7912L126.473 16.7898L126.097 16.46ZM137.297 16.208L137.723 16.4698L137.937 16.121L137.638 15.8421L137.297 16.208ZM135.869 18.532L135.576 18.9373L136.013 19.2527L136.295 18.7938L135.869 18.532ZM128.785 18.84L128.378 18.5494L128.375 18.5537L128.785 18.84ZM129.149 27.828L129.513 27.4855L129.511 27.4836L129.149 27.828ZM134.497 28.864L134.671 29.3327L134.997 29.2117V28.864H134.497ZM134.497 25.196H134.997V24.696H134.497V25.196ZM131.333 25.196H130.833V25.696H131.333V25.196ZM131.333 22.004V21.504H130.833V22.004H131.333ZM137.969 22.004H138.469V21.504H137.969V22.004ZM137.969 30.516L137.726 30.0789C135.6 31.2599 133.565 31.836 131.613 31.836V32.336V32.836C133.768 32.836 135.97 32.1988 138.212 30.9531L137.969 30.516ZM131.613 32.336V31.836C128.967 31.836 127.034 30.8177 125.734 28.7902L125.313 29.06L124.892 29.3298C126.392 31.6703 128.659 32.836 131.613 32.836V32.336ZM125.313 29.06L125.732 28.7872C124.75 27.2786 124.245 25.4182 124.245 23.18H123.745H123.245C123.245 25.5712 123.786 27.6308 124.894 29.3328L125.313 29.06ZM123.745 23.18H124.245C124.245 20.5767 124.996 18.4601 126.472 16.7912L126.097 16.46L125.722 16.1288C124.062 18.0066 123.245 20.37 123.245 23.18H123.745ZM126.097 16.46L126.473 16.7898C127.85 15.2203 129.588 14.44 131.725 14.44V13.94V13.44C129.307 13.44 127.293 14.3397 125.721 16.1302L126.097 16.46ZM131.725 13.94V14.44C133.681 14.44 135.419 15.1423 136.956 16.5739L137.297 16.208L137.638 15.8421C135.927 14.2497 133.95 13.44 131.725 13.44V13.94ZM137.297 16.208L136.871 15.9462L135.443 18.2702L135.869 18.532L136.295 18.7938L137.723 16.4698L137.297 16.208ZM135.869 18.532L136.162 18.1267C134.759 17.1132 133.351 16.576 131.949 16.576V17.076V17.576C133.085 17.576 134.291 18.0095 135.576 18.9373L135.869 18.532ZM131.949 17.076V16.576C130.494 16.576 129.297 17.263 128.378 18.5494L128.785 18.84L129.192 19.1306C129.953 18.065 130.865 17.576 131.949 17.576V17.076ZM128.785 18.84L128.375 18.5537C127.482 19.8325 127.053 21.4233 127.053 23.292H127.553H128.053C128.053 21.5767 128.445 20.1995 129.195 19.1263L128.785 18.84ZM127.553 23.292H127.053C127.053 25.2928 127.615 26.939 128.786 28.1724L129.149 27.828L129.511 27.4836C128.555 26.477 128.053 25.0992 128.053 23.292H127.553ZM129.149 27.828L128.785 28.1705C129.754 29.2016 130.949 29.728 132.341 29.728V29.228V28.728C131.232 28.728 130.299 28.3211 129.513 27.4855L129.149 27.828ZM132.341 29.228V29.728C133.177 29.728 133.956 29.5985 134.671 29.3327L134.497 28.864L134.323 28.3953C133.732 28.6148 133.073 28.728 132.341 28.728V29.228ZM134.497 28.864H134.997V25.196H134.497H133.997V28.864H134.497ZM134.497 25.196V24.696H131.333V25.196V25.696H134.497V25.196ZM131.333 25.196H131.833V22.004H131.333H130.833V25.196H131.333ZM131.333 22.004V22.504H137.969V22.004V21.504H131.333V22.004ZM137.969 22.004H137.469V30.516H137.969H138.469V22.004H137.969ZM140.943 32H140.443V32.5H140.943V32ZM140.943 14.304L140.838 13.8151L140.443 13.8998V14.304H140.943ZM143.155 14.08L143.193 14.5785L143.155 14.08ZM150.351 24.524L150.07 24.1102L150.065 24.1137L150.351 24.524ZM144.611 25.392L144.873 24.9662L144.111 24.4972V25.392H144.611ZM144.611 32V32.5H145.111V32H144.611ZM144.611 17.076L144.343 16.6542L144.111 16.8015V17.076H144.611ZM144.611 22.424H144.111V22.7674L144.432 22.8907L144.611 22.424ZM148.195 21.92L148.582 22.2374L148.587 22.2307L148.195 21.92ZM140.943 32H141.443V14.304H140.943H140.443V32H140.943ZM140.943 14.304L141.048 14.7929C141.268 14.7457 141.965 14.673 143.193 14.5785L143.155 14.08L143.117 13.5815C141.919 13.6736 141.141 13.7503 140.838 13.8151L140.943 14.304ZM143.155 14.08L143.193 14.5785C144.403 14.4855 145.312 14.44 145.927 14.44V13.94V13.44C145.273 13.44 144.334 13.4879 143.117 13.5815L143.155 14.08ZM145.927 13.94V14.44C148.13 14.44 149.69 14.8927 150.693 15.713C151.676 16.5176 152.203 17.7425 152.203 19.484H152.703H153.203C153.203 17.5295 152.601 15.9824 151.326 14.939C150.07 13.9113 148.241 13.44 145.927 13.44V13.94ZM152.703 19.484H152.203C152.203 21.6543 151.471 23.1597 150.07 24.1103L150.351 24.524L150.632 24.9377C152.367 23.7603 153.203 21.9057 153.203 19.484H152.703ZM150.351 24.524L150.065 24.1137C149.113 24.7767 147.984 25.116 146.655 25.116V25.616V26.116C148.164 26.116 149.498 25.7273 150.637 24.9343L150.351 24.524ZM146.655 25.616V25.116C146.103 25.116 145.673 25.0975 145.359 25.063C145.201 25.0457 145.081 25.0254 144.993 25.0041C144.899 24.9813 144.869 24.9638 144.873 24.9662L144.611 25.392L144.349 25.8178C144.576 25.9576 144.911 26.0199 145.25 26.057C145.616 26.0972 146.087 26.116 146.655 26.116V25.616ZM144.611 25.392H144.111V32H144.611H145.111V25.392H144.611ZM144.611 32V31.5H140.943V32V32.5H144.611V32ZM144.611 17.076H144.111V22.424H144.611H145.111V17.076H144.611ZM144.611 22.424L144.432 22.8907C144.992 23.1063 145.664 23.204 146.431 23.204V22.704V22.204C145.742 22.204 145.201 22.1151 144.791 21.9573L144.611 22.424ZM146.431 22.704V23.204C147.31 23.204 148.047 22.8886 148.581 22.2374L148.195 21.92L147.809 21.6026C147.485 21.9967 147.046 22.204 146.431 22.204V22.704ZM148.195 21.92L148.587 22.2307C149.107 21.5744 149.339 20.7148 149.339 19.708H148.839H148.339C148.339 20.5679 148.142 21.1829 147.803 21.6093L148.195 21.92ZM148.839 19.708H149.339C149.339 18.7027 149.119 17.8554 148.591 17.2564C148.053 16.6454 147.272 16.38 146.347 16.38V16.88V17.38C147.083 17.38 147.549 17.5859 147.841 17.9176C148.144 18.2613 148.339 18.8279 148.339 19.708H148.839ZM146.347 16.88V16.38C145.863 16.38 145.459 16.3965 145.143 16.4322C144.856 16.4646 144.553 16.5204 144.343 16.6542L144.611 17.076L144.88 17.4978C144.875 17.5009 144.964 17.4587 145.255 17.4258C145.518 17.3962 145.88 17.38 146.347 17.38V16.88ZM159.368 17.216H159.868V16.716H159.368V17.216ZM154.244 17.216H153.744V17.716H154.244V17.216ZM154.244 14.276V13.776H153.744V14.276H154.244ZM168.58 14.276H169.08V13.776H168.58V14.276ZM168.58 17.216V17.716H169.08V17.216H168.58ZM163.064 17.216V16.716H162.564V17.216H163.064ZM163.064 32V32.5H163.564V32H163.064ZM159.368 32H158.868V32.5H159.368V32ZM159.368 17.216V16.716H154.244V17.216V17.716H159.368V17.216ZM154.244 17.216H154.744V14.276H154.244H153.744V17.216H154.244ZM154.244 14.276V14.776H168.58V14.276V13.776H154.244V14.276ZM168.58 14.276H168.08V17.216H168.58H169.08V14.276H168.58ZM168.58 17.216V16.716H163.064V17.216V17.716H168.58V17.216ZM163.064 17.216H162.564V32H163.064H163.564V17.216H163.064ZM163.064 32V31.5H159.368V32V32.5H163.064V32ZM159.368 32H159.868V17.216H159.368H158.868V32H159.368Z" fill="black" mask="url(#path-1-outside-1_3791_30066)"/>
<path d="M40.1376 0H4.86237C2.17714 0 0 2.17714 0 4.86237V40.1377C0 42.8229 2.17714 45 4.86237 45H40.1377C42.8229 45 45 42.8229 45 40.1376V4.86237C45 2.17714 42.8229 0 40.1376 0Z" fill="black"/>
<path d="M37.2564 19.3749C37.6427 18.2151 37.7767 16.986 37.6495 15.7702C37.5223 14.5543 37.1368 13.3796 36.5188 12.3248C34.6389 9.05166 30.8598 7.36777 27.1689 8.16019C26.3575 7.24591 25.3601 6.51545 24.2436 6.01764C23.1272 5.51983 21.9172 5.26616 20.6948 5.2736C16.9221 5.26498 13.5747 7.69402 12.414 11.2836C11.216 11.5289 10.0842 12.0272 9.09428 12.7453C8.10441 13.4633 7.27932 14.3845 6.67424 15.4472C4.78037 18.7117 5.21209 22.8268 7.74228 25.6262C7.35601 26.786 7.22198 28.0151 7.34916 29.2309C7.47635 30.4468 7.86183 31.6215 8.47977 32.6763C10.3597 35.9494 14.1388 37.6333 17.8297 36.8409C18.641 37.7553 19.6383 38.4858 20.7548 38.9835C21.8714 39.4811 23.0814 39.7344 24.3038 39.7265C28.0786 39.7361 31.4271 37.305 32.5877 33.7121C33.7858 33.4668 34.9176 32.9685 35.9075 32.2505C36.8973 31.5324 37.7224 30.6112 38.3275 29.5485C40.2193 26.284 39.7864 22.1722 37.2573 19.3728L37.2564 19.3749ZM24.3061 37.4751C22.7956 37.4774 21.3324 36.9484 20.1727 35.9807C20.2254 35.9526 20.317 35.9021 20.3761 35.8654L27.2368 31.9032C27.4091 31.8053 27.5522 31.6632 27.6514 31.4915C27.7506 31.3199 27.8022 31.1249 27.8009 30.9267V21.2548L30.7005 22.9291C30.7317 22.9442 30.7521 22.9743 30.7564 23.0088V31.0183C30.7522 34.5798 27.8677 37.4675 24.3061 37.4751ZM10.4341 31.5501C9.67737 30.2432 9.40484 28.7116 9.66428 27.2239C9.7149 27.2541 9.80429 27.309 9.86774 27.3456L16.7284 31.3078C16.8994 31.4077 17.094 31.4604 17.292 31.4604C17.4901 31.4604 17.6847 31.4077 17.8557 31.3078L26.2312 26.4713V29.8198C26.2334 29.8542 26.2172 29.8876 26.1903 29.9092L19.2554 33.9134C16.1664 35.692 12.2215 34.6348 10.4353 31.5501H10.4341ZM8.62848 16.5745C9.38184 15.266 10.5713 14.264 11.9888 13.7439C11.9888 13.8031 11.9856 13.9075 11.9856 13.9807V21.9062C11.9845 22.1041 12.0361 22.2988 12.135 22.4702C12.234 22.6416 12.3767 22.7836 12.5487 22.8817L20.9242 27.7171L18.0247 29.3913C17.9956 29.4106 17.959 29.4139 17.9267 29.3999L10.9907 25.3925C7.90822 23.6073 6.8509 19.6634 8.62743 16.5755L8.62848 16.5745ZM32.4511 22.1183L24.0756 17.2818L26.9751 15.6087C27.0042 15.5893 27.0408 15.5861 27.0731 15.6L34.0091 19.6043C37.097 21.3883 38.1554 25.3387 36.3713 28.4266C35.6168 29.7335 34.4282 30.7347 33.0121 31.2562V23.0939C33.0136 22.8962 32.9626 22.7017 32.8642 22.5303C32.7658 22.3589 32.6236 22.2167 32.4522 22.1184H32.4511V22.1183ZM35.3367 17.775C35.2861 17.7438 35.1968 17.6899 35.1332 17.6533L28.2726 13.6911C28.1015 13.5912 27.907 13.5386 27.7089 13.5386C27.5108 13.5386 27.3163 13.5912 27.1453 13.6911L18.7697 18.5276V15.1791C18.769 15.1621 18.7722 15.145 18.7794 15.1295C18.7865 15.1139 18.7972 15.1003 18.8106 15.0898L25.7455 11.0888C28.8345 9.3069 32.7838 10.3674 34.5647 13.4575C35.3173 14.7628 35.5896 16.2902 35.3345 17.7751L35.3367 17.775ZM17.1935 23.743L14.2929 22.0688C14.2777 22.0613 14.2646 22.05 14.2548 22.0361C14.245 22.0222 14.2389 22.0061 14.237 21.9892V13.9797C14.2392 10.4137 17.1322 7.52386 20.6982 7.52606C22.2065 7.52661 23.667 8.05535 24.8262 9.02046C24.7735 9.04841 24.683 9.09904 24.6227 9.13569L17.7621 13.0979C17.5898 13.1956 17.4466 13.3375 17.3475 13.509C17.2483 13.6805 17.1967 13.8753 17.1979 14.0734L17.1936 23.7409V23.743H17.1935ZM18.7687 20.3472L22.4994 18.1927L26.2301 20.3461V24.6539L22.4994 26.8073L18.7687 24.6539V20.3472Z" fill="white"/>
</svg>
