<svg width="112" height="49" viewBox="0 0 112 49" fill="none" xmlns="http://www.w3.org/2000/svg">
<g clip-path="url(#clip0_161_153)">
<path d="M52.92 25.336V37.2966H48.72V7.71655H59.64C62.3 7.71655 64.82 8.61682 66.78 10.2887C68.74 11.832 69.72 14.147 69.72 16.5906C69.72 19.0341 68.74 21.2205 66.78 22.8924C64.82 24.5643 62.44 25.4646 59.64 25.4646L52.92 25.336ZM52.92 11.3176V21.6063H59.92C61.46 21.6063 63 21.0919 63.98 20.063C66.22 18.1339 66.22 14.9187 64.12 12.9895L63.98 12.8609C62.86 11.832 61.46 11.189 59.92 11.3176H52.92Z" fill="black"/>
<path d="M79.38 16.4619C82.46 16.4619 84.84 17.2336 86.66 18.7769C88.48 20.3202 89.32 22.3779 89.32 24.9501V37.2966H85.4V34.4672H85.26C83.58 36.7821 81.2 37.9396 78.4 37.9396C76.02 37.9396 73.92 37.2966 72.24 36.0105C70.7 34.7244 69.72 32.9239 69.72 30.9947C69.72 28.937 70.56 27.2651 72.24 25.979C73.92 24.6929 76.3 24.1784 79.1 24.1784C81.62 24.1784 83.58 24.5643 85.12 25.4645V24.5643C85.12 23.2782 84.56 21.9921 83.44 21.2204C82.32 20.3202 80.92 19.8057 79.38 19.8057C77 19.8057 75.18 20.706 73.92 22.5065L70.28 20.4488C72.52 17.748 75.46 16.4619 79.38 16.4619ZM74.06 31.1233C74.06 32.1522 74.62 33.0525 75.46 33.5669C76.44 34.2099 77.56 34.5958 78.68 34.5958C80.36 34.5958 82.04 33.9527 83.3 32.7952C84.7 31.6378 85.4 30.2231 85.4 28.6798C84.14 27.7795 82.32 27.2651 79.94 27.2651C78.26 27.2651 76.86 27.6509 75.74 28.4225C74.62 29.0656 74.06 29.9659 74.06 31.1233Z" fill="black"/>
<path d="M112 17.105L98.14 46.2992H93.94L99.12 36.1391L90.02 17.2336H94.5L101.08 31.7664H101.22L107.66 17.2336H112V17.105Z" fill="black"/>
<path d="M36.26 22.7638C36.26 21.6063 36.12 20.4489 35.98 19.2914H18.48V25.8504H28.42C28 27.9082 26.74 29.8373 24.78 30.9948V35.2389H30.8C34.3 32.2809 36.26 27.9082 36.26 22.7638Z" fill="#4285F4"/>
<path d="M18.48 39.3543C23.52 39.3543 27.72 37.811 30.8 35.2388L24.78 30.9947C23.1 32.0236 21 32.6666 18.48 32.6666C13.72 32.6666 9.51996 29.7086 8.11996 25.5931H1.95996V29.9658C5.17996 35.7532 11.48 39.3543 18.48 39.3543Z" fill="#34A853"/>
<path d="M8.11997 25.5931C7.27997 23.5354 7.27997 21.2204 8.11997 19.0341V14.6614H1.95997C-0.700034 19.4199 -0.700034 25.0787 1.95997 29.9658L8.11997 25.5931Z" fill="#FBBC04"/>
<path d="M18.48 12.0892C21.14 12.0892 23.66 12.9895 25.62 14.6614L30.94 9.77428C27.58 6.94488 23.1 5.27296 18.62 5.40157C11.62 5.40157 5.17998 9.00262 2.09998 14.79L8.25998 19.1627C9.51998 15.0472 13.72 12.0892 18.48 12.0892Z" fill="#EA4335"/>
</g>
<defs>
<clipPath id="clip0_161_153">
<rect width="112" height="49" fill="white"/>
</clipPath>
</defs>
</svg>
