<svg width="125" height="53" viewBox="0 0 125 53" fill="none" xmlns="http://www.w3.org/2000/svg">
<path d="M124.901 37.281L121.853 11.9541C121.039 5.12318 115.232 0 108.375 0H79.3438C72.4603 0 66.6803 5.14946 65.8659 11.9541L62.8182 37.281C62.3453 41.1431 63.5801 45.0052 66.1549 47.9215C68.7296 50.8378 72.434 52.4929 76.3224 52.4929H111.423C115.311 52.4929 119.016 50.8378 121.59 47.9215C124.139 45.0052 125.374 41.1431 124.901 37.281ZM116.572 43.5077C115.18 45.0578 113.288 45.9248 111.213 45.9248H76.5063C74.4308 45.9248 72.5129 45.0578 71.1467 43.5077C69.7542 41.9576 69.1499 39.9608 69.3864 37.9116L72.3815 12.8474C72.8019 9.248 75.8758 6.54191 79.5014 6.54191H108.218C111.843 6.54191 114.891 9.248 115.337 12.8474L118.333 37.9116C118.569 39.9608 117.965 41.9576 116.572 43.5077Z" fill="#004956"/>
<path d="M111.291 29.5044C110.818 28.7687 110.083 28.2695 109.216 28.0856C108.349 27.9017 107.482 28.0594 106.746 28.5585C97.9972 34.2597 89.5111 34.2597 80.736 28.5585C80.0004 28.0856 79.1334 27.928 78.2664 28.1119C77.3994 28.2958 76.69 28.795 76.1909 29.5306C75.718 30.2663 75.5603 31.1333 75.7442 32.0003C75.9281 32.8673 76.4273 33.5766 77.163 34.0758C82.6277 37.6489 88.2238 39.4355 93.7411 39.4355C99.2846 39.4355 104.854 37.6226 110.319 34.0758C111.055 33.6029 111.554 32.8673 111.738 32.0003C111.948 31.107 111.79 30.24 111.291 29.5044Z" fill="#004956"/>
<path d="M51.7574 15.8424L48.6572 16.9196C48.9987 18.0231 49.4191 19.5732 49.4191 20.4927C49.4191 21.4911 48.7886 22.0954 47.58 22.0954C46.3452 22.0954 45.6358 21.8064 45.6358 20.1774V17.3663H42.3517V20.1512C42.3517 21.7801 41.6161 22.0691 40.3287 22.0691C39.0414 22.0691 38.332 21.7801 38.332 20.1512V17.3663H35.0216V20.1249C35.0216 21.7801 34.1284 22.0428 32.2367 22.0428C30.2926 22.0428 29.6095 21.6487 29.6095 19.5206V7.56653H26.1415V19.7308C26.1415 21.7013 25.4584 22.0691 23.5142 22.0691C21.9641 22.0691 21.0708 21.7538 21.0708 19.8096V10.8243H17.7342V12.6897C11.5601 13.9771 9.3269 16.5518 9.3269 19.7834C9.3269 22.8573 11.3499 24.854 14.345 24.854C16.5519 24.854 17.6816 23.7243 18.1808 22.2267C18.6275 24.9065 20.1775 26.4829 23.2252 26.4829C25.5372 26.4829 26.8508 25.432 27.4026 23.8556C28.0856 25.6422 29.6095 26.4829 31.974 26.4829C34.1284 26.4829 35.5471 25.6947 36.0988 24.0921C36.6506 25.7473 37.9642 26.4829 39.8033 26.4829C41.6687 26.4829 42.9297 25.6947 43.4552 24.0658C44.0069 25.721 45.3468 26.4829 47.4749 26.4829C50.7065 26.4829 52.7032 24.3811 52.7032 20.5453C52.7032 19.1003 52.3091 17.1561 51.7574 15.8424ZM17.7342 19.7045C17.2087 20.1249 16.2104 20.4402 14.7654 20.4402C13.4255 20.4402 12.1118 20.0724 12.1118 19.1791C12.1118 18.207 13.5043 17.2349 17.7342 16.5518V19.7045Z" fill="#004956"/>
<path d="M19.4942 10.0101C20.5451 10.0101 21.4121 9.24818 21.4121 8.171C21.4121 7.04127 20.4926 6.33191 19.4942 6.33191C18.4433 6.33191 17.55 7.06755 17.55 8.171C17.55 9.30073 18.4959 10.0101 19.4942 10.0101Z" fill="#004956"/>
<path d="M15.1331 10.0101C16.1841 10.0101 17.0511 9.24818 17.0511 8.171C17.0511 7.04127 16.1315 6.33191 15.1331 6.33191C14.0822 6.33191 13.189 7.06755 13.189 8.171C13.189 9.30073 14.1348 10.0101 15.1331 10.0101Z" fill="#004956"/>
<path d="M0 45.1367L0.525455 42.3518C1.52382 43.0611 3.31037 43.7179 4.80791 43.7179C6.09528 43.7179 6.85718 43.2976 6.85718 42.5882C6.85718 40.644 0.105091 42.4569 0.105091 37.754C0.105091 35.3107 2.12809 33.6818 5.41218 33.6818C7.17246 33.6818 8.80137 34.1809 9.95737 34.7852L9.40564 37.4913C8.30219 36.9133 6.936 36.3879 5.59609 36.3879C4.36127 36.3879 3.59937 36.8608 3.59937 37.5176C3.59937 39.5406 10.3515 37.8066 10.3515 42.1941C10.3515 44.6112 8.06573 46.2927 4.65028 46.2927C2.62727 46.2927 0.998364 45.6884 0 45.1367Z" fill="#004956"/>
<path d="M21.6225 34.0759H25.1693V45.9775H21.6487V44.007C20.6767 45.4258 19.3367 46.2665 17.5765 46.2665C14.5814 46.2665 11.7177 44.1384 11.7177 40.0136C11.7177 35.8888 14.45 33.7081 17.5765 33.7081C19.3105 33.7081 20.6767 34.3649 21.6487 35.6523V34.0759H21.6225ZM21.6225 39.961C20.9657 37.7541 19.6783 36.6244 18.207 36.6244C16.6307 36.6244 15.3958 37.8067 15.3958 39.961C15.3958 42.0891 16.6569 43.324 18.2333 43.324C19.7834 43.324 21.0445 41.9578 21.6225 39.961Z" fill="#004956"/>
<path d="M27.7439 45.9509V30.2661H31.2644V45.9509H27.7439Z" fill="#004956"/>
<path d="M33.8656 45.9509V30.2661H37.3861V45.9509H33.8656Z" fill="#004956"/>
<path d="M49.3403 34.0759H52.8608V45.9775H49.3403V44.007C48.3682 45.4258 47.0283 46.2665 45.268 46.2665C42.2729 46.2665 39.4092 44.1384 39.4092 40.0136C39.4092 35.8888 42.1415 33.7081 45.268 33.7081C47.002 33.7081 48.3682 34.3649 49.3403 35.6523V34.0759ZM49.3403 39.961C48.6835 37.7541 47.3961 36.6244 45.9248 36.6244C44.3485 36.6244 43.1136 37.8067 43.1136 39.961C43.1136 42.0891 44.3747 43.324 45.9511 43.324C47.5012 43.324 48.7623 41.9578 49.3403 39.961Z" fill="#004956"/>
</svg>
