<svg width="131" height="41" viewBox="0 0 131 41" fill="none" xmlns="http://www.w3.org/2000/svg">
<path d="M56.3676 0.0873903V13.8734C57.0012 13.8734 57.6348 13.8079 58.2465 13.6549C59.754 13.3054 61.1086 12.5407 62.1791 11.4701C63.6648 9.98449 64.5824 7.93079 64.5824 5.68045V0.0873903H56.3894H56.3676ZM59.4481 16.3859C57.5692 17.8934 56.3457 20.2093 56.3457 22.8092V40.3094H64.5387V14.5944C62.6161 14.5944 60.8246 15.2717 59.4263 16.3859H59.4481ZM92.22 18.7455C91.9797 18.6363 91.7175 18.5489 91.4771 18.4396C89.7075 17.7842 87.8286 17.3472 86.0152 16.9321C84.9446 16.6918 83.8522 16.4296 82.8035 16.1456C81.1431 15.6868 79.5264 15.2061 78.0189 14.507C76.4895 13.8079 75.8122 12.497 75.987 10.6618C76.1181 9.52568 76.7517 8.65176 77.5819 8.01818C78.1281 7.60307 78.7835 7.2972 79.3734 7.10057C80.4003 6.7947 81.5364 6.61991 82.6288 6.61991C83.7211 6.61991 85.0539 6.751 86.4303 7.38459C87.1731 7.71231 87.8722 8.21481 88.4621 8.89209C89.052 9.56938 89.5327 10.4214 89.9041 11.4483C89.9041 11.492 89.9478 11.5794 89.9697 11.7105C90.3411 13.1306 90.4722 13.5675 91.1057 13.5675H91.2368L91.3024 13.5457C91.3898 13.5457 91.499 13.502 91.5864 13.502C92.6132 13.3272 93.6401 13.1306 94.7106 12.934L97.0484 12.497L97.7694 12.3222L97.6383 11.6231C97.6164 11.5138 97.5946 11.4046 97.5727 11.2954C97.5509 11.1206 97.3979 10.3559 97.1139 9.37275C96.6333 7.82155 95.7593 5.7023 94.2518 4.26034C93.509 3.56121 92.6132 2.90577 91.6301 2.33772C91.4335 2.22848 91.215 2.09739 90.9965 1.98815L90.9091 1.94446H90.8654C89.5327 1.26718 88.0907 0.764671 86.5614 0.458801C85.9933 0.349561 85.469 0.262175 84.9665 0.218479C84.311 0.152935 83.6338 0.10924 82.9565 0.10924C81.2305 0.10924 79.5045 0.327717 77.8222 0.742827C73.8022 1.76968 70.2628 4.02001 68.7116 7.42829C68.3184 8.28035 68.0562 9.21981 67.9251 10.2467C67.7503 11.7979 67.9688 13.3272 68.5369 14.7692C69.4545 17.0195 71.246 19.0295 73.7585 20.4715C74.4139 20.8429 75.1131 21.1925 75.8778 21.4765C76.6643 21.7387 77.5382 22.0008 78.6306 22.3067C79.1331 22.4596 79.6356 22.5907 80.1599 22.7218C80.8809 22.9184 81.6237 23.1151 82.3447 23.3336C83.0657 23.5302 83.7867 23.705 84.4858 23.8798C85.6001 24.1419 86.6488 24.3822 87.6538 24.7755C87.9378 24.8848 88.2218 25.0158 88.4621 25.1469C90.1444 26.0208 90.9091 27.3317 90.7125 29.0359C90.5377 30.6744 89.4453 31.8324 87.9815 32.5315C86.7362 33.1433 85.2287 33.4273 83.743 33.4273C82.2573 33.4273 82.5414 33.3836 81.9733 33.2743C80.6187 33.034 79.4827 32.6845 78.5213 32.2694C74.4576 30.4778 73.693 27.441 73.409 26.283C73.3216 25.9335 73.2779 25.7587 73.1468 25.5839L72.8627 25.2125L71.967 25.4091C70.5032 25.7368 69.1049 26.0427 67.7285 26.3486L66.2865 26.6544L66.3958 27.3536C66.6142 28.7081 66.942 29.9753 67.3789 31.1551C67.4663 31.3954 67.5537 31.6139 67.6629 31.8324C69.1486 35.1096 71.9888 37.5347 75.9651 38.9111C76.0088 38.9111 76.0525 38.9548 76.0962 38.9548C76.1618 38.9767 76.2273 38.9985 76.2492 38.9985C76.8172 39.1733 77.4071 39.3044 77.9752 39.4355C78.8491 39.6321 79.723 39.785 80.5751 39.8724C81.296 39.9598 82.0607 40.0035 82.8254 40.0035C89.9915 40.0035 98.0315 36.7045 98.7525 29.4947C98.7744 29.2762 98.7962 29.0359 98.7962 28.8174C98.7962 28.7518 98.7962 28.6863 98.7962 28.5989V28.5334C98.8617 23.9671 96.6333 20.69 92.1763 18.811L92.22 18.7455ZM52.1946 3.47381C52.1946 3.45197 52.1946 3.43011 52.1946 3.40827C52.1509 3.16794 52.0854 2.92762 51.998 2.70914C51.998 2.70914 51.998 2.66544 51.9762 2.64359C51.8888 2.42511 51.7795 2.20663 51.6484 2.01C51.6484 1.98816 51.6266 1.96631 51.6047 1.94446C51.4737 1.74783 51.3207 1.5512 51.1678 1.37642C51.1459 1.35457 51.1241 1.33272 51.1022 1.31087C50.9275 1.13609 50.7308 0.961304 50.5123 0.808368C50.0754 0.502498 49.5729 0.28402 49.0267 0.174781C48.7864 0.131085 48.5242 0.10924 48.2839 0.10924C48.0435 0.10924 48.2402 0.10924 48.2183 0.10924H48.1965C47.9561 0.10924 47.7377 0.131085 47.4973 0.174781C47.4755 0.174781 47.4536 0.174781 47.4318 0.174781C47.1915 0.218476 46.973 0.284019 46.7327 0.37141C46.7108 0.37141 46.689 0.371412 46.6671 0.39326C46.5797 0.415107 46.5142 0.458803 46.4268 0.502499C46.2957 0.568043 46.1646 0.633586 46.0335 0.720978C46.0117 0.720978 45.9898 0.742829 45.9461 0.764677C45.7495 0.895764 45.5747 1.0487 45.3781 1.20163C45.3562 1.22348 45.3344 1.24533 45.3125 1.26718C45.1378 1.44196 44.963 1.63859 44.81 1.85707C44.81 1.85707 44.81 1.85707 44.81 1.87891H44.7882V1.92261L42.3412 5.48382L34.1483 17.3691L30.2156 23.0714V4.19479C30.2156 3.95447 30.1938 3.73599 30.1501 3.49566C30.1501 3.47382 30.1501 3.45196 30.1501 3.43012C30.1064 3.18979 30.0409 2.94947 29.9535 2.73099C29.9535 2.73099 29.9535 2.68729 29.9316 2.66544C29.8442 2.44696 29.735 2.22848 29.6039 2.03185C29.6039 2.01 29.5821 1.98816 29.5602 1.96631C29.4291 1.76968 29.2762 1.57305 29.1233 1.39826C29.1233 1.37642 29.0796 1.35456 29.0796 1.33272C28.9048 1.15793 28.7081 0.983153 28.4897 0.830218C28.0527 0.524347 27.5502 0.305869 27.004 0.19663C26.7637 0.152934 26.5015 0.131082 26.2612 0.131082C26.0209 0.131082 26.2175 0.131082 26.1956 0.131082H26.1738C25.9335 0.131082 25.6931 0.152934 25.4747 0.19663C25.4528 0.19663 25.431 0.19663 25.4091 0.19663C25.1688 0.240326 24.9285 0.305868 24.71 0.39326C24.6881 0.39326 24.6663 0.393261 24.6444 0.415109C24.426 0.5025 24.2293 0.61174 24.0108 0.742827C23.989 0.742827 23.9671 0.764671 23.9235 0.786519C23.7268 0.917606 23.5302 1.07054 23.3554 1.22348C23.3336 1.24532 23.3117 1.26718 23.2899 1.28902C23.0932 1.46381 22.9403 1.66044 22.7874 1.87891C22.7874 1.87891 22.7874 1.87892 22.7874 1.90076H22.7655V1.94446L20.3185 5.50567L12.1256 17.3909L8.19296 23.0932L0.720981 33.9298C0.240328 34.6071 0 35.4154 0 36.2457C0 37.0759 0.0218486 36.7263 0.0655444 36.9448C0.0655444 36.9666 0.0655444 36.9885 0.0655444 37.0103C0.10924 37.2507 0.174786 37.491 0.262177 37.7095C0.262177 37.7095 0.262175 37.7532 0.284023 37.775C0.371415 37.9935 0.480654 38.212 0.611742 38.4086C0.611742 38.4305 0.633589 38.4523 0.655437 38.4741C0.786524 38.6708 0.93946 38.8674 1.09239 39.0422C1.11424 39.064 1.13609 39.0859 1.15794 39.1077C1.33272 39.2825 1.52935 39.4573 1.74783 39.6102C1.90077 39.7195 2.07555 39.8069 2.22849 39.8943C2.27218 39.8943 2.29403 39.9161 2.33773 39.938C2.49066 40.0035 2.66544 40.0909 2.84023 40.1346C2.86207 40.1346 2.88393 40.1346 2.88393 40.1346C3.03686 40.1783 3.1898 40.222 3.36458 40.2438C3.40827 40.2438 3.45197 40.2438 3.51751 40.2657C3.67045 40.2875 3.84523 40.2875 4.02002 40.3094H4.10741C4.23849 40.3094 4.36958 40.3094 4.50067 40.2875C4.54436 40.2875 4.58806 40.2875 4.63176 40.2875C4.741 40.2875 4.85024 40.2438 4.95948 40.222C5.00317 40.222 5.04687 40.2001 5.09056 40.1783C5.1998 40.1564 5.28719 40.1127 5.39643 40.0909C5.44013 40.0909 5.48382 40.0472 5.52752 40.0472C5.63676 40.0035 5.72415 39.9598 5.81154 39.9161C5.85524 39.8943 5.89894 39.8724 5.94263 39.8506C6.07372 39.785 6.18296 39.7195 6.2922 39.6321C6.33589 39.6102 6.35774 39.5884 6.40144 39.5665C6.48883 39.501 6.57622 39.4355 6.68546 39.3481C6.72915 39.3044 6.77285 39.2607 6.81655 39.2388C6.88209 39.1733 6.96948 39.1077 7.03503 39.0203C7.07872 38.9767 7.10057 38.933 7.14427 38.8893C7.23166 38.8019 7.31905 38.6926 7.38459 38.5834C7.38459 38.5834 7.40644 38.5615 7.42829 38.5397H7.45013V38.496L12.0819 31.7668L20.2749 19.8816L22.0227 17.3472V36.2238C22.0227 36.4641 22.0445 36.7045 22.0882 36.923C22.0882 36.9448 22.0882 36.9666 22.0882 36.9885C22.1319 37.2288 22.1975 37.4692 22.2849 37.6876C22.2849 37.6876 22.2849 37.7313 22.3067 37.7532C22.3941 37.9716 22.5033 38.1901 22.6344 38.3868C22.6344 38.4086 22.6563 38.4305 22.6781 38.4523C22.8092 38.6489 22.9403 38.8456 23.1151 39.0203C23.1369 39.0422 23.1588 39.064 23.1806 39.0859C23.3554 39.2607 23.552 39.4355 23.7705 39.5884C23.9235 39.6976 24.0982 39.785 24.273 39.8724C24.2949 39.8724 24.3386 39.8943 24.3823 39.9161C24.557 39.9817 24.71 40.069 24.9066 40.1127C24.9066 40.1127 24.9285 40.1127 24.9503 40.1127C25.1032 40.1564 25.2562 40.2001 25.431 40.222H25.5839C25.7368 40.2657 25.9116 40.2657 26.0645 40.2875H26.1519C26.283 40.2875 26.4141 40.2875 26.5452 40.2657C26.5889 40.2657 26.6326 40.2657 26.6763 40.2657C26.7855 40.2657 26.8948 40.222 27.004 40.2001C27.0477 40.2001 27.0914 40.1783 27.1351 40.1564C27.2443 40.1346 27.3536 40.0909 27.441 40.069C27.4847 40.069 27.5284 40.0254 27.5721 40.0254C27.6594 39.9817 27.7687 39.938 27.8561 39.8943C27.8998 39.8724 27.9435 39.8506 27.9872 39.8287C28.1182 39.7632 28.2275 39.6976 28.3367 39.6102C28.3804 39.5884 28.4023 39.5665 28.446 39.5447C28.5334 39.4792 28.6426 39.4136 28.73 39.3262C28.7737 39.2825 28.8174 39.2388 28.8611 39.217C28.9266 39.1514 28.9922 39.0859 29.0796 38.9985C29.1233 38.9548 29.1669 38.9111 29.1888 38.8674C29.2762 38.78 29.3417 38.6708 29.4291 38.5615C29.4291 38.5615 29.451 38.5397 29.4728 38.5178H29.4947V38.4741L30.1719 37.491L34.1264 31.7668L42.3194 19.8816L44.0672 17.3254V39.9161C44.0672 40.0472 44.0672 40.1783 44.0891 40.2875H52.2383C52.2383 40.1783 52.2602 40.0472 52.2602 39.9161V4.1511C52.2602 3.91077 52.2383 3.69229 52.1946 3.45197V3.47381ZM117.782 3.27719C117.323 3.01501 116.777 2.92761 116.253 2.99316C116.1 2.99316 115.947 3.03685 115.794 3.08055C114.833 3.36457 114.286 4.1511 114.199 5.30904C114.199 5.39643 114.199 5.48382 114.199 5.57121C114.199 6.81655 114.964 7.73416 116.078 7.95263C116.231 7.97448 116.384 7.99633 116.559 7.99633C116.821 7.95263 117.105 7.90894 117.345 7.8434C118.306 7.53752 118.853 6.751 118.896 5.59306C118.94 4.41327 118.459 3.6486 117.76 3.25534L117.782 3.27719ZM117.782 3.27719C117.323 3.01501 116.777 2.92761 116.253 2.99316C116.1 2.99316 115.947 3.03685 115.794 3.08055C114.833 3.36457 114.286 4.1511 114.199 5.30904C114.199 5.39643 114.199 5.48382 114.199 5.57121C114.199 6.81655 114.964 7.73416 116.078 7.95263C116.231 7.97448 116.384 7.99633 116.559 7.99633C116.821 7.95263 117.105 7.90894 117.345 7.8434C118.306 7.53752 118.853 6.751 118.896 5.59306C118.94 4.41327 118.459 3.6486 117.76 3.25534L117.782 3.27719ZM107.535 2.94947C107.426 2.97131 107.339 3.01501 107.229 3.03686C106.399 3.34273 105.897 4.1074 105.809 5.17795C105.7 6.51067 106.443 7.53752 107.535 7.82155C107.972 7.93079 108.453 7.93078 108.934 7.77785C109.939 7.47198 110.529 6.59806 110.529 5.39643C110.529 3.6486 109.218 2.5562 107.535 2.94947ZM107.514 7.82155C107.95 7.93079 108.431 7.93078 108.912 7.77785C109.917 7.47198 110.507 6.59806 110.507 5.39643C110.507 3.6486 109.196 2.5562 107.514 2.94947C107.404 2.97131 107.317 3.01501 107.208 3.03686C106.377 3.34273 105.875 4.1074 105.788 5.17795C105.678 6.51067 106.421 7.53752 107.514 7.82155ZM117.782 3.27719C117.323 3.01501 116.777 2.92761 116.253 2.99316C116.1 2.99316 115.947 3.03685 115.794 3.08055C114.833 3.36457 114.286 4.1511 114.199 5.30904C114.199 5.39643 114.199 5.48382 114.199 5.57121C114.199 6.81655 114.964 7.73416 116.078 7.95263C116.231 7.97448 116.384 7.99633 116.559 7.99633C116.821 7.95263 117.105 7.90894 117.345 7.8434C118.306 7.53752 118.853 6.751 118.896 5.59306C118.94 4.41327 118.459 3.6486 117.76 3.25534L117.782 3.27719ZM128.291 1.76967C127.33 4.43512 126.346 7.12241 125.385 9.78786C125.014 10.7929 124.293 11.6668 123.353 12.1693C122.72 12.497 122.108 12.6062 121.452 12.5407C121.037 12.497 120.622 12.4096 120.207 12.2567C120.382 11.7542 120.557 11.2735 120.731 10.7929C121.19 10.9239 121.627 11.0769 122.086 10.9676C122.982 10.771 123.506 10.1811 123.834 9.37275C123.878 9.26351 123.834 9.08873 123.768 8.95764C122.916 6.59807 122.042 4.23849 121.19 1.85707C121.147 1.74783 121.103 1.61674 121.059 1.48565H122.698C123.353 3.32088 124.031 5.1998 124.686 7.05687C124.708 7.05687 124.73 7.05687 124.773 7.05687C125.429 5.1998 126.084 3.36457 126.761 1.48565H128.378C128.356 1.59489 128.335 1.68228 128.313 1.76967H128.291ZM118.94 9.37275V8.65176C118.874 8.65176 118.831 8.65176 118.809 8.65176C118.088 9.43829 116.777 9.72231 115.532 9.43829C114.789 9.26351 114.09 8.87024 113.565 8.2585C113.391 8.06187 113.238 7.82154 113.107 7.55937C112.823 6.99132 112.67 6.33589 112.648 5.68045C112.604 4.74099 112.844 3.77968 113.303 3.01501C113.391 2.88392 113.478 2.75283 113.565 2.64359C114.374 1.68228 115.925 1.15793 117.301 1.46381C117.651 1.5512 117.979 1.66044 118.285 1.85707C118.437 1.94446 118.59 2.07555 118.743 2.20663C118.787 2.22848 118.809 2.25033 118.918 2.33772V1.46381H120.469V9.3509H118.94V9.37275ZM104.236 1.48565H105.766C105.766 1.63859 105.766 1.76968 105.788 1.94446C105.919 1.87892 106.05 1.81338 106.159 1.74783C106.421 1.5949 106.705 1.48566 107.011 1.42011C107.819 1.20163 108.693 1.22348 109.458 1.48565C109.829 1.61674 110.201 1.76968 110.507 2.01C110.66 2.11924 110.791 2.22848 110.922 2.35957C111.599 3.03686 111.927 3.86708 112.036 4.80654C112.145 5.83339 111.992 6.81654 111.468 7.73416C111.206 8.17111 110.878 8.49883 110.507 8.78285C110.07 9.08872 109.589 9.28536 109.065 9.3946C108.584 9.50384 108.082 9.50383 107.579 9.46014C107.579 9.46014 107.579 9.46014 107.557 9.46014C106.924 9.39459 106.356 9.15427 105.766 8.82655V11.776H104.193V1.52935L104.236 1.48565ZM101.593 0.0218426V13.8297H122.807C127.33 13.8079 131 10.1374 131 5.59306V0H101.593V0.0218426ZM107.535 2.94947C107.426 2.97131 107.339 3.01501 107.229 3.03686C106.399 3.34273 105.897 4.1074 105.809 5.17795C105.7 6.51067 106.443 7.53752 107.535 7.82155C107.972 7.93079 108.453 7.93078 108.934 7.77785C109.939 7.47198 110.529 6.59806 110.529 5.39643C110.529 3.6486 109.218 2.5562 107.535 2.94947ZM117.782 3.27719C117.323 3.01501 116.777 2.92761 116.253 2.99316C116.1 2.99316 115.947 3.03685 115.794 3.08055C114.833 3.36457 114.286 4.1511 114.199 5.30904C114.199 5.39643 114.199 5.48382 114.199 5.57121C114.199 6.81655 114.964 7.73416 116.078 7.95263C116.231 7.97448 116.384 7.99633 116.559 7.99633C116.821 7.95263 117.105 7.90894 117.345 7.8434C118.306 7.53752 118.853 6.751 118.896 5.59306C118.94 4.41327 118.459 3.6486 117.76 3.25534L117.782 3.27719ZM117.782 3.27719C117.323 3.01501 116.777 2.92761 116.253 2.99316C116.1 2.99316 115.947 3.03685 115.794 3.08055C114.833 3.36457 114.286 4.1511 114.199 5.30904C114.199 5.39643 114.199 5.48382 114.199 5.57121C114.199 6.81655 114.964 7.73416 116.078 7.95263C116.231 7.97448 116.384 7.99633 116.559 7.99633C116.821 7.95263 117.105 7.90894 117.345 7.8434C118.306 7.53752 118.853 6.751 118.896 5.59306C118.94 4.41327 118.459 3.6486 117.76 3.25534L117.782 3.27719ZM107.535 2.94947C107.426 2.97131 107.339 3.01501 107.229 3.03686C106.399 3.34273 105.897 4.1074 105.809 5.17795C105.7 6.51067 106.443 7.53752 107.535 7.82155C107.972 7.93079 108.453 7.93078 108.934 7.77785C109.939 7.47198 110.529 6.59806 110.529 5.39643C110.529 3.6486 109.218 2.5562 107.535 2.94947ZM107.535 2.94947C107.426 2.97131 107.339 3.01501 107.229 3.03686C106.399 3.34273 105.897 4.1074 105.809 5.17795C105.7 6.51067 106.443 7.53752 107.535 7.82155C107.972 7.93079 108.453 7.93078 108.934 7.77785C109.939 7.47198 110.529 6.59806 110.529 5.39643C110.529 3.6486 109.218 2.5562 107.535 2.94947Z" fill="#5B26C7"/>
</svg>
