<svg width="151" height="45" viewBox="0 0 151 45" fill="none" xmlns="http://www.w3.org/2000/svg">
<g clip-path="url(#clip0_161_109)">
<path fill-rule="evenodd" clip-rule="evenodd" d="M35.035 8.66457C35.0018 8.43752 34.8027 8.313 34.6367 8.29836C34.4707 8.28371 31.2468 8.2361 31.2468 8.2361C31.2468 8.2361 28.5467 5.636 28.2811 5.36867C28.0155 5.105 27.4954 5.18556 27.2925 5.24416C27.2888 5.24416 26.7872 5.40163 25.9351 5.66164C25.7949 5.20387 25.5847 4.64357 25.2859 4.07961C24.3268 2.25954 22.9177 1.2964 21.2173 1.29274C21.2136 1.29274 21.2136 1.29274 21.2099 1.29274C21.0918 1.29274 20.9738 1.30373 20.8558 1.31471C20.8041 1.25612 20.7562 1.19753 20.7008 1.13893C19.9594 0.351579 19.0114 -0.0292808 17.8716 0.00367824C15.6769 0.0659341 13.4895 1.64064 11.7152 4.43849C10.4685 6.40505 9.51678 8.87697 9.24751 10.7923C6.72814 11.5686 4.96496 12.1106 4.92438 12.1216C3.65179 12.5171 3.61121 12.5574 3.44522 13.7476C3.33087 14.6448 0 40.21 0 40.21L27.9048 45L40 42.0154C40 42.0154 35.0646 8.89162 35.035 8.66457ZM24.5371 6.0901C23.8952 6.28786 23.1649 6.51125 22.3718 6.75661C22.3571 5.65431 22.2243 4.11623 21.7042 2.79054C23.3715 3.10182 24.1903 4.97316 24.5371 6.0901ZM20.9111 7.20705C19.4504 7.65749 17.8532 8.14821 16.2523 8.63893C16.7023 6.92873 17.5581 5.22218 18.6057 4.10524C18.9967 3.68776 19.5426 3.22633 20.1881 2.96266C20.7968 4.21877 20.9259 6.00221 20.9111 7.20705ZM17.9196 1.45387C18.436 1.44289 18.8676 1.55641 19.2401 1.79811C18.6463 2.10207 18.0745 2.54152 17.536 3.11281C16.1416 4.59963 15.0719 6.90309 14.6477 9.12966C13.3198 9.53615 12.0177 9.93898 10.8226 10.3052C11.5751 6.80422 14.5334 1.54909 17.9196 1.45387Z" fill="#95BF47"/>
<path fill-rule="evenodd" clip-rule="evenodd" d="M34.6366 8.29834C34.4706 8.28369 31.2467 8.23608 31.2467 8.23608C31.2467 8.23608 28.5466 5.63599 28.281 5.36865C28.1814 5.26978 28.0486 5.21851 27.9048 5.19653V44.9963L39.9963 42.0117C39.9963 42.0117 35.0608 8.8916 35.0313 8.66455C35.0055 8.4375 34.8026 8.31299 34.6366 8.29834Z" fill="#5E8E3E"/>
<path fill-rule="evenodd" clip-rule="evenodd" d="M21.2026 14.4727L19.7972 19.6912C19.7972 19.6912 18.2295 18.9844 16.3741 19.098C13.6518 19.2701 13.6223 20.9729 13.6482 21.4014C13.7957 23.7342 19.9779 24.2432 20.3283 29.7107C20.6013 34.0101 18.0303 36.9507 14.3269 37.1851C9.88202 37.4634 7.43274 34.8597 7.43274 34.8597L8.37335 30.8826C8.37335 30.8826 10.8374 32.7283 12.8071 32.6038C14.0945 32.5232 14.5556 31.4832 14.5076 30.7471C14.3158 27.7039 9.27708 27.8833 8.95985 22.8809C8.69058 18.6731 11.4755 14.4068 17.6209 14.0223C19.9927 13.8721 21.2026 14.4727 21.2026 14.4727Z" fill="white"/>
</g>
<path d="M53.1177 27.1194C53.9161 27.5984 55.5129 28.2371 56.95 28.0774C58.2274 28.0774 59.0258 27.4387 59.0258 26.4806C59.0258 25.6823 58.5468 25.0435 57.1097 24.2452C55.3532 23.2871 54.0758 21.85 54.0758 19.9339C54.0758 16.5806 56.95 14.3452 60.9419 14.3452C62.6984 14.3452 64.1355 14.6645 64.9339 15.1435L63.8161 18.4968C63.1774 18.1774 62.0597 17.8581 60.9419 17.8581C59.6645 17.8581 58.7065 18.4968 58.7065 19.4548C58.7065 20.2532 59.3452 20.7323 60.4629 21.371C62.2194 22.4887 63.8161 23.9258 63.8161 25.8419C63.8161 29.5145 60.7823 31.75 56.6306 31.5903C54.7145 31.5903 52.9581 31.1113 52 30.4726L53.1177 27.1194ZM64.7742 30.9516L69.4048 7H74.0355L72.279 16.5806V16.7403C73.5565 15.3032 75.1532 14.3452 77.229 14.3452C79.6242 14.3452 81.0613 15.9419 81.0613 18.6564C81.0613 19.4548 80.9016 20.5726 80.7419 21.5306L78.9855 30.9516H74.3548L76.1113 21.6903C76.271 21.0516 76.271 20.4129 76.271 19.7742C76.271 18.8161 75.7919 18.0177 74.8339 18.0177C73.3968 18.0177 71.8 19.7742 71.1613 22.8081L69.5645 30.7919H64.7742V30.9516ZM98.1468 20.8919C98.1468 26.6403 94.4742 31.5903 88.8855 31.5903C84.7339 31.5903 82.4984 28.7161 82.4984 25.0435C82.4984 19.2952 86.171 14.3452 91.9194 14.3452C96.071 14.3452 98.1468 17.5387 98.1468 20.8919ZM87.129 25.0435C87.129 26.8 87.7677 28.0774 89.3645 28.0774C91.9194 28.0774 93.1968 23.6065 93.1968 20.7323C93.1968 19.2952 92.7177 17.8581 90.9613 17.8581C88.5661 18.0177 87.129 22.329 87.129 25.0435ZM96.8694 37.3387L100.063 20.7323C100.382 18.8161 100.861 16.5806 101.021 14.9839H105.173L104.853 16.5806C106.131 14.9839 107.887 14.0258 109.803 14.0258C113.156 14.0258 114.594 17.0597 114.594 20.0935C114.594 25.8419 110.921 31.4306 105.492 31.4306C104.694 31.5903 103.576 30.9516 103.097 30.9516H102.937L101.66 37.3387H96.8694ZM103.576 27.4387C104.055 27.9177 104.694 28.0774 105.492 28.0774C108.047 28.0774 109.963 23.7661 109.963 20.7323C109.963 19.4548 109.484 18.1774 108.047 18.1774C106.45 18.1774 104.853 20.0935 104.374 22.9677L103.576 27.4387ZM115.073 30.9516L118.266 14.9839H123.056L119.863 30.9516H115.073ZM121.14 13.3871C119.863 13.3871 118.905 12.1097 118.905 10.6726C118.905 9.07581 120.023 7.79839 121.619 7.79839C123.056 7.79839 124.015 9.07581 124.015 10.3532C123.855 12.1097 122.577 13.3871 121.14 13.3871ZM123.855 30.9516L126.41 18.1774H124.174L124.813 14.9839H127.048L127.208 14.0258C127.527 12.1097 128.326 10.0339 129.923 8.59677C131.2 7.47903 132.797 7 134.553 7C135.671 7 136.629 7.15968 137.108 7.31936L136.15 10.9919C135.671 10.8323 135.192 10.6726 134.713 10.6726C133.116 10.6726 132.158 12.2694 131.998 13.8661L131.519 14.9839H134.713L134.074 18.1774H130.881L128.326 30.9516H123.855ZM140.621 14.9839L141.419 22.329C141.579 23.9258 141.739 24.5645 141.898 26.1613C142.218 24.5645 142.537 24.0855 143.335 22.329L146.21 14.9839H151L145.252 27.1194C143.176 31.271 141.26 34.3048 139.024 36.3806C137.427 37.9774 135.352 38.6161 134.394 38.9355L133.116 34.9435C133.915 34.6242 134.873 34.3048 135.831 33.6661C136.948 32.8677 137.906 31.9097 138.385 30.7919C138.545 30.6323 138.545 30.4726 138.545 30.1532L135.671 14.9839H140.621Z" fill="#B4E52C"/>
<path d="M60.9419 14.3452C62.6984 14.3452 64.1355 14.6645 64.9339 15.1435L63.8161 18.4968C63.1774 18.1774 62.0597 17.8581 60.9419 17.8581C59.6645 17.8581 58.7065 18.4968 58.7065 19.4548C58.7065 20.2532 59.3452 20.7323 60.4629 21.371C62.2194 22.4887 63.8161 23.9258 63.8161 25.8419C63.8161 29.5145 60.7823 31.75 56.6306 31.5903C54.7145 31.5903 52.9581 31.1113 52 30.4726L53.1177 27.1194C53.9161 27.5984 55.5129 28.2371 56.95 28.0774C58.2274 28.0774 59.0258 27.4387 59.0258 26.4806C59.0258 25.6823 58.5468 25.0435 57.1097 24.2452C55.3532 23.2871 54.0758 21.85 54.0758 19.9339M64.7742 30.9516L68.9258 11.95L74.0355 7.31936L72.279 16.7403C73.5565 15.3032 75.1532 14.3452 77.229 14.3452C79.6242 14.3452 81.0613 15.9419 81.0613 18.6564C81.0613 19.4548 80.9016 20.5726 80.7419 21.5306L78.9855 30.9516H74.3548L76.1113 21.6903C76.271 21.0516 76.271 20.4129 76.271 19.7742C76.271 18.8161 75.7919 18.0177 74.8339 18.0177C73.3968 18.0177 71.8 19.7742 71.1613 22.8081L69.5645 30.7919H64.7742V30.9516ZM91.7597 14.3452C96.071 14.3452 98.1468 17.5387 98.1468 20.8919C98.1468 26.6403 94.4742 31.5903 88.8855 31.5903C84.7339 31.5903 82.4984 28.7161 82.4984 25.0435M87.129 25.0435C87.129 26.8 87.7677 28.0774 89.3645 28.0774C91.9194 28.0774 93.1968 23.6065 93.1968 20.7323C93.1968 19.2952 92.7177 17.8581 90.9613 17.8581C88.5661 18.0177 87.129 22.329 87.129 25.0435ZM105.332 14.9839L105.013 16.5806C106.29 14.9839 108.047 14.0258 109.963 14.0258C113.316 14.0258 114.753 17.0597 114.753 20.0935C114.753 25.8419 111.081 31.4306 105.652 31.4306C104.694 31.5903 103.576 30.9516 103.097 30.9516H102.937L101.66 37.3387H97.029L100.223 20.4129M103.576 27.4387C104.055 27.9177 104.694 28.0774 105.492 28.0774C108.047 28.0774 109.963 23.7661 109.963 20.7323C109.963 19.4548 109.484 18.1774 108.047 18.1774C106.45 18.1774 104.853 20.0935 104.374 22.9677L103.576 27.4387ZM115.073 30.9516L118.266 18.8161L123.056 14.9839L119.863 30.9516H115.073ZM121.619 7.79839C123.056 7.79839 124.015 8.91613 124.015 10.3532C124.015 12.1097 122.737 13.3871 121.3 13.3871C120.023 13.3871 119.065 12.1097 119.065 10.6726M134.394 7C135.511 7 136.469 7.15968 136.948 7.47903L135.99 11.1516C135.511 10.9919 135.032 10.8323 134.553 10.8323C132.956 10.8323 131.998 12.429 131.839 14.0258L131.519 14.9839H134.713L134.074 18.1774H130.881L128.326 30.9516H123.855L126.41 18.1774H124.174L124.813 14.9839H127.048L127.208 14.0258M140.621 14.9839L141.419 22.1694C141.579 23.7661 141.739 24.5645 141.898 26.1613C142.218 24.5645 142.537 24.0855 143.335 22.329L146.21 14.9839H151L145.252 27.1194C143.176 31.271 141.26 34.3048 139.024 36.3806C137.427 37.9774 135.352 38.6161 134.394 38.9355L133.116 34.9435C133.915 34.6242 134.873 34.3048 135.831 33.6661C136.948 32.8677 137.906 31.9097 138.385 30.7919C138.545 30.6323 138.545 30.3129 138.545 29.9935L137.427 18.4968L140.621 14.9839Z" fill="#8BB43F"/>
<defs>
<clipPath id="clip0_161_109">
<rect width="40" height="45" fill="white"/>
</clipPath>
</defs>
</svg>
