<svg width="143" height="42" viewBox="0 0 143 42" fill="none" xmlns="http://www.w3.org/2000/svg">
<path d="M13.8554 41.9847C17.6137 42.121 21.2795 40.8043 24.0884 38.309C24.9994 37.4151 25.7193 36.3463 26.2048 35.1669C26.6902 33.9876 26.931 32.7225 26.9127 31.4477C26.9239 30.259 26.6982 29.08 26.2484 27.9792C25.7987 26.8784 25.134 25.8777 24.2931 25.0357C22.3027 23.1655 19.791 21.9408 17.0891 21.5233L12.034 20.5432C9.98738 20.1347 8.75943 19.0932 8.75943 17.6639C8.75943 15.7646 10.6014 14.4578 13.5484 14.4578C15.1933 14.3941 16.7969 14.9811 18.01 16.0914C18.6911 16.8321 19.1209 17.7682 19.238 18.7666L26.5238 17.1329C26.2915 15.0616 25.335 13.1384 23.8224 11.701C21.0434 9.13911 17.3715 7.76154 13.5894 7.86193C10.0648 7.75134 6.62618 8.96055 3.94993 11.2518C2.97405 12.1518 2.19701 13.245 1.66842 14.4616C1.13983 15.6782 0.871322 16.9913 0.880036 18.3173C0.843623 19.425 1.03351 20.5284 1.43812 21.5607C1.84274 22.5928 2.45364 23.5319 3.23362 24.321C5.15205 26.0942 7.52506 27.3029 10.0897 27.8128L15.063 28.9972C17.5598 29.5691 18.6649 30.488 18.6649 32.1216C18.6649 34.1636 16.8435 35.3276 13.8349 35.3276C12.907 35.3727 11.9796 35.2275 11.1102 34.9008C10.2407 34.5742 9.44761 34.0731 8.77989 33.4285C7.98209 32.6269 7.5147 31.5556 7.47007 30.4267L0 32.0604C0.228612 34.2529 1.2294 36.2934 2.8243 37.819C4.29319 39.199 6.02429 40.2714 7.91541 40.9728C9.80652 41.6743 11.8193 41.9906 13.8349 41.903L13.8554 41.9847ZM69.093 41.903C71.1392 41.9598 73.1764 41.6119 75.0872 40.8793C76.9981 40.1469 78.7448 39.0443 80.2266 37.6351C82.1218 35.8374 83.4878 33.5564 84.1765 31.0394L76.5017 28.4867C76.1433 29.7882 75.4357 30.9673 74.4551 31.897C73.013 33.2521 71.0938 33.9858 69.1135 33.939C68.0341 33.9507 66.9631 33.7492 65.962 33.3461C64.961 32.9431 64.0498 32.3465 63.2808 31.5907C61.6685 29.7474 60.8262 27.3575 60.9271 24.9132C60.816 22.4379 61.6833 20.0182 63.3421 18.1744C64.8902 16.6853 66.9633 15.8637 69.1135 15.8873C70.0705 15.8573 71.0235 16.023 71.9141 16.3742C72.8045 16.7254 73.6134 17.2546 74.2914 17.9293C75.2485 18.9015 75.9514 20.0938 76.338 21.4008L84.1355 18.787C83.4835 16.3544 82.2229 14.1271 80.4721 12.3136C78.9426 10.8645 77.1404 9.73221 75.1697 8.98214C73.199 8.23206 71.0989 7.87909 68.9907 7.94362C66.7986 7.91764 64.6231 8.32468 62.5894 9.14128C60.5556 9.95787 58.704 11.1679 57.1409 12.7016C54.0273 16.0324 52.3062 20.4237 52.3291 24.9782C52.3518 29.5329 54.117 33.9069 57.2636 37.2063C60.4348 40.2851 64.6891 42.0006 69.1135 41.9847L69.093 41.903ZM42.651 41.9847C45.1068 42.0844 47.5261 41.3661 49.5276 39.9427V32.9589C48.2399 33.8392 46.7086 34.2961 45.1479 34.2658C44.5596 34.3739 43.9537 34.3368 43.3832 34.1575C42.8127 33.9782 42.2948 33.6622 41.8748 33.2372C41.455 32.8121 41.1457 32.291 40.9741 31.7191C40.8028 31.1474 40.7742 30.5424 40.891 29.957V0H32.2749V8.84212H49.5686V17.1941H32.2749V32.0399C32.157 34.6584 33.0758 37.2183 34.8331 39.1668C35.8889 40.1351 37.1279 40.8832 38.4774 41.3671C39.827 41.851 41.2599 42.061 42.6919 41.9847" fill="#4F008C"/>
<path d="M92.5939 30.9994V8.84826H96.3217V10.6002C96.9126 9.87951 97.6616 9.30623 98.5102 8.92539C99.3586 8.54454 100.283 8.36649 101.212 8.40523C105.501 8.40523 108.587 11.8487 108.587 16.7824C108.587 21.7161 105.601 25.2603 101.212 25.2603C100.28 25.2942 99.3533 25.11 98.5045 24.7221C97.6558 24.334 96.9085 23.7531 96.3217 23.025V31.0801L92.5939 30.9994ZM96.3217 14.8894V18.917C96.6721 19.7602 97.262 20.4811 98.0176 20.9898C98.7732 21.4982 99.6611 21.7719 100.571 21.7765C103.056 21.7765 104.699 19.9037 104.699 16.8831C104.699 13.8625 103.056 12.03 100.571 12.03C99.6598 12.0167 98.7664 12.2809 98.0079 12.7877C97.2495 13.2946 96.6616 14.0203 96.3217 14.8694" fill="#03BB86"/>
<path d="M111.118 19.508C111.06 18.3004 111.517 17.1203 112.388 16.2242C113.26 15.3281 114.476 14.7884 115.772 14.7221L122.457 13.9343V13.1465C122.487 12.9589 122.471 12.7674 122.409 12.5866C122.347 12.4059 122.242 12.2406 122.101 12.1037C121.96 11.9668 121.787 11.8617 121.596 11.7967C121.405 11.7316 121.2 11.7083 120.997 11.7285H112.535V8.40002H120.997C124.382 8.40002 126.265 9.93622 126.265 12.6935V23.9394H122.457V21.9698C121.816 22.7556 120.977 23.3824 120.014 23.7947C119.051 24.2068 117.994 24.3917 116.936 24.3332C116.201 24.405 115.458 24.3321 114.755 24.1193C114.053 23.9064 113.406 23.5585 112.858 23.0979C112.309 22.6372 111.871 22.0743 111.571 21.4456C111.271 20.817 111.117 20.1367 111.118 19.4489V19.508ZM117.909 21.4184C118.855 21.4372 119.787 21.2022 120.594 20.7413C121.4 20.2802 122.047 19.6128 122.457 18.8186V16.8492L117.359 17.5188C115.941 17.696 115.243 18.3853 115.243 19.4883C115.243 20.5911 116.237 21.4577 117.993 21.4577" fill="#03BB86"/>
<path d="M129.432 27.5653H131.928C132.315 27.6085 132.702 27.4855 133.011 27.2209C133.321 26.9565 133.53 26.5699 133.598 26.1388L134.057 24.7123L128.79 8.40002H132.35L135.616 19.7503L138.754 8.40002H142.258L136.479 27.1312C135.69 29.7155 134.644 31.08 132.112 31.08H129.432V27.5653Z" fill="#03BB86"/>
</svg>
