<svg width="118" height="43" viewBox="0 0 118 43" fill="none" xmlns="http://www.w3.org/2000/svg">
<path d="M96.9906 42.0189H21.0094C9.40905 42.0189 0 32.6171 0 21.0094C0 9.40904 9.40182 0 21.0094 0H96.9906C108.591 0 118 9.40181 118 21.0094C118 32.6098 108.598 42.0189 96.9906 42.0189Z" fill="#00F1BC"/>
<path d="M98.0972 13.2347L92.6586 33.8898V33.9548H96.8677L102.306 13.2998H98.0972V13.2347ZM31.243 24.9146C30.6283 25.2545 29.8834 25.392 29.2035 25.392C27.7065 25.392 26.8242 25.1171 26.7591 23.8949V23.8298C26.7591 23.7647 26.7591 23.7647 26.7591 23.6924V20.1631V19.7509V17.2341V16.1493V15.7442V13.2998L23.02 13.7771C25.5368 13.2998 27.0267 11.2603 27.0267 9.29316V8.07092H22.8175V13.8422L22.5427 13.9073V24.5747C22.6801 27.5616 24.6473 29.3335 27.909 29.3335C29.0661 29.3335 30.3535 29.0587 31.3081 28.6537L31.243 24.9146Z" fill="#282929"/>
<path d="M31.9227 12.4178L20.1053 14.2547V17.2416L31.9299 15.4046C31.9227 15.4046 31.9227 12.4178 31.9227 12.4178ZM31.9227 16.8294L20.1053 18.6664V21.5231L31.9299 19.6861V16.8294H31.9227ZM45.2371 18.189C45.0346 14.8622 42.9951 12.8879 39.596 12.8879C37.6289 12.8879 36.0667 13.6328 34.9096 15.0647C33.8248 16.4895 33.21 18.594 33.21 21.1108C33.21 23.6276 33.7524 25.7322 34.9096 27.1569C35.9944 28.5817 37.6289 29.3338 39.596 29.3338C42.9951 29.3338 45.0997 27.3667 45.2371 23.9675V28.9939H49.4462V13.235L45.2371 13.9148V18.189ZM45.4468 21.1108C45.4468 24.0977 43.8847 25.9998 41.5053 25.9998C39.0609 25.9998 37.5638 24.1628 37.5638 21.1108C37.5638 18.0516 39.0609 16.2219 41.5053 16.2219C42.7276 16.2219 43.7473 16.6992 44.4271 17.5815C45.1069 18.4639 45.4468 19.6861 45.4468 21.1108ZM61.7481 12.8951C58.349 12.8951 56.2445 14.8622 56.1071 18.1963V8.61365L51.8979 9.29347V29.0662H56.1071V24.0399C56.2445 27.3667 58.349 29.4061 61.7481 29.4061C65.7548 29.4061 68.1342 26.3469 68.1342 21.1832C68.1342 16.0194 65.7548 12.8951 61.7481 12.8951ZM59.8461 26.007C57.4667 26.007 55.9046 24.1049 55.9046 21.1181C55.9046 19.6933 56.2445 18.4711 56.9243 17.5888C57.6041 16.7064 58.6239 16.2291 59.8461 16.2291C62.2906 16.2291 63.7876 18.0661 63.7876 21.1181C63.7876 24.17 62.2906 26.007 59.8461 26.007ZM79.6188 12.8951C76.2197 12.8951 74.1152 14.8622 73.9777 18.1963V8.61365L69.7686 9.29347V29.0662H73.9777V24.0399C74.1152 27.3667 76.2197 29.4061 79.6188 29.4061C83.6254 29.4061 86.0048 26.3469 86.0048 21.1832C86.0048 16.0194 83.5604 12.8951 79.6188 12.8951ZM77.7168 26.007C75.3374 26.007 73.7752 24.1049 73.7752 21.1181C73.7752 19.6933 74.1152 18.4711 74.795 17.5888C75.4748 16.7064 76.4945 16.2291 77.7168 16.2291C80.1612 16.2291 81.6583 18.0661 81.6583 21.1181C81.6583 24.17 80.1612 26.007 77.7168 26.007ZM86.0048 13.235H90.4888L94.1555 29.0662H90.1489C90.0765 28.9939 86.0048 13.235 86.0048 13.235ZM105.77 14.8622V13.5749H105.228V13.3001H106.588V13.5749H106.045V14.8622H105.77ZM106.725 14.8622V13.3001H107.267L107.542 14.045C107.607 14.2475 107.607 14.3198 107.68 14.3849C107.68 14.3198 107.745 14.2475 107.817 14.045L108.092 13.3001H108.634V14.8622H108.229V13.64L107.824 14.8622H107.549L107.144 13.64V14.8622H106.725Z" fill="#282929"/>
</svg>
