<svg width="21" height="21" viewBox="0 0 21 21" fill="none" xmlns="http://www.w3.org/2000/svg">
<path d="M17.4228 0H3.47412C1.55542 0 0 1.55542 0 3.47412V17.4228C0 19.3416 1.55542 20.897 3.47412 20.897H17.4228C19.3416 20.897 20.897 19.3416 20.897 17.4228V3.47412C20.897 1.55542 19.3416 0 17.4228 0Z" fill="black"/>
<path d="M16.9619 8.73877V5.95215C13.3193 5.79834 13.2022 2.48828 13.2022 2.17725V2.15381H10.3867V13.0068C10.3864 13.4758 10.2382 13.9328 9.96322 14.3127C9.68821 14.6926 9.30042 14.9761 8.85499 15.1229C8.40956 15.2696 7.92918 15.2722 7.48221 15.1302C7.03523 14.9882 6.64441 14.7089 6.36536 14.332C6.0863 13.955 5.93321 13.4997 5.92788 13.0307C5.92255 12.5618 6.06524 12.1031 6.33565 11.7199C6.60606 11.3367 6.99042 11.0486 7.43405 10.8964C7.87768 10.7443 8.35799 10.7359 8.80664 10.8726V7.99854C8.59095 7.97086 8.37371 7.957 8.15625 7.95703C7.1575 7.95703 6.18117 8.2532 5.35073 8.80808C4.52029 9.36296 3.87305 10.1516 3.49084 11.0744C3.10863 11.9971 3.00863 13.0124 3.20348 13.992C3.39833 14.9716 3.87927 15.8714 4.5855 16.5776C5.29173 17.2838 6.19152 17.7648 7.17108 17.9596C8.15065 18.1545 9.166 18.0545 10.0887 17.6722C11.0115 17.29 11.8001 16.6428 12.355 15.8124C12.9099 14.9819 13.2061 14.0056 13.2061 13.0068C13.2061 12.936 13.2061 12.8657 13.2012 12.7959V7.45166C14.4976 8.6377 16.9619 8.73877 16.9619 8.73877Z" fill="#00F6EF"/>
<path d="M17.791 9.42627V6.63818C14.148 6.48437 14.0313 3.17432 14.0313 2.86328V2.83984H11.2158V13.6929C11.2156 14.1619 11.0675 14.6189 10.7926 14.9989C10.5176 15.3788 10.1299 15.6624 9.68443 15.8093C9.23901 15.9561 8.75861 15.9588 8.3116 15.8168C7.86458 15.6749 7.47371 15.3956 7.1946 15.0187C6.91549 14.6418 6.76236 14.1864 6.75698 13.7174C6.75161 13.2485 6.89428 12.7897 7.16468 12.4065C7.43508 12.0233 7.81945 11.7351 8.26309 11.583C8.70674 11.4308 9.18707 11.4225 9.63574 11.5591V8.68457C9.41953 8.65749 9.2018 8.64428 8.98389 8.64502C7.98511 8.64531 7.00885 8.94177 6.17856 9.49691C5.34828 10.0521 4.70126 10.8409 4.31934 11.7638C3.93741 12.6867 3.83773 13.7021 4.0329 14.6816C4.22807 15.6611 4.70933 16.5608 5.41581 17.2668C6.12229 17.9728 7.02227 18.4534 8.00192 18.6479C8.98158 18.8425 9.99691 18.7421 10.9195 18.3595C11.8421 17.977 12.6306 17.3294 13.1852 16.4988C13.7397 15.6681 14.0355 14.6916 14.0352 13.6929C14.0352 13.6221 14.0352 13.5518 14.0303 13.4819V8.1377C15.3267 9.32373 17.791 9.42627 17.791 9.42627Z" fill="white"/>
<path d="M13.272 2.83984C13.4077 3.5791 13.8042 4.73486 14.96 5.41113C14.0767 4.38232 14.0322 3.05469 14.0322 2.86328V2.83984H13.272ZM17.791 9.42627V6.63818C17.5121 6.62796 17.2346 6.59531 16.9609 6.54053V8.73535C16.9609 8.73535 14.4966 8.63428 13.2012 7.44824V12.791C13.2041 12.8608 13.2061 12.9312 13.2061 13.002C13.2059 13.9156 12.958 14.8121 12.4886 15.5959C12.0192 16.3797 11.346 17.0216 10.5406 17.453C9.73527 17.8844 8.82797 18.0893 7.91537 18.0458C7.00278 18.0023 6.11907 17.7121 5.3584 17.2061C6.05796 17.9285 6.95731 18.4256 7.9412 18.6337C8.9251 18.8417 9.94871 18.7513 10.8808 18.3738C11.813 17.9964 12.6112 17.3493 13.1732 16.5153C13.7352 15.6813 14.0353 14.6985 14.0352 13.6929C14.0352 13.6221 14.0352 13.5518 14.0303 13.4819V8.1377C15.3267 9.32373 17.791 9.42627 17.791 9.42627Z" fill="#FF004F"/>
<path d="M8.8067 10.8682C8.2691 10.7042 7.68943 10.7492 7.18358 10.9942C6.67772 11.2391 6.28296 11.666 6.07822 12.1894C5.87348 12.7128 5.87384 13.2942 6.07924 13.8174C6.28464 14.3406 6.67993 14.7669 7.18609 15.0113C6.90949 14.6334 6.75878 14.1781 6.75531 13.7099C6.75185 13.2417 6.89581 12.7842 7.1668 12.4023C7.43778 12.0204 7.82206 11.7335 8.26519 11.5822C8.70832 11.4308 9.18783 11.4228 9.6358 11.5591V8.6846C9.41958 8.65752 9.20185 8.64431 8.98394 8.64505C8.92388 8.64505 8.8648 8.64505 8.80523 8.64847L8.8067 10.8682Z" fill="#FF004F"/>
</svg>
