<svg width="372" height="372" viewBox="0 0 372 372" fill="none" xmlns="http://www.w3.org/2000/svg">
<path d="M201.746 281.79H124.256V341.557H201.746V281.79Z" fill="#EBEBEB"/>
<path d="M182.332 341.136C182.225 341.136 182.139 327.814 182.139 311.383C182.139 294.948 182.226 281.629 182.332 281.629C182.439 281.629 182.526 294.948 182.526 311.383C182.526 327.813 182.439 341.136 182.332 341.136Z" fill="#E0E0E0"/>
<path d="M195.176 327.954H189.235V334.669H195.176V327.954Z" fill="#FAFAFA"/>
<path d="M156.698 281.944H147.896V294.697H156.698V281.944Z" fill="#E0E0E0"/>
<path d="M156.698 328.627H147.896V341.38H156.698V328.627Z" fill="#E0E0E0"/>
<path d="M342.349 266.805H244.643V342.165H342.349V266.805Z" fill="#EBEBEB"/>
<path d="M317.868 341.633C317.761 341.633 317.675 324.835 317.675 304.119C317.675 283.396 317.762 266.601 317.868 266.601C317.975 266.601 318.062 283.396 318.062 304.119C318.062 324.836 317.975 341.633 317.868 341.633Z" fill="#E0E0E0"/>
<path d="M334.064 325.012H326.573V333.479H334.064V325.012Z" fill="#FAFAFA"/>
<path d="M285.547 267H274.449V283.08H285.547V267Z" fill="#E0E0E0"/>
<path d="M285.547 325.861H274.449V341.941H285.547V325.861Z" fill="#E0E0E0"/>
<path d="M60.6065 269.022C64.5609 266.982 69.2176 266.717 73.6079 267.442C75.9664 267.832 78.4254 268.538 80.0302 270.309C81.635 272.081 81.9393 275.199 80.0964 276.721C78.999 277.627 77.4693 277.765 76.0468 277.749C72.6102 277.708 68.7965 277.104 66.0511 279.171C64.4843 280.351 63.4419 282.312 61.5685 282.893C59.7361 283.46 57.6685 282.379 56.6968 280.725C55.7252 279.071 55.6932 277.005 56.1455 275.14C56.1455 275.14 56.6232 271.078 60.6065 269.022Z" fill="#EBEBEB"/>
<path d="M51.5475 251.533C53.9655 254.987 58.6654 253.843 60.8446 251.735C63.0237 249.628 63.9448 246.572 64.7833 243.659C66.6991 237.001 68.6305 230.018 67.2058 223.239C66.7802 221.212 66.022 219.191 64.598 217.687C63.174 216.183 60.9837 215.289 58.9816 215.818C56.6119 216.444 55.1388 218.765 54.0749 220.973C50.9464 227.463 49.2895 234.658 49.2649 241.862C49.2523 245.226 49.6496 248.755 51.5475 251.533Z" fill="#EBEBEB"/>
<path d="M44.9061 256.488C47.5317 253.372 48.0302 248.827 46.8614 244.924C45.6933 241.02 43.0536 237.7 40.0121 234.989C36.4454 231.81 32.2537 229.337 27.7465 227.752C25.9728 227.128 24.1024 226.637 22.2305 226.815C20.3586 226.994 18.474 227.95 17.6013 229.616C16.3105 232.077 17.5478 235.063 18.887 237.5C21.2454 241.792 23.9417 245.897 26.943 249.768C29.3573 252.88 32.1235 255.951 35.8033 257.358C39.4831 258.765 43.3058 258.599 45.2566 256.047" fill="#EBEBEB"/>
<path d="M51.3833 303.63C51.4287 303.633 51.5023 303.074 51.602 302.061C51.7129 300.919 51.8528 299.485 52.0187 297.779C52.2181 295.977 52.4814 293.832 52.9821 291.496C53.4814 289.167 54.2626 286.642 55.2655 284.082C56.3041 281.536 57.5711 279.223 59.0517 277.373C60.5218 275.514 62.2308 274.169 63.8379 273.394C65.4397 272.602 66.8763 272.282 67.8688 272.139C68.8703 272.036 69.4312 271.957 69.4312 271.913C69.432 271.868 68.8695 271.861 67.8413 271.888C66.822 271.956 65.3266 272.214 63.6377 272.982C61.9444 273.733 60.1305 275.099 58.5889 276.996C57.0347 278.885 55.7216 281.249 54.6643 283.84C53.6436 286.445 52.8743 288.996 52.3974 291.376C51.9219 293.751 51.7047 295.92 51.5626 297.737C51.4264 299.555 51.3751 301.028 51.3506 302.046C51.3275 303.063 51.3387 303.628 51.3833 303.63Z" fill="#E0E0E0"/>
<path d="M51.6778 300.335C51.7001 300.333 51.7142 300.083 51.7202 299.607C51.7187 299.06 51.7172 298.37 51.715 297.524C51.7098 295.717 51.7105 293.102 51.8072 289.873C51.9672 283.414 52.523 276.463 53.5973 266.664C54.6143 257.449 55.9796 246.725 57.4207 239.753C57.7295 238.167 58.0405 236.739 58.3336 235.49C58.6126 234.237 58.8514 233.158 59.0813 232.284C59.2792 231.462 59.4399 230.792 59.5679 230.261C59.672 229.796 59.7167 229.549 59.6951 229.542C59.6735 229.536 59.5872 229.77 59.4422 230.225C59.2837 230.749 59.0835 231.409 58.8373 232.22C58.5694 233.086 58.2942 234.158 57.9809 235.406C57.6536 236.651 57.3106 238.074 56.9721 239.657C55.5466 245.975 54.037 254.805 52.953 264.628C51.8764 274.448 51.3921 283.39 51.3489 289.865C51.3102 293.102 51.3794 295.723 51.462 297.531C51.5133 298.377 51.5558 299.066 51.5892 299.612C51.6257 300.087 51.6554 300.336 51.6778 300.335Z" fill="#E0E0E0"/>
<path d="M51.7207 283.089C51.7661 283.088 51.7579 282.315 51.7059 280.914C51.6255 279.516 51.4336 277.496 51.04 275.02C50.6226 272.551 50.0393 269.62 49.1234 266.434C48.7262 264.977 47.7932 261.488 45.5329 256.274C42.5547 249.209 38.5088 243.432 34.9882 239.855C34.1623 238.906 33.2428 238.221 32.5077 237.55C32.1268 237.228 31.7905 236.907 31.4482 236.652C31.1038 236.415 30.7831 236.194 30.4862 235.989C29.3278 235.196 28.6791 234.779 28.6553 234.816C28.5511 234.957 31.2503 236.546 34.6579 240.171C38.052 243.789 41.9848 249.526 44.9392 256.531C46.5864 260.331 47.7351 263.72 48.5506 266.597C49.4925 269.752 50.1174 272.654 50.5899 275.098C51.0392 277.548 51.2989 279.548 51.4559 280.934C51.5839 282.322 51.6769 283.091 51.7207 283.089Z" fill="#E0E0E0"/>
<path d="M33.8984 310.891L35.626 334.566H66.0407L67.7683 310.891H33.8984Z" fill="#EBEBEB"/>
<path d="M71.3981 301.559H30.9609V310.89H71.3981V301.559Z" fill="#EBEBEB"/>
<path d="M30.9609 333.659V336.246H32.8611H70.73V333.659H30.9609Z" fill="#E0E0E0"/>
<path d="M34.7226 340.512L32.8604 335.96H69.2806L67.1074 340.512H34.7226Z" fill="#E0E0E0"/>
<path d="M67.2041 318.628C67.2108 318.634 67.1625 318.708 67.0628 318.846C66.9422 319.006 66.7927 319.204 66.6082 319.448C66.1767 320.001 65.583 320.761 64.8367 321.716L64.7579 321.817L64.6812 321.712C63.5675 320.171 62.0795 318.114 60.3281 315.691H60.5788C59.2842 317.524 57.8416 319.567 56.2934 321.759L56.1587 321.95L56.0084 321.77C54.4267 319.889 52.7088 317.845 50.9262 315.723L51.2193 315.719C51.1308 315.83 51.0355 315.95 50.9395 316.071C49.363 318.047 47.8378 319.959 46.3952 321.768L46.2434 321.958L46.1035 321.76C44.5605 319.577 43.1194 317.538 41.8159 315.693L42.0651 315.705C39.9522 318.113 38.1599 320.154 36.7849 321.721L36.6912 321.828L36.6198 321.708C35.9234 320.538 35.3684 319.606 34.9666 318.93C34.794 318.628 34.6541 318.384 34.5425 318.19C34.4488 318.021 34.4049 317.931 34.4131 317.926C34.4213 317.921 34.4815 318.001 34.5901 318.16C34.7137 318.347 34.8684 318.582 35.0596 318.872C35.4822 319.536 36.0648 320.451 36.7954 321.6L36.6302 321.587C37.9835 320 39.7468 317.934 41.8263 315.497L41.9572 315.344L42.0755 315.51C43.3902 317.345 44.8447 319.375 46.4011 321.549L46.1102 321.54C47.5499 319.729 49.0714 317.814 50.6442 315.835C50.7402 315.714 50.8354 315.594 50.9239 315.484L51.0683 315.302L51.2171 315.48C52.9952 317.605 54.7079 319.654 56.2852 321.539L56.001 321.55C57.5649 319.369 59.0216 317.337 60.3288 315.513L60.4561 315.335L60.5796 315.513C62.2945 317.961 63.7505 320.041 64.8404 321.598L64.6857 321.594C65.4624 320.663 66.0792 319.923 66.5286 319.384C66.7287 319.153 66.8909 318.965 67.0218 318.813C67.1357 318.686 67.1974 318.622 67.2041 318.628Z" fill="#F5F5F5"/>
<path d="M68.1916 310.735C68.1916 310.839 60.5708 310.924 51.1726 310.924C41.7707 310.924 34.1514 310.839 34.1514 310.735C34.1514 310.63 41.7707 310.546 51.1726 310.546C60.5708 310.545 68.1916 310.63 68.1916 310.735Z" fill="#F5F5F5"/>
<path d="M281.549 42.2631L275.314 42.2968L275.482 73.3216L281.717 73.2879L281.549 42.2631Z" fill="#E0E0E0"/>
<path d="M237.446 42.3457L221.3 42.4329L221.392 59.5605L237.539 59.4734L237.446 42.3457Z" fill="#EBEBEB"/>
<path d="M253.515 42.2587L237.369 42.3459L237.462 59.4735L253.608 59.3863L253.515 42.2587Z" fill="#F5F5F5"/>
<path d="M221.319 47.1726C232.049 47.2611 242.806 47.1986 253.535 47.0245C253.756 47.0208 253.754 46.683 253.532 46.6815C242.802 46.622 232.046 46.6748 221.317 46.8787C221.129 46.8817 221.13 47.1711 221.319 47.1726Z" fill="#E0E0E0"/>
<path d="M240.569 59.1885L211.233 59.3469L211.309 73.3044L240.644 73.146L240.569 59.1885Z" fill="#EBEBEB"/>
<path d="M269.764 59.0304L240.429 59.1888L240.504 73.1463L269.839 72.9878L269.764 59.0304Z" fill="#F5F5F5"/>
<path d="M211.248 63.2363C230.736 63.4573 250.292 63.2594 269.779 62.9476C270 62.9439 269.998 62.6054 269.777 62.6047C250.288 62.502 230.732 62.5131 211.248 62.9424C211.057 62.9469 211.059 63.2348 211.248 63.2363Z" fill="#E0E0E0"/>
<path d="M313.93 73.3123H200.278V78.3127H313.93V73.3123Z" fill="#E0E0E0"/>
<path d="M223.498 75.7169H218.885V92.7798H223.498V75.7169Z" fill="#E0E0E0"/>
<path d="M292.371 75.7169H287.758V92.7798H292.371V75.7169Z" fill="#E0E0E0"/>
<path d="M287.633 30.6936L281.398 30.7273L281.629 73.3971L287.864 73.3635L287.633 30.6936Z" fill="#EBEBEB"/>
<path d="M297.376 38.6376L287.688 38.6899L287.874 73.2688L297.563 73.2165L297.376 38.6376Z" fill="#F5F5F5"/>
<path d="M297.305 45.3104C297.305 45.4034 295.136 45.4785 292.461 45.4785C289.785 45.4785 287.617 45.4034 287.617 45.3104C287.617 45.2174 289.786 45.1422 292.461 45.1422C295.136 45.143 297.305 45.2181 297.305 45.3104Z" fill="#E0E0E0"/>
<path d="M297.305 43.8581C297.305 43.9511 295.136 44.0262 292.461 44.0262C289.785 44.0262 287.617 43.9511 287.617 43.8581C287.617 43.7651 289.786 43.6899 292.461 43.6899C295.136 43.6899 297.305 43.7651 297.305 43.8581Z" fill="#E0E0E0"/>
<path d="M297.305 68.0247C297.305 68.1177 295.136 68.1928 292.461 68.1928C289.785 68.1928 287.617 68.1177 287.617 68.0247C287.617 67.9317 289.786 67.8565 292.461 67.8565C295.136 67.8573 297.305 67.9324 297.305 68.0247Z" fill="#E0E0E0"/>
<path d="M297.305 66.5724C297.305 66.6654 295.136 66.7405 292.461 66.7405C289.785 66.7405 287.617 66.6654 287.617 66.5724C287.617 66.4794 289.786 66.4042 292.461 66.4042C295.136 66.4042 297.305 66.4794 297.305 66.5724Z" fill="#E0E0E0"/>
<path d="M292.616 63.403C292.523 63.403 292.448 59.9143 292.448 55.6118C292.448 51.3078 292.523 47.8199 292.616 47.8199C292.709 47.8199 292.785 51.3078 292.785 55.6118C292.785 59.9143 292.709 63.403 292.616 63.403Z" fill="#E0E0E0"/>
<path d="M307.956 47.1406H297.41V73.2409H307.956V47.1406Z" fill="#EBEBEB"/>
<path d="M284.419 39.7832C285.409 39.7832 286.212 38.9807 286.212 37.9909C286.212 37.001 285.409 36.1986 284.419 36.1986C283.429 36.1986 282.627 37.001 282.627 37.9909C282.627 38.9807 283.429 39.7832 284.419 39.7832Z" fill="#E0E0E0"/>
<path d="M284.973 42.9199H283.865V68.3037H284.973V42.9199Z" fill="#E0E0E0"/>
<path d="M345.705 341.757C345.705 341.864 274.196 341.951 186.007 341.951C97.7874 341.951 26.2949 341.864 26.2949 341.757C26.2949 341.65 97.7874 341.564 186.007 341.564C274.196 341.564 345.705 341.65 345.705 341.757Z" fill="#263238"/>
<path d="M111.011 68.7091C114.504 72.947 116.441 78.4384 116.382 83.9299C116.347 87.0681 115.769 90.5284 117.595 93.0811C118.98 95.0185 121.507 95.9879 122.633 98.0875C123.987 100.612 122.832 103.801 123.665 106.542C124.846 110.427 129.397 112.052 132.096 115.086C134.435 117.718 135.301 121.569 134.359 124.962C133.416 128.356 130.711 131.195 127.383 132.346C125.596 132.965 123.553 133.097 121.861 132.254C120.036 131.344 118.908 129.478 117.994 127.656C116.198 124.073 100.446 104.687 99.5537 100.779" fill="#263238"/>
<path d="M99.5522 64.1387C93.1114 63.1016 86.9205 67.3781 84.2064 73.3108C81.4923 79.2434 81.4187 85.9908 81.2185 92.5119C81.0184 99.0331 80.5601 105.84 77.2314 111.451C75.1185 115.013 71.8471 118.136 71.3337 122.245C70.8747 125.924 72.7786 129.629 72.1462 133.282C71.5956 136.463 69.1724 139.23 69.2684 142.457C69.3837 146.338 73.376 149.263 77.2582 149.367C81.1397 149.471 84.7667 147.437 87.8096 145.026C92.7476 141.112 96.7503 136.026 99.393 130.307" fill="#263238"/>
<path d="M88.9562 79.4986C88.105 72.7059 93.0192 66.498 99.9168 65.841C106.418 65.2213 112.196 70.0625 113.17 76.5196C114.024 82.1807 114.758 87.8947 114.732 89.9697C114.652 96.2282 110.99 98.6641 109.506 99.3962C109.168 99.5636 108.233 99.7525 107.859 99.8061C107.836 99.8098 107.82 99.8314 107.824 99.8545L109.214 107.039C109.844 111.746 107.216 115.943 102.517 116.629C97.8023 117.316 94.1166 113.7 93.3964 108.99L88.9562 79.4986Z" fill="#FFBE9D"/>
<path d="M111.89 79.2613C111.786 79.4079 110.96 78.9644 109.901 79.1214C108.841 79.2635 108.143 79.922 108.009 79.8089C107.944 79.7598 108.035 79.5098 108.337 79.2137C108.635 78.9198 109.168 78.5984 109.829 78.5046C110.489 78.4124 111.079 78.5738 111.435 78.7762C111.797 78.9793 111.941 79.1951 111.89 79.2613Z" fill="#263238"/>
<path d="M102.469 81.5498C102.366 81.6964 101.538 81.253 100.48 81.41C99.4208 81.5513 98.7221 82.2098 98.5882 82.0967C98.5235 82.0476 98.6128 81.7983 98.9171 81.5022C99.2147 81.2083 99.7481 80.8869 100.408 80.7932C101.069 80.7009 101.659 80.8624 102.014 81.0647C102.376 81.2679 102.52 81.4836 102.469 81.5498Z" fill="#263238"/>
<path d="M106.331 87.2288C106.317 87.1692 106.959 86.9594 108.006 86.6678C108.273 86.6001 108.521 86.5093 108.54 86.3181C108.575 86.1135 108.419 85.8382 108.242 85.5429C107.892 84.9253 107.526 84.2781 107.142 83.5995C105.603 80.8289 104.448 78.5344 104.559 78.4734C104.672 78.4124 106.009 80.6087 107.548 83.3793C107.921 84.0638 108.277 84.7155 108.616 85.3398C108.764 85.6321 108.99 85.955 108.912 86.3806C108.868 86.5934 108.691 86.769 108.525 86.8411C108.359 86.9193 108.207 86.9446 108.075 86.9721C107.009 87.1871 106.344 87.289 106.331 87.2288Z" fill="#263238"/>
<path d="M107.816 99.8121C107.816 99.8121 103.774 100.744 98.21 98.4148C98.21 98.4148 100.612 103.586 108.191 101.748L107.816 99.8121Z" fill="#EB996E"/>
<path d="M101.936 78.7747C101.874 79.0783 100.797 79.0954 99.575 79.4265C98.3474 79.733 97.3981 80.2426 97.1957 80.0083C97.1042 79.8952 97.2389 79.5991 97.6042 79.2605C97.965 78.9235 98.5676 78.5657 99.3012 78.3737C100.036 78.1832 100.736 78.2026 101.216 78.3201C101.698 78.4384 101.962 78.6311 101.936 78.7747Z" fill="#263238"/>
<path d="M111.021 76.9139C110.869 77.1818 110.104 77.0382 109.224 77.155C108.341 77.2406 107.627 77.553 107.419 77.3261C107.326 77.2145 107.408 76.9564 107.7 76.6818C107.987 76.408 108.494 76.1446 109.101 76.0747C109.706 76.0063 110.261 76.1484 110.602 76.35C110.948 76.5516 111.086 76.7845 111.021 76.9139Z" fill="#263238"/>
<path d="M100.173 82.9181C100.246 83.3778 100.695 83.6955 101.177 83.6286C101.657 83.5616 101.989 83.1353 101.917 82.6755C101.844 82.2157 101.395 81.8973 100.914 81.9642C100.432 82.0312 100.1 82.4575 100.173 82.9181Z" fill="#263238"/>
<path d="M109.553 80.8884C109.625 81.3482 110.075 81.6659 110.557 81.5989C111.037 81.532 111.369 81.1057 111.297 80.6459C111.224 80.1861 110.775 79.8677 110.294 79.9346C109.812 80.0016 109.48 80.4286 109.553 80.8884Z" fill="#263238"/>
<path d="M107.997 89.2919C107.315 89.0947 106.728 89.4399 106.452 89.934C106.176 90.428 106.242 91.1043 106.64 91.5068C107.038 91.91 107.746 91.9733 108.186 91.6161C108.484 91.3736 108.634 90.9867 108.672 90.6043C108.707 90.2509 108.649 89.873 108.431 89.5932C108.213 89.3127 107.81 89.1624 107.486 89.3068" fill="#EB996E"/>
<path d="M112.343 71.456C111.859 69.102 110.238 67.0939 108.265 65.722C106.589 64.5569 104.606 63.7853 102.566 63.7228C100.525 63.6604 98.4336 64.3463 96.9598 65.7584C95.8698 66.8023 95.3111 68.2813 95.2605 69.7887L95.3788 68.7486C95.073 69.6027 95.0737 70.5304 95.3922 71.3704C95.3929 71.3719 95.3929 71.3741 95.3929 71.3756L95.3922 71.3704C95.5648 71.8265 95.7716 72.2826 95.9546 72.7401C96.4754 74.0406 97.4843 75.138 98.7357 75.7667C99.3123 76.0561 99.9514 76.2503 100.596 76.2198C101.241 76.1893 101.891 75.9118 102.282 75.3984C102.841 74.6656 102.776 73.6493 102.686 72.7319C103.239 73.5965 103.826 74.493 104.716 75.0049C105.606 75.5167 106.891 75.4989 107.517 74.6849C108.124 73.8978 107.883 72.7662 107.532 71.8362C108.1 72.7029 108.915 73.4067 109.856 73.8442C110.376 74.086 110.989 74.2445 111.516 74.0168C111.963 73.8234 112.264 73.3762 112.378 72.9031C112.492 72.4306 112.442 71.9329 112.343 71.456Z" fill="#263238"/>
<path d="M106.969 73.3993C106.901 73.4016 106.912 72.5169 106.627 71.145C106.339 69.7961 105.656 67.8893 104.057 66.4801C103.27 65.7845 102.363 65.3031 101.483 65.0903C100.602 64.8723 99.7631 64.8984 99.0876 65.0301C97.7193 65.3083 97.0564 65.9571 97.0155 65.8894C97.0021 65.8745 97.1442 65.7004 97.4716 65.4638C97.7967 65.2272 98.3212 64.9438 99.0273 64.763C99.7304 64.5889 100.619 64.5301 101.565 64.7429C102.511 64.9512 103.482 65.4549 104.314 66.19C106.005 67.6809 106.673 69.7024 106.896 71.0929C107.01 71.8012 107.035 72.3808 107.03 72.7796C107.024 73.1806 106.993 73.4001 106.969 73.3993Z" fill="#455A64"/>
<path d="M175.49 160.143L146.882 148.802C146.882 148.802 132.227 129.584 132.533 129.211L122.246 140.478L137.198 160.717L171.843 168.828L188.252 168.96C186.982 162.65 175.49 160.143 175.49 160.143Z" fill="#FFBE9D"/>
<path d="M113.138 105.319L109.243 103.81L92.4135 105.943V108.917L91.9314 108.976C91.9314 108.976 86.704 109.926 81.6218 112.977C75.4681 116.672 72.2697 123.798 73.4095 130.885C74.094 135.141 75.4205 140.314 77.9762 143.303C82.8635 149.021 87.3275 141.954 87.3275 141.954C87.3275 141.954 90.3957 148.952 90.2194 152.261C90.0721 155.032 88.846 160.807 88.4517 162.611C88.3855 162.915 88.5848 163.208 88.8906 163.265L124.394 169.828L124.567 161.151L123.438 125.46L121.871 111.598C121.871 111.599 121.921 104.977 113.138 105.319Z" fill="#B0B552"/>
<path d="M121.326 109.294L134.863 128.852L123.964 142.127L121.326 109.294Z" fill="#B0B552"/>
<path d="M124.227 150.452C124.2 150.451 124.183 150.002 124.174 149.189C124.163 148.312 124.148 147.154 124.131 145.753C124.061 142.854 123.897 138.846 123.32 134.461C122.759 130.073 121.906 126.153 121.253 123.327C120.933 121.962 120.668 120.835 120.467 119.98C120.282 119.19 120.192 118.749 120.217 118.742C120.243 118.736 120.382 119.163 120.613 119.942C120.844 120.721 121.159 121.855 121.52 123.262C122.242 126.076 123.141 130.002 123.704 134.412C124.285 138.817 124.405 142.845 124.405 145.75C124.391 147.204 124.37 148.38 124.325 149.192C124.288 150.004 124.254 150.452 124.227 150.452Z" fill="#263238"/>
<path d="M90.9186 120.713C90.9164 120.776 89.8911 120.763 88.2432 120.851C86.5952 120.937 84.3238 121.163 81.8596 121.671C79.3955 122.183 77.2208 122.879 75.6748 123.454C74.1273 124.028 73.1913 124.447 73.1645 124.39C73.1526 124.366 73.3751 124.236 73.7872 124.022C74.1979 123.804 74.808 123.52 75.5743 123.199C77.1062 122.554 79.2914 121.809 81.7808 121.291C84.2702 120.778 86.5714 120.593 88.2335 120.577C89.0645 120.567 89.7371 120.585 90.2006 120.622C90.6641 120.656 90.9193 120.687 90.9186 120.713Z" fill="#FAFAFA"/>
<path d="M122.274 129.668C122.282 129.718 121.64 129.873 120.587 130.035C119.533 130.196 118.067 130.353 116.44 130.409C114.813 130.464 113.338 130.409 112.276 130.32C111.214 130.231 110.563 130.12 110.567 130.069C110.572 130.013 111.23 130.027 112.29 130.046C113.349 130.065 114.812 130.076 116.426 130.022C118.04 129.966 119.498 129.855 120.554 129.763C121.611 129.672 122.266 129.612 122.274 129.668Z" fill="#FAFAFA"/>
<path d="M128.489 120.816C128.558 120.888 127.359 122.085 125.585 123.165C123.815 124.254 122.204 124.776 122.171 124.681C122.128 124.575 123.647 123.903 125.383 122.834C127.123 121.776 128.414 120.73 128.489 120.816Z" fill="#FAFAFA"/>
<path d="M123.018 111.747C123.085 111.814 121.488 113.249 119.075 114.261C116.669 115.289 114.528 115.437 114.527 115.343C114.506 115.224 116.576 114.909 118.924 113.903C121.28 112.918 122.946 111.65 123.018 111.747Z" fill="#FAFAFA"/>
<path d="M123.756 144.809C123.767 144.834 123.516 144.964 123.053 145.179C122.592 145.398 121.907 145.678 121.05 145.992C119.337 146.622 116.899 147.326 114.139 147.753C111.377 148.174 108.84 148.235 107.017 148.148C106.105 148.106 105.368 148.044 104.862 147.973C104.356 147.908 104.078 147.859 104.081 147.832C104.087 147.769 105.21 147.86 107.024 147.874C108.837 147.891 111.346 147.787 114.081 147.371C116.814 146.948 119.238 146.294 120.962 145.734C122.688 145.174 123.732 144.75 123.756 144.809Z" fill="#FAFAFA"/>
<path d="M124.033 154.896C124.038 154.908 123.929 154.97 123.715 155.076C123.459 155.198 123.148 155.346 122.773 155.524C121.954 155.912 120.742 156.416 119.224 156.983C117.708 157.557 115.87 158.15 113.802 158.718C111.729 159.266 109.425 159.777 106.98 160.164C104.533 160.536 102.181 160.747 100.04 160.853C97.8969 160.938 95.9647 160.93 94.3458 160.842C92.7276 160.761 91.4204 160.648 90.5224 160.526C90.111 160.47 89.7702 160.423 89.489 160.386C89.2531 160.349 89.1304 160.324 89.1318 160.31C89.1333 160.297 89.2591 160.296 89.4972 160.308C89.7799 160.327 90.1221 160.349 90.5365 160.376C91.4368 160.452 92.7425 160.522 94.3555 160.568C95.9685 160.62 97.891 160.6 100.021 160.496C102.15 160.371 104.486 160.15 106.92 159.78C109.351 159.395 111.643 158.898 113.71 158.372C115.771 157.825 117.609 157.262 119.131 156.724C120.654 156.192 121.878 155.729 122.712 155.384C123.098 155.233 123.418 155.107 123.682 155.004C123.907 154.922 124.027 154.884 124.033 154.896Z" fill="#FAFAFA"/>
<path d="M58.7521 313.058L54.7307 331.236L47.4046 344.697C46.8763 345.667 47.2803 346.881 48.284 347.342C48.8464 347.601 49.493 347.573 50.0287 347.263C53.4369 345.294 65.9398 337.987 66.1593 336.641C66.4138 335.081 71.6738 317.747 71.6738 317.747L58.7521 313.058Z" fill="#B0B552"/>
<g opacity="0.6">
<path d="M48.2842 347.342L66.4594 335.421L66.2711 336.187C66.1089 336.849 65.7191 337.434 65.1663 337.833C63.6872 338.9 59.5387 341.759 50.0832 347.278C49.5334 347.599 48.8556 347.624 48.2842 347.342Z" fill="white"/>
</g>
<g opacity="0.6">
<path d="M64.1786 328.678C63.6489 328.88 63.3327 329.529 63.5127 330.066C63.6928 330.604 64.3497 330.931 64.8832 330.738C65.4166 330.546 65.8199 329.779 65.5811 329.265C65.3422 328.751 64.5491 328.408 64.0782 328.724" fill="white"/>
</g>
<path d="M54.3554 340.456C54.2408 340.48 54.0653 339.434 53.1152 338.661C52.1881 337.859 51.1265 337.869 51.1309 337.752C51.1265 337.704 51.3891 337.62 51.8273 337.664C52.2618 337.705 52.8585 337.914 53.3778 338.347C53.8949 338.783 54.2051 339.334 54.3212 339.755C54.441 340.178 54.4038 340.452 54.3554 340.456Z" fill="#263238"/>
<path d="M52.4726 342.561C52.3677 342.619 51.9309 341.888 51.0619 341.391C50.2034 340.875 49.3537 340.85 49.3522 340.73C49.3225 340.626 50.2867 340.455 51.2688 341.038C52.2568 341.611 52.579 342.535 52.4726 342.561Z" fill="#263238"/>
<path d="M57.5136 337.94C57.408 338.006 56.7428 336.879 55.458 335.987C54.1872 335.075 52.9031 334.826 52.9291 334.704C52.9231 334.601 54.3286 334.679 55.6938 335.653C57.0687 336.614 57.6133 337.911 57.5136 337.94Z" fill="#263238"/>
<path d="M59.1981 332.517C59.123 332.614 58.2265 331.951 56.9386 331.586C55.6552 331.202 54.5429 331.279 54.5318 331.158C54.5035 331.058 55.6723 330.785 57.0524 331.194C58.4363 331.59 59.2762 332.447 59.1981 332.517Z" fill="#263238"/>
<path d="M60.5134 327.211C60.4316 327.302 59.5753 326.453 58.187 326.179C56.8046 325.874 55.6804 326.309 55.6417 326.193C55.6216 326.148 55.8746 325.97 56.3508 325.831C56.8232 325.691 57.5248 325.624 58.271 325.779C59.0165 325.936 59.6325 326.278 60.0098 326.596C60.3899 326.913 60.5499 327.178 60.5134 327.211Z" fill="#263238"/>
<path d="M58.4661 325.176C58.4431 325.171 58.4617 324.918 58.609 324.487C58.7563 324.059 59.042 323.445 59.5918 322.829C59.8693 322.541 60.1788 322.159 60.742 322.045C61.0225 321.986 61.3848 322.124 61.5411 322.417C61.6966 322.702 61.6906 323.015 61.6266 323.303C61.3261 324.446 60.0687 325.315 58.7369 325.163C57.4059 324.987 56.4134 323.959 56.1433 322.842C56.0935 322.558 56.0935 322.225 56.3085 321.953C56.522 321.679 56.9193 321.646 57.1678 321.755C57.6849 321.967 57.9483 322.359 58.2072 322.666C58.7072 323.32 58.9639 323.941 59.0963 324.374C59.2295 324.809 59.2443 325.062 59.2205 325.066C59.1454 325.098 58.9817 324.066 57.9818 322.847C57.7243 322.56 57.4342 322.206 57.0562 322.075C56.8725 322.01 56.6917 322.045 56.5875 322.18C56.4826 322.309 56.4648 322.546 56.5131 322.771C56.7482 323.688 57.6574 324.626 58.7853 324.757C59.9058 324.896 61.0106 324.131 61.2606 323.213C61.3179 322.991 61.3134 322.753 61.2271 322.592C61.1423 322.433 60.9727 322.354 60.7896 322.38C60.4027 322.435 60.0739 322.758 59.8031 323.026C58.7161 324.167 58.542 325.214 58.4661 325.176Z" fill="#263238"/>
<g opacity="0.3">
<path d="M58.2828 315.03L57.4131 319.2L70.5767 321.383L71.6741 317.748L58.7523 313.058L58.2828 315.03Z" fill="black"/>
</g>
<path d="M117.569 319.785L116.482 334.311C116.482 334.311 130.882 340.294 130.942 342.998L102.702 341.902L103.466 319.2L117.569 319.785Z" fill="#B0B552"/>
<g opacity="0.6">
<path d="M107.797 332.749C107.245 332.877 106.843 333.477 106.949 334.034C107.054 334.591 107.661 335.005 108.215 334.886C108.769 334.768 109.274 334.063 109.106 333.52C108.939 332.979 108.2 332.532 107.69 332.78" fill="white"/>
</g>
<g opacity="0.6">
<path d="M102.702 341.903L102.869 339.617L129.883 341.522C129.883 341.522 131.118 342.118 130.942 342.998L102.702 341.903Z" fill="white"/>
</g>
<path d="M116.946 334.185C116.936 334.322 116.244 334.358 115.548 334.775C114.842 335.174 114.469 335.758 114.344 335.699C114.218 335.667 114.456 334.851 115.307 334.36C116.153 333.863 116.981 334.06 116.946 334.185Z" fill="#263238"/>
<path d="M119.86 335.525C119.886 335.659 119.279 335.871 118.789 336.436C118.282 336.987 118.139 337.612 118.002 337.601C117.872 337.618 117.808 336.807 118.431 336.115C119.049 335.42 119.862 335.394 119.86 335.525Z" fill="#263238"/>
<path d="M121.405 339.135C121.279 339.16 121.113 338.463 121.497 337.722C121.875 336.977 122.537 336.705 122.59 336.821C122.664 336.938 122.229 337.327 121.924 337.94C121.605 338.548 121.542 339.127 121.405 339.135Z" fill="#263238"/>
<path d="M116.825 330.847C116.763 330.971 116.137 330.756 115.356 330.779C114.574 330.785 113.957 331.023 113.89 330.903C113.814 330.8 114.426 330.313 115.347 330.299C116.267 330.277 116.897 330.741 116.825 330.847Z" fill="#263238"/>
<g opacity="0.3">
<path d="M117.35 322.662L117.16 325.251L103.285 324.586L103.379 321.592L117.35 322.662Z" fill="black"/>
</g>
<path d="M116.99 327.913C116.989 327.97 116.441 328.034 115.576 327.851C115.145 327.76 114.641 327.597 114.114 327.339C113.851 327.21 113.583 327.056 113.319 326.876C113.191 326.788 113.04 326.697 112.904 326.527C112.757 326.378 112.684 326.009 112.869 325.792C113.022 325.58 113.281 325.496 113.486 325.5C113.694 325.501 113.862 325.55 114.013 325.594C114.325 325.682 114.616 325.798 114.881 325.929C115.411 326.196 115.838 326.523 116.152 326.836C116.783 327.468 116.987 327.992 116.939 328.016C116.875 328.059 116.573 327.615 115.926 327.088C115.603 326.827 115.188 326.552 114.692 326.329C114.444 326.219 114.175 326.121 113.89 326.047C113.594 325.957 113.339 325.945 113.258 326.075C113.228 326.125 113.223 326.145 113.282 326.235C113.344 326.318 113.462 326.402 113.586 326.49C113.83 326.663 114.076 326.814 114.317 326.946C114.8 327.21 115.265 327.395 115.664 327.524C116.465 327.78 116.995 327.838 116.99 327.913Z" fill="#263238"/>
<path d="M116.803 328.103C116.753 328.123 116.498 327.617 116.483 326.722C116.476 326.278 116.543 325.743 116.736 325.182C116.833 324.901 116.963 324.615 117.129 324.337C117.306 324.065 117.522 323.699 118.059 323.658C118.339 323.659 118.563 323.886 118.635 324.075C118.721 324.27 118.733 324.435 118.76 324.599C118.799 324.931 118.78 325.254 118.724 325.551C118.611 326.149 118.346 326.64 118.063 326.989C117.483 327.699 116.901 327.841 116.891 327.795C116.848 327.724 117.339 327.476 117.789 326.789C118.01 326.45 118.213 326 118.288 325.477C118.326 325.217 118.332 324.939 118.294 324.659C118.261 324.356 118.158 324.11 118.045 324.136C117.905 324.129 117.657 324.345 117.532 324.58C117.377 324.828 117.251 325.083 117.152 325.333C116.955 325.837 116.859 326.322 116.823 326.734C116.751 327.563 116.879 328.085 116.803 328.103Z" fill="#263238"/>
<path d="M88.3294 163.162C88.3294 163.162 83.8453 163.359 80.8908 178.627C77.9364 193.895 55.2266 317.599 55.2266 317.599L71.6734 317.748L102.702 200.139L100.64 321.383L117.35 322.662C117.35 322.662 129.889 188.53 130.007 180.725C130.154 170.995 124.566 161.153 124.566 161.153L88.3294 163.162Z" fill="#263238"/>
<path d="M110.936 161.855C111.04 161.877 109.334 170.599 107.124 181.335C104.914 192.075 103.037 200.76 102.932 200.739C102.827 200.717 104.534 191.997 106.745 181.257C108.954 170.521 110.831 161.833 110.936 161.855Z" fill="#455A64"/>
<path d="M113.501 164.033C113.473 163.995 113.946 163.855 114.457 164.311C114.691 164.53 114.923 164.896 114.906 165.363C114.897 165.836 114.539 166.297 114.063 166.492C113.592 166.695 113.012 166.63 112.668 166.306C112.321 165.992 112.221 165.572 112.228 165.251C112.258 164.567 112.689 164.326 112.697 164.373C112.748 164.411 112.454 164.691 112.502 165.243C112.527 165.507 112.642 165.827 112.899 166.034C113.147 166.245 113.551 166.286 113.914 166.134C114.275 165.981 114.528 165.664 114.55 165.338C114.581 165.01 114.432 164.704 114.261 164.502C113.898 164.083 113.493 164.097 113.501 164.033Z" fill="#455A64"/>
<path d="M112.788 170.08C112.778 170.033 113.25 170.096 113.508 170.699C113.623 170.984 113.674 171.397 113.463 171.794C113.256 172.2 112.746 172.441 112.255 172.397C111.763 172.365 111.297 172.048 111.154 171.614C111.006 171.188 111.122 170.789 111.279 170.525C111.628 169.968 112.104 169.98 112.087 170.025C112.11 170.084 111.736 170.175 111.52 170.653C111.42 170.881 111.367 171.2 111.487 171.485C111.596 171.77 111.916 171.981 112.285 172.011C112.654 172.038 113.001 171.88 113.154 171.615C113.316 171.351 113.314 171.028 113.25 170.787C113.11 170.283 112.755 170.134 112.788 170.08Z" fill="#455A64"/>
<path d="M97.0259 164.187C97.0482 164.194 96.9894 164.469 96.8302 164.952C96.6718 165.434 96.3942 166.118 95.9635 166.922C95.1153 168.523 93.5336 170.589 91.1907 172.132C88.8479 173.676 86.3249 174.316 84.5193 174.464C83.6116 174.543 82.8735 174.528 82.3676 174.484C81.8617 174.44 81.5857 174.385 81.5879 174.362C81.5916 174.289 82.7113 174.417 84.4895 174.192C86.2565 173.978 88.6983 173.312 90.9779 171.81C93.2568 170.308 94.8311 168.327 95.7254 166.788C96.6323 165.241 96.9575 164.161 97.0259 164.187Z" fill="#455A64"/>
<path d="M129.029 175.038C129.013 175.06 128.838 174.953 128.535 174.74C128.227 174.534 127.814 174.186 127.342 173.72C126.395 172.791 125.277 171.281 124.539 169.377C123.809 167.47 123.624 165.6 123.702 164.276C123.739 163.613 123.811 163.079 123.902 162.719C123.984 162.357 124.042 162.162 124.068 162.167C124.138 162.179 123.979 162.981 123.977 164.283C123.969 165.581 124.192 167.385 124.901 169.238C125.618 171.087 126.663 172.574 127.541 173.531C128.416 174.494 129.071 174.982 129.029 175.038Z" fill="#455A64"/>
<path d="M81.7891 133.738L89.0967 134.142C89.5587 136.511 91.1627 140.134 91.1627 140.134C97.0448 129.924 101.606 116.245 102.737 110.747C102.572 110.198 102.377 109.59 102.133 108.911C101.852 108.128 102.093 106.643 102.226 105.82C102.423 104.596 102.766 102.949 102.869 102.187C103.182 99.8642 103.556 99.4988 104.367 99.7615C105.469 100.119 103.915 106.286 104.818 106.42C105.304 106.492 105.897 104.379 106.07 102.645C106.242 100.912 107.026 95.5795 107.598 95.2238C108.438 94.703 109.171 95.5266 108.958 97.2535C108.744 99.0011 108.473 104.211 109.389 104.281C110.292 104.351 111.05 95.5103 111.05 95.5103C111.05 95.5103 110.907 93.5863 111.968 93.6324C113.881 93.7157 112.386 103.036 112.222 103.919C112.108 104.533 113.102 104.646 113.189 103.979C113.279 103.293 113.741 95.1383 115.688 95.2037C117.183 95.2543 114.53 102.884 115.37 104.653C116.209 106.422 116.792 98.6462 118.22 98.7534C118.751 98.7935 119.144 98.8977 118.168 103.298C117.643 105.663 116.102 110.011 114.754 113.611C112.492 125.812 102.564 164.844 86.9993 157.7C78.2901 153.701 74.2256 133.907 74.2256 133.907L81.7891 133.738Z" fill="#FFBE9D"/>
<path d="M114.753 113.616C114.746 113.613 114.771 113.523 114.828 113.349C114.895 113.152 114.98 112.899 115.088 112.581C115.331 111.878 115.672 110.892 116.107 109.636C116.54 108.355 117.073 106.786 117.603 104.943C117.874 104.023 118.094 103.027 118.299 101.958C118.398 101.424 118.5 100.875 118.562 100.31C118.588 100.029 118.618 99.7407 118.601 99.4631C118.58 99.173 118.536 98.9364 118.307 98.9319C118.07 98.8679 117.912 99.0636 117.749 99.3099C117.6 99.5576 117.483 99.8426 117.38 100.135C117.171 100.721 117.008 101.345 116.846 101.983C116.684 102.622 116.534 103.278 116.34 103.947C116.223 104.285 116.171 104.611 115.894 104.974C115.842 105.018 115.795 105.077 115.69 105.097C115.575 105.126 115.491 105.082 115.41 105.033C115.303 104.938 115.252 104.842 115.205 104.753C115.122 104.565 115.07 104.372 115.048 104.185C114.915 102.692 115.256 101.249 115.488 99.7503C115.616 99.0033 115.752 98.2474 115.85 97.4819C115.898 97.0995 115.938 96.7141 115.942 96.3339C115.956 95.9812 115.895 95.5043 115.74 95.4374C115.549 95.3652 115.205 95.581 115.023 95.8964C114.817 96.2067 114.666 96.5749 114.535 96.9514C114.277 97.708 114.109 98.5153 113.963 99.3314C113.822 100.151 113.711 100.985 113.619 101.831C113.578 102.255 113.536 102.681 113.494 103.109L113.439 103.755C113.422 103.929 113.423 104.295 113.143 104.504C112.884 104.698 112.538 104.719 112.262 104.539C112.124 104.449 112.016 104.284 111.995 104.116C111.977 104.031 111.993 103.952 111.999 103.877L112.027 103.718C112.093 103.287 112.159 102.853 112.226 102.418C112.349 101.544 112.455 100.661 112.54 99.7704C112.623 98.8799 112.685 97.9804 112.699 97.0779C112.701 96.1851 112.694 95.2491 112.437 94.4307C112.353 94.183 112.216 93.9568 112.062 93.8921C111.905 93.8355 111.677 93.8928 111.56 94.052C111.303 94.4144 111.259 95.011 111.28 95.4976L111.28 95.5214L111.279 95.5348C111.12 97.2832 110.93 99.0019 110.678 100.691C110.547 101.535 110.41 102.371 110.198 103.197C110.145 103.404 110.082 103.61 110.009 103.817C109.91 104.023 109.883 104.233 109.588 104.459C109.332 104.581 109.142 104.443 109.041 104.339C108.932 104.225 108.888 104.113 108.839 104.003C108.752 103.784 108.71 103.572 108.671 103.362C108.435 101.685 108.533 100.071 108.627 98.4885C108.658 97.6932 108.853 96.906 108.748 96.2074C108.697 95.8614 108.562 95.5147 108.333 95.36C108.22 95.2856 108.09 95.2685 107.951 95.3012C107.882 95.3228 107.812 95.3473 107.743 95.389C107.676 95.4448 107.69 95.424 107.638 95.5177C107.349 96.1256 107.208 96.8941 107.052 97.589C106.906 98.301 106.781 99.0086 106.667 99.7079C106.554 100.407 106.453 101.098 106.364 101.778C106.271 102.452 106.225 103.136 106.092 103.8C105.966 104.462 105.813 105.106 105.572 105.725C105.511 105.879 105.441 106.031 105.357 106.181C105.252 106.321 105.194 106.504 104.909 106.591C104.747 106.635 104.605 106.524 104.532 106.431C104.47 106.335 104.439 106.244 104.415 106.156C104.377 105.984 104.36 105.821 104.354 105.661C104.338 104.393 104.526 103.23 104.59 102.107C104.625 101.55 104.65 101 104.585 100.491C104.552 100.253 104.475 99.972 104.338 99.9162C104.139 99.8366 103.881 99.795 103.732 99.9028C103.403 100.14 103.288 100.685 103.181 101.12C103.076 101.58 103.028 102.037 102.943 102.476C102.634 104.236 102.306 105.747 102.147 106.983C102.074 107.6 102.045 108.158 102.123 108.622C102.227 109.072 102.378 109.471 102.464 109.784C102.552 110.08 102.622 110.317 102.677 110.503C102.723 110.666 102.743 110.749 102.735 110.752C102.728 110.754 102.694 110.674 102.634 110.516C102.568 110.334 102.485 110.102 102.379 109.812C102.276 109.495 102.12 109.133 101.993 108.647C101.896 108.16 101.914 107.592 101.974 106.965C102.109 105.708 102.41 104.207 102.695 102.444C102.774 102.005 102.817 101.54 102.919 101.066C102.972 100.828 103.023 100.587 103.114 100.345C103.209 100.11 103.31 99.8404 103.58 99.6625C103.869 99.4832 104.188 99.5487 104.458 99.6514C104.807 99.8508 104.819 100.186 104.88 100.448C104.956 101.005 104.933 101.56 104.903 102.127C104.848 103.257 104.672 104.443 104.697 105.645C104.703 105.793 104.721 105.939 104.751 106.071C104.782 106.216 104.857 106.271 104.842 106.244C104.868 106.249 104.982 106.12 105.046 106.004C105.116 105.876 105.179 105.737 105.235 105.593C105.457 105.013 105.604 104.378 105.723 103.734C105.848 103.091 105.889 102.42 105.979 101.73C106.065 101.045 106.162 100.35 106.272 99.6462C106.383 98.9423 106.505 98.2296 106.65 97.5079C106.816 96.7825 106.92 96.0668 107.273 95.3116C107.295 95.2357 107.448 95.0661 107.534 95.0252C107.628 94.9686 107.735 94.927 107.848 94.8942C108.074 94.834 108.353 94.8675 108.559 95.0058C108.968 95.2945 109.097 95.7431 109.166 96.1419C109.228 96.5504 109.207 96.964 109.161 97.3576C109.117 97.7393 109.085 98.1277 109.057 98.5183C108.966 100.075 108.881 101.706 109.109 103.284C109.144 103.476 109.186 103.67 109.252 103.835C109.286 103.912 109.325 103.994 109.363 104.028C109.382 104.054 109.394 104.053 109.4 104.057L109.403 104.058L109.404 104.06C109.391 104.234 109.402 104.097 109.399 104.131C109.397 104.098 109.389 104.105 109.368 104.067C109.406 104.036 109.526 103.83 109.583 103.659C109.649 103.473 109.708 103.28 109.758 103.081C109.96 102.287 110.097 101.456 110.225 100.622C110.472 98.9476 110.661 97.2311 110.818 95.4939V95.5304C110.809 94.9582 110.8 94.3586 111.194 93.7656C111.425 93.4732 111.841 93.3147 112.232 93.462C112.619 93.6428 112.762 93.9895 112.871 94.276C113.166 95.2275 113.156 96.1613 113.158 97.0823C113.144 98.0034 113.08 98.9126 112.995 99.8113C112.909 100.71 112.801 101.6 112.676 102.479C112.608 102.919 112.541 103.357 112.473 103.793C112.418 104.07 112.431 104.079 112.514 104.161C112.603 104.228 112.776 104.218 112.86 104.147C112.954 104.084 112.965 103.954 112.986 103.712L113.044 103.066C113.087 102.636 113.129 102.207 113.172 101.781C113.266 100.928 113.381 100.084 113.526 99.2533C113.677 98.423 113.85 97.6024 114.123 96.8078C114.262 96.412 114.422 96.0192 114.664 95.6539C114.788 95.4738 114.931 95.293 115.142 95.1606C115.357 95.0371 115.593 94.9247 115.915 95.049C116.221 95.2156 116.273 95.4984 116.322 95.7044C116.354 95.9217 116.368 96.133 116.361 96.3369C116.354 96.7468 116.311 97.1426 116.261 97.5332C116.157 98.3137 116.018 99.0718 115.886 99.818C115.644 101.3 115.309 102.775 115.425 104.13C115.443 104.296 115.488 104.449 115.543 104.583C115.578 104.651 115.616 104.707 115.639 104.731C115.643 104.723 115.633 104.718 115.622 104.764C115.615 104.824 115.624 104.751 115.614 104.76C115.586 104.714 115.607 104.728 115.619 104.711C115.776 104.519 115.886 104.145 115.983 103.838C116.177 103.189 116.331 102.532 116.499 101.892C116.666 101.251 116.835 100.622 117.056 100.015C117.167 99.7124 117.29 99.4148 117.462 99.1321C117.556 98.9937 117.648 98.8523 117.801 98.7377C117.868 98.6767 117.969 98.6336 118.067 98.6061C118.183 98.5882 118.277 98.5904 118.353 98.6053C118.528 98.6127 118.765 98.766 118.823 98.9498C118.895 99.1231 118.911 99.2868 118.918 99.4423C118.933 99.7563 118.899 100.049 118.869 100.341C118.799 100.921 118.691 101.473 118.586 102.011C118.37 103.08 118.135 104.091 117.85 105.012C117.294 106.858 116.736 108.419 116.275 109.692C115.811 110.965 115.436 111.947 115.174 112.61C115.049 112.922 114.949 113.17 114.871 113.363C114.8 113.534 114.761 113.619 114.753 113.616Z" fill="#EB996E"/>
<path d="M74.1426 134.584C75.5562 139.571 78.3179 147.278 81.2865 155.402C81.7158 156.576 83.3488 156.653 83.8838 155.523L91.1631 140.134C91.1631 140.134 89.4102 127.491 89.559 127.938C89.7078 128.384 74.5414 129.573 74.5414 129.573L74.1426 134.584Z" fill="#B0B552"/>
<path d="M90.5359 132.103C90.5522 132.165 89.6319 132.432 88.1908 132.981C86.7504 133.529 84.8011 134.399 82.7908 135.615C80.7828 136.836 79.1095 138.162 77.9586 139.187C76.8054 140.211 76.1425 140.903 76.0956 140.86C76.0755 140.842 76.2213 140.651 76.5033 140.32C76.7823 139.986 77.2138 139.528 77.7726 138.986C78.8863 137.9 80.5551 136.521 82.59 135.284C84.627 134.052 86.621 133.209 88.0985 132.724C88.8373 132.479 89.4429 132.308 89.8685 132.215C90.2926 132.119 90.5292 132.077 90.5359 132.103Z" fill="#FAFAFA"/>
<path d="M93.4211 135.941C93.3831 135.968 92.8876 135.384 92.2068 134.352C91.5261 133.32 90.6831 131.825 89.9585 130.079C89.2361 128.331 88.7733 126.678 88.5248 125.467C88.2748 124.256 88.2116 123.493 88.2584 123.485C88.3172 123.476 88.4757 124.22 88.7911 125.403C89.1059 126.587 89.6028 128.205 90.3163 129.93C91.0328 131.653 91.8252 133.148 92.4405 134.207C93.055 135.268 93.4694 135.906 93.4211 135.941Z" fill="#263238"/>
<path d="M98.2765 67.7814C95.7305 71.8964 95.1897 77.2205 96.8547 81.7745C97.6025 83.819 98.7861 85.8383 98.5696 88.007C98.3479 90.2286 96.6628 92.3274 97.258 94.4776C97.6099 95.7483 98.7006 96.691 99.1187 97.9409C99.6098 99.4081 99.0979 100.996 98.8643 102.527C98.2698 106.423 99.5145 110.341 99.8233 114.272C100.132 118.202 99.0711 122.802 95.5661 124.517C94.5007 125.038 93.1079 125.188 92.2218 124.393C91.0969 123.385 91.4101 121.573 91.7182 120.083C94.7983 105.19 85.2833 90.681 87.4558 75.6246C87.804 73.2111 89.1521 69.1168 90.8893 67.428C92.6266 65.7391 97.4321 65.9444 99.0763 67.7263" fill="#263238"/>
<path d="M83.6205 110.943C83.59 110.918 84.0677 110.407 84.7373 109.352C85.4039 108.303 86.2431 106.666 86.6806 104.48C86.8934 103.388 86.9871 102.171 86.9098 100.861C86.8525 99.5509 86.6679 98.1418 86.7565 96.6337C86.7877 95.8793 86.9492 95.1122 87.1835 94.3541C87.4477 93.6064 87.7899 92.8728 88.2051 92.169C89.0376 90.7613 90.0918 89.4504 91.0568 88.0494C92.0218 86.6544 92.8223 85.1761 93.0812 83.6137C93.3416 82.0528 93.0604 80.506 92.8216 79.0485C92.5641 77.5903 92.3863 76.1551 92.4935 74.8204C92.5783 73.4871 92.8454 72.2632 93.207 71.1896C93.9376 69.0358 95.0179 67.5098 95.837 66.5597C96.2492 66.0821 96.5981 65.7369 96.8496 65.5204C97.0981 65.3009 97.2327 65.1908 97.2417 65.2004C97.2699 65.2302 96.7402 65.6855 95.9538 66.6565C95.1786 67.6259 94.1518 69.1518 93.4681 71.276C93.1296 72.3347 92.8841 73.5362 92.8149 74.839C92.7249 76.1447 92.9071 77.5293 93.1742 78.989C93.4205 80.442 93.724 82.0268 93.4562 83.6755C93.1876 85.3234 92.3529 86.8568 91.3767 88.2689C90.3991 89.687 89.3493 90.989 88.5317 92.3624C88.124 93.0484 87.7914 93.7559 87.534 94.4724C87.307 95.197 87.1471 95.9262 87.1129 96.6575C87.0169 98.1172 87.1865 99.5227 87.2312 100.848C87.2959 102.175 87.1835 103.427 86.9492 104.535C86.4678 106.758 85.5758 108.401 84.863 109.435C84.5059 109.956 84.1949 110.334 83.9754 110.583C83.753 110.828 83.6309 110.952 83.6205 110.943Z" fill="#455A64"/>
<path d="M76.5646 112.057C76.5527 112.05 76.6331 111.879 76.7953 111.558C76.9775 111.205 77.2179 110.741 77.5184 110.161C78.1412 108.948 79.0734 107.202 79.99 104.948C80.8888 102.702 81.7793 99.8879 81.8069 96.6798C81.8121 95.8815 81.754 95.0639 81.6253 94.2388C81.4973 93.4122 81.3047 92.5685 81.1804 91.6883C81.0614 90.8111 81.0041 89.8759 81.237 88.9519C81.4676 88.0256 82.0494 87.2013 82.751 86.5637C84.1534 85.2884 85.8453 84.4581 86.7195 82.9657C87.6145 81.4985 87.8124 79.7776 88.0386 78.1944C88.232 76.594 88.5393 75.0532 89.0631 73.6991C89.569 72.3384 90.2453 71.1562 90.9506 70.1495C92.3709 68.1273 93.9504 66.8543 95.0865 66.0977C95.6586 65.7197 96.1222 65.4556 96.448 65.3009C96.7709 65.1409 96.9435 65.0628 96.9495 65.0747C96.9696 65.1119 96.2829 65.437 95.1721 66.2212C94.0732 67.0091 92.5435 68.297 91.176 70.305C90.4968 71.305 89.8473 72.473 89.3644 73.8115C88.8637 75.1462 88.578 76.6365 88.3927 78.2413C88.1733 79.8252 87.9917 81.5922 87.0439 83.1636C86.0968 84.7706 84.3454 85.6247 83.0151 86.8471C82.3448 87.4602 81.824 88.2034 81.6104 89.0479C81.3954 89.8931 81.4423 90.7792 81.5569 91.6355C81.6759 92.4956 81.8641 93.3378 81.9914 94.1815C82.1193 95.0274 82.1744 95.8659 82.164 96.6813C82.1156 99.9586 81.1812 102.799 80.2437 105.051C79.2869 107.309 78.3153 109.038 77.6509 110.232C77.3243 110.797 77.0624 111.25 76.8637 111.594C76.6792 111.904 76.5765 112.064 76.5646 112.057Z" fill="#455A64"/>
<path d="M322.728 322.287C322.721 322.283 322.766 322.177 322.858 321.973C322.962 321.75 323.101 321.453 323.28 321.074C323.638 320.28 324.103 319.077 324.518 317.476C325.338 314.277 325.624 309.388 324.413 303.581C323.85 300.673 322.943 297.555 321.836 294.248C320.745 290.936 319.478 287.421 318.443 283.622C317.42 279.833 316.612 275.718 316.767 271.405C316.924 267.084 318.203 262.77 319.611 258.477C321.015 254.176 322.467 249.973 322.902 245.745C323.394 241.524 322.491 237.381 320.569 233.986C318.706 230.554 316.363 227.62 314.61 224.581C312.829 221.551 311.715 218.436 311.028 215.539C309.697 209.697 310.164 204.776 310.801 201.532C311.492 198.271 312.263 196.585 312.263 196.585C312.271 196.588 312.241 196.699 312.177 196.914C312.104 197.148 312.006 197.462 311.881 197.862C311.623 198.696 311.289 199.94 310.972 201.565C310.39 204.802 309.978 209.69 311.335 215.468C312.036 218.333 313.155 221.407 314.929 224.395C316.678 227.398 319.031 230.321 320.931 233.792C322.894 237.224 323.838 241.502 323.338 245.789C322.901 250.089 321.438 254.321 320.037 258.616C318.63 262.906 317.366 267.174 317.206 271.423C317.046 275.67 317.834 279.744 318.841 283.516C319.859 287.296 321.111 290.812 322.188 294.134C323.282 297.45 324.178 300.594 324.723 303.522C325.903 309.372 325.566 314.31 324.687 317.521C324.243 319.128 323.748 320.328 323.361 321.113C323.167 321.485 323.013 321.778 322.899 321.996C322.792 322.191 322.734 322.29 322.728 322.287Z" fill="#263238"/>
<path d="M316.991 227.579C316.991 227.579 313.43 216.193 319.817 209.527C320.042 209.293 320.436 209.403 320.494 209.722C320.835 211.602 321.261 217.329 316.991 227.579Z" fill="#B0B552"/>
<path d="M319.123 213.32C319.184 213.332 319.082 214.134 318.884 215.421C318.649 216.868 318.375 218.566 318.071 220.443C317.773 222.319 317.504 224.018 317.275 225.465C317.08 226.75 316.963 227.548 316.897 227.543C316.839 227.538 316.845 226.728 316.961 225.426C317.079 224.125 317.309 222.335 317.631 220.371C317.952 218.406 318.295 216.637 318.574 215.363C318.852 214.089 319.063 213.309 319.123 213.32Z" fill="#263238"/>
<path d="M321.174 254.433C321.174 254.433 323.352 242.704 332.114 239.798C332.422 239.696 332.719 239.978 332.621 240.287C332.044 242.109 329.742 247.37 321.174 254.433Z" fill="#B0B552"/>
<path d="M329.727 242.827C329.775 242.866 329.311 243.527 328.533 244.572C327.649 245.742 326.612 247.114 325.467 248.631C324.326 250.151 323.293 251.526 322.414 252.697C321.64 253.743 321.164 254.393 321.109 254.358C321.06 254.327 321.443 253.614 322.155 252.517C322.868 251.423 323.907 249.948 325.111 248.362C326.314 246.776 327.445 245.373 328.287 244.376C329.128 243.38 329.68 242.789 329.727 242.827Z" fill="#263238"/>
<path d="M318.805 283.858C318.805 283.858 317.482 272.003 325.024 266.676C325.289 266.49 325.655 266.673 325.651 266.998C325.627 268.908 324.953 274.612 318.805 283.858Z" fill="#B0B552"/>
<path d="M323.619 270.268C323.677 270.291 323.424 271.059 322.983 272.285C322.477 273.66 321.884 275.276 321.227 277.06C320.577 278.845 319.989 280.461 319.487 281.837C319.05 283.062 318.783 283.823 318.721 283.805C318.665 283.79 318.826 282.995 319.187 281.739C319.551 280.485 320.118 278.772 320.809 276.905C321.5 275.037 322.173 273.366 322.69 272.169C323.206 270.971 323.562 270.245 323.619 270.268Z" fill="#263238"/>
<path d="M325.406 313.455C325.406 313.455 324.509 301.56 332.236 296.507C332.507 296.33 332.867 296.526 332.851 296.85C332.759 298.759 331.881 304.435 325.406 313.455Z" fill="#B0B552"/>
<path d="M330.704 300.047C330.76 300.072 330.48 300.83 329.996 302.039C329.441 303.397 328.79 304.989 328.071 306.748C327.356 308.509 326.711 310.103 326.16 311.46C325.679 312.669 325.386 313.419 325.324 313.4C325.269 313.382 325.458 312.595 325.864 311.352C326.272 310.111 326.9 308.42 327.658 306.579C328.415 304.737 329.149 303.091 329.707 301.913C330.265 300.734 330.648 300.022 330.704 300.047Z" fill="#263238"/>
<path d="M311.873 217.575C311.873 217.575 301.299 212.053 301.091 202.823C301.083 202.498 301.441 202.297 301.708 202.482C303.28 203.569 307.634 207.313 311.873 217.575Z" fill="#B0B552"/>
<path d="M303.288 205.993C303.339 205.959 303.834 206.597 304.605 207.647C305.464 208.835 306.473 210.229 307.586 211.77C308.705 213.306 309.716 214.697 310.578 215.881C311.35 216.927 311.832 217.574 311.783 217.616C311.739 217.654 311.17 217.078 310.33 216.076C309.492 215.074 308.387 213.647 307.224 212.031C306.06 210.416 305.05 208.924 304.345 207.827C303.639 206.729 303.236 206.028 303.288 205.993Z" fill="#263238"/>
<path d="M323.228 242.028C323.228 242.028 312.337 237.157 311.57 227.957C311.543 227.634 311.887 227.412 312.164 227.579C313.8 228.569 318.374 232.041 323.228 242.028Z" fill="#B0B552"/>
<path d="M313.954 230.989C314.003 230.952 314.536 231.558 315.37 232.56C316.299 233.693 317.39 235.023 318.596 236.493C319.805 237.959 320.899 239.285 321.831 240.415C322.666 241.413 323.186 242.028 323.139 242.074C323.098 242.114 322.495 241.573 321.595 240.625C320.698 239.675 319.509 238.318 318.25 236.775C316.991 235.233 315.892 233.806 315.121 232.753C314.35 231.701 313.905 231.026 313.954 230.989Z" fill="#263238"/>
<path d="M316.962 269.303C316.962 269.303 309.485 260.007 312.992 251.467C313.115 251.167 313.523 251.126 313.693 251.401C314.698 253.027 317.189 258.201 316.962 269.303Z" fill="#B0B552"/>
<path d="M313.734 255.252C313.795 255.241 313.993 256.024 314.279 257.295C314.59 258.727 314.955 260.408 315.359 262.266C315.769 264.121 316.138 265.801 316.454 267.231C316.743 268.5 316.926 269.285 316.862 269.303C316.807 269.321 316.516 268.564 316.148 267.31C315.782 266.057 315.341 264.307 314.923 262.36C314.503 260.415 314.176 258.643 313.969 257.355C313.761 256.066 313.673 255.263 313.734 255.252Z" fill="#263238"/>
<path d="M324.369 301.4C324.369 301.4 313.562 296.348 312.949 287.136C312.928 286.813 313.276 286.596 313.55 286.769C315.168 287.784 319.683 291.333 324.369 301.4Z" fill="#B0B552"/>
<path d="M315.282 290.207C315.332 290.17 315.854 290.786 316.671 291.8C317.581 292.949 318.65 294.298 319.83 295.788C321.015 297.273 322.087 298.618 323 299.764C323.817 300.775 324.327 301.399 324.279 301.443C324.237 301.483 323.643 300.932 322.76 299.969C321.879 299.005 320.713 297.628 319.48 296.064C318.246 294.502 317.172 293.056 316.419 291.991C315.666 290.926 315.232 290.243 315.282 290.207Z" fill="#263238"/>
<path d="M345.894 254.497C345.905 254.498 345.909 254.587 345.908 254.76C345.903 254.967 345.897 255.218 345.889 255.522C345.857 256.239 345.815 257.207 345.761 258.415C345.622 260.958 345.428 264.504 345.195 268.745L345.194 268.755L345.191 268.77C344.42 273.087 342.221 277.871 339.268 282.517C337.102 285.939 334.831 289.05 332.873 291.943C330.901 294.829 329.238 297.501 328.078 299.869C326.911 302.234 326.232 304.266 325.835 305.686C325.645 306.399 325.502 306.954 325.42 307.335C325.331 307.713 325.277 307.911 325.261 307.909C325.246 307.906 325.271 307.703 325.331 307.317C325.385 306.931 325.501 306.367 325.666 305.643C326.013 304.202 326.652 302.135 327.793 299.732C328.926 297.326 330.574 294.618 332.531 291.714C334.476 288.8 336.734 285.684 338.889 282.28C341.826 277.657 344.014 272.945 344.814 268.698L344.811 268.722C345.109 264.485 345.358 260.943 345.537 258.402C345.634 257.197 345.712 256.231 345.77 255.516C345.801 255.214 345.826 254.964 345.847 254.757C345.868 254.585 345.884 254.496 345.894 254.497Z" fill="#263238"/>
<path d="M339.459 281.629C339.459 281.629 344.036 270.612 338.278 263.395C338.076 263.142 337.673 263.216 337.586 263.528C337.077 265.369 336.134 271.034 339.459 281.629Z" fill="#B0B552"/>
<path d="M338.626 267.235C338.687 267.228 338.828 268.025 338.989 269.32C339.151 270.614 339.332 272.407 339.474 274.392C339.618 276.378 339.684 278.182 339.683 279.487C339.681 280.795 339.613 281.602 339.555 281.601C339.49 281.6 339.446 280.795 339.368 279.497C339.27 278.036 339.156 276.32 339.028 274.424C338.896 272.527 338.776 270.811 338.674 269.349C338.593 268.048 338.564 267.242 338.626 267.235Z" fill="#263238"/>
<g opacity="0.3">
<path d="M339.459 281.629C339.459 281.629 344.036 270.612 338.278 263.395C338.076 263.142 337.673 263.216 337.586 263.528C337.077 265.369 336.134 271.034 339.459 281.629Z" fill="black"/>
</g>
<path d="M325.283 308.177C325.283 308.177 328.952 296.825 322.628 290.098C322.406 289.862 322.01 289.969 321.949 290.287C321.591 292.164 321.11 297.887 325.283 308.177Z" fill="#B0B552"/>
<path d="M323.286 293.899C323.346 293.887 323.551 294.669 323.817 295.947C324.083 297.224 324.409 298.996 324.712 300.963C325.016 302.931 325.228 304.722 325.334 306.024C325.437 307.327 325.435 308.137 325.377 308.141C325.312 308.145 325.203 307.347 325.02 306.059C324.805 304.611 324.551 302.909 324.271 301.03C323.985 299.15 323.727 297.45 323.506 296C323.32 294.712 323.225 293.91 323.286 293.899Z" fill="#263238"/>
<g opacity="0.3">
<path d="M325.283 308.177C325.283 308.177 328.952 296.825 322.628 290.098C322.406 289.862 322.01 289.969 321.949 290.287C321.591 292.164 321.11 297.887 325.283 308.177Z" fill="black"/>
</g>
<path d="M345.288 268.164C345.288 268.164 355.061 261.323 354.075 252.143C354.04 251.821 353.66 251.668 353.419 251.884C352.001 253.165 348.166 257.44 345.288 268.164Z" fill="#B0B552"/>
<g opacity="0.3">
<path d="M345.288 268.164C345.288 268.164 355.061 261.323 354.075 252.143C354.04 251.821 353.66 251.668 353.419 251.884C352.001 253.165 348.166 257.44 345.288 268.164Z" fill="black"/>
</g>
<path d="M352.307 255.571C352.362 255.599 352.053 256.346 351.495 257.525C350.937 258.704 350.128 260.314 349.183 262.067C348.239 263.819 347.327 265.377 346.626 266.478C345.923 267.58 345.432 268.225 345.384 268.193C345.329 268.158 345.724 267.455 346.355 266.318C347.057 265.032 347.88 263.523 348.791 261.854C349.696 260.183 350.516 258.671 351.215 257.382C351.843 256.24 352.252 255.544 352.307 255.571Z" fill="#263238"/>
<path d="M329.225 296.923C329.225 296.923 341.012 295.085 344.169 286.409C344.28 286.105 344.006 285.799 343.695 285.889C341.858 286.413 336.531 288.563 329.225 296.923Z" fill="#B0B552"/>
<g opacity="0.3">
<path d="M329.225 296.923C329.225 296.923 341.012 295.085 344.169 286.409C344.28 286.105 344.006 285.799 343.695 285.889C341.858 286.413 336.531 288.563 329.225 296.923Z" fill="black"/>
</g>
<path d="M341.072 288.708C341.109 288.757 340.502 289.291 339.482 290.104C338.462 290.917 337.027 292.007 335.407 293.163C333.787 294.32 332.283 295.317 331.168 295.998C330.051 296.677 329.327 297.041 329.297 296.991C329.264 296.934 329.927 296.477 330.995 295.734C332.191 294.889 333.595 293.896 335.147 292.8C336.696 291.698 338.099 290.701 339.293 289.852C340.361 289.104 341.034 288.659 341.072 288.708Z" fill="#263238"/>
<path d="M317.98 318.615L314.541 341.757H335.969L333.191 318.615H317.98Z" fill="#455A64"/>
<path d="M334.048 325.786C334.048 325.91 330.179 326.01 325.407 326.01C320.635 326.01 316.767 325.91 316.767 325.786C316.767 325.663 320.635 325.563 325.407 325.563C330.178 325.563 334.048 325.663 334.048 325.786Z" fill="#263238"/>
<path d="M334.473 327.628C334.473 327.751 330.477 327.851 325.549 327.851C320.62 327.851 316.625 327.751 316.625 327.628C316.625 327.504 320.62 327.405 325.549 327.405C330.477 327.405 334.473 327.504 334.473 327.628Z" fill="#263238"/>
<path d="M251.149 94.1473C251.149 94.1473 250.951 94.151 250.567 94.1398C250.183 94.1234 249.613 94.0967 248.865 94.1487C247.38 94.2313 245.15 94.5118 242.524 95.6107C239.928 96.7081 236.889 98.6462 234.472 101.886C233.274 103.499 232.271 105.438 231.661 107.637C231.074 109.838 230.874 112.279 231.154 114.794C231.472 117.299 232.238 119.892 233.643 122.272C234.339 123.459 235.165 124.613 236.174 125.63C237.15 126.676 238.301 127.603 239.598 128.308C240.892 129.009 242.375 129.45 243.892 129.39C245.396 129.341 246.95 128.81 248.051 127.712C249.159 126.622 249.708 125.021 249.709 123.424C249.717 121.814 249.159 120.213 248.2 118.865C246.268 116.15 243.145 114.324 239.822 113.34C236.466 112.363 232.782 112.337 229.254 113.194C227.496 113.651 225.779 114.322 224.165 115.217C222.551 116.116 221.082 117.289 219.795 118.644C219.49 118.998 219.143 119.319 218.871 119.703L218.031 120.837C217.541 121.642 217.039 122.445 216.662 123.319C215.872 125.045 215.319 126.895 215.044 128.802C214.545 132.614 215.006 136.538 216.546 139.964C218.034 143.394 220.57 146.339 223.73 148.113C225.306 148.995 227.049 149.563 228.817 149.659C230.581 149.769 232.341 149.314 233.838 148.454C235.332 147.596 236.58 146.308 237.235 144.754C237.886 143.202 237.874 141.431 237.312 139.889C236.759 138.331 235.723 137.001 234.515 135.933C233.298 134.866 231.88 134.067 230.4 133.542C227.399 132.562 224.201 132.614 221.343 133.385C218.475 134.166 215.921 135.642 213.913 137.528C211.909 139.425 210.503 141.753 209.654 144.129C207.937 148.919 208.374 153.781 209.849 157.497C211.367 161.243 213.777 163.911 215.979 165.674C218.2 167.45 220.222 168.408 221.61 168.954C222.31 169.221 222.849 169.41 223.218 169.514C223.585 169.628 223.77 169.697 223.77 169.697C223.77 169.697 223.579 169.654 223.207 169.552C222.833 169.46 222.288 169.283 221.582 169.027C220.18 168.503 218.135 167.561 215.884 165.791C213.653 164.033 211.203 161.359 209.647 157.577C208.135 153.823 207.671 148.903 209.395 144.037C210.249 141.623 211.67 139.25 213.706 137.311C215.744 135.386 218.339 133.878 221.258 133.076C224.169 132.285 227.425 132.22 230.51 133.221C232.034 133.759 233.49 134.575 234.744 135.671C235.989 136.768 237.065 138.14 237.648 139.769C238.238 141.382 238.256 143.254 237.569 144.895C236.881 146.535 235.575 147.881 234.021 148.775C232.467 149.672 230.632 150.147 228.796 150.035C226.962 149.937 225.163 149.35 223.544 148.446C220.301 146.628 217.712 143.62 216.192 140.119C214.621 136.625 214.15 132.631 214.659 128.748C214.94 126.805 215.504 124.919 216.31 123.157C216.695 122.265 217.208 121.444 217.71 120.622L218.568 119.463C218.847 119.071 219.202 118.742 219.513 118.381C220.829 116.996 222.33 115.799 223.976 114.883C225.623 113.972 227.371 113.29 229.162 112.825C232.754 111.955 236.503 111.984 239.924 112.985C243.315 113.996 246.491 115.848 248.492 118.661C249.483 120.056 250.07 121.741 250.057 123.424C250.055 125.095 249.477 126.79 248.29 127.955C247.111 129.124 245.474 129.673 243.904 129.721C242.316 129.781 240.774 129.315 239.445 128.591C238.111 127.862 236.941 126.912 235.951 125.845C234.925 124.806 234.088 123.63 233.384 122.421C231.964 119.998 231.196 117.365 230.882 114.825C230.606 112.274 230.818 109.8 231.423 107.571C232.05 105.344 233.076 103.381 234.298 101.755C236.761 98.49 239.841 96.5548 242.466 95.4708C245.12 94.3853 247.368 94.1287 248.86 94.0706C249.612 94.0312 250.184 94.0706 250.569 94.0996C250.954 94.1242 251.149 94.1473 251.149 94.1473Z" fill="#263238"/>
<path d="M275.997 168.592H171.681V249.05H275.997V168.592Z" fill="#B0B552"/>
<path d="M171.681 168.592L190.948 186.563H293.496L275.997 168.592H171.681Z" fill="#B0B552"/>
<path d="M171.681 168.592C173.562 168.588 216.648 168.51 275.997 168.402H276.077L276.133 168.459C281.722 174.197 287.521 180.151 293.454 186.243C293.515 186.306 293.576 186.368 293.634 186.429L293.955 186.758L293.496 186.757C251.446 186.726 214.125 186.698 190.948 186.68H190.902L190.868 186.649C178.812 175.303 172.313 169.187 171.681 168.592C172.318 169.181 178.871 175.24 191.028 186.478L190.948 186.446C214.125 186.429 251.446 186.401 293.496 186.369L293.357 186.698C293.299 186.638 293.238 186.576 293.177 186.513C287.245 180.419 281.447 174.464 275.861 168.724L275.997 168.781C216.648 168.674 173.561 168.596 171.681 168.592Z" fill="#263238"/>
<path d="M203.012 205.692C201.908 205.694 200.901 206.685 200.882 207.79C200.863 208.894 201.835 209.919 202.939 209.959C204.042 209.999 205.086 209.046 205.147 207.944C205.208 206.841 204.274 205.779 203.174 205.698" fill="#263238"/>
<path d="M227.643 205.692C226.539 205.694 225.532 206.685 225.513 207.79C225.494 208.894 226.466 209.919 227.569 209.959C228.673 209.999 229.717 209.046 229.778 207.944C229.839 206.841 228.905 205.779 227.804 205.698" fill="#263238"/>
<path d="M227.802 224.952C227.69 224.998 227.526 222.939 225.737 220.327C224.859 219.032 223.543 217.66 221.796 216.546C220.061 215.433 217.856 214.632 215.475 214.545C213.091 214.501 210.846 215.18 209.051 216.197C207.246 217.212 205.857 218.511 204.908 219.756C202.979 222.266 202.702 224.313 202.594 224.26C202.58 224.257 202.602 224.137 202.654 223.908C202.717 223.684 202.766 223.336 202.927 222.92C203.196 222.071 203.743 220.881 204.69 219.59C205.631 218.298 207.032 216.945 208.875 215.886C210.707 214.825 213.019 214.111 215.486 214.158C217.951 214.247 220.218 215.087 221.989 216.246C223.771 217.405 225.096 218.832 225.964 220.174C226.839 221.516 227.32 222.734 227.542 223.597C227.681 224.021 227.71 224.37 227.761 224.598C227.8 224.828 227.815 224.95 227.802 224.952Z" fill="#263238"/>
<path opacity="0.5" d="M171.917 169.477L190.365 192.868H275.997V186.563H190.948L171.917 169.477Z" fill="black"/>
<path d="M255.427 248.866C255.32 248.866 255.233 234.871 255.233 217.612C255.233 200.347 255.32 186.355 255.427 186.355C255.534 186.355 255.62 200.347 255.62 217.612C255.62 234.871 255.534 248.866 255.427 248.866Z" fill="#263238"/>
<path d="M271.805 230.627H262.61V241.021H271.805V230.627Z" fill="#F5F5F5"/>
<path d="M171.68 168.592L150.264 186.563H171.68V168.592Z" fill="#B0B552"/>
<g opacity="0.4">
<path d="M171.68 168.592L150.264 186.563H171.68V168.592Z" fill="black"/>
</g>
<path d="M279.075 249.05H159.136V341.558H279.075V249.05Z" fill="#B0B552"/>
<path opacity="0.3" d="M279.075 249.05H159.136V341.558H279.075V249.05Z" fill="black"/>
<path d="M249.025 340.905C248.918 340.905 248.832 320.285 248.832 294.855C248.832 269.416 248.919 248.8 249.025 248.8C249.132 248.8 249.219 269.416 249.219 294.855C249.219 320.285 249.133 340.905 249.025 340.905Z" fill="#263238"/>
<path d="M268.906 320.501H259.711V330.895H268.906V320.501Z" fill="#F5F5F5"/>
<path d="M209.349 249.288H195.726V269.027H209.349V249.288Z" fill="#263238"/>
<path d="M209.349 321.543H195.726V341.282H209.349V321.543Z" fill="#263238"/>
<path d="M278.029 249.05C278.029 249.057 277.925 249.064 277.722 249.07C277.501 249.075 277.202 249.082 276.821 249.09C276.008 249.098 274.845 249.111 273.357 249.126C270.328 249.141 265.981 249.162 260.616 249.187C249.842 249.201 234.989 249.221 218.584 249.243C202.174 249.221 187.32 249.201 176.545 249.187C171.182 249.161 166.834 249.14 163.806 249.126C162.318 249.111 161.155 249.099 160.342 249.09C159.961 249.082 159.663 249.075 159.441 249.07C159.238 249.064 159.135 249.057 159.135 249.05C159.135 249.044 159.239 249.037 159.441 249.03C159.662 249.026 159.961 249.019 160.342 249.011C161.155 249.002 162.318 248.99 163.806 248.974C166.834 248.96 171.181 248.939 176.545 248.913C187.32 248.898 202.174 248.878 218.584 248.855C234.989 248.878 249.841 248.899 260.616 248.913C265.98 248.939 270.328 248.96 273.357 248.974C274.845 248.99 276.008 249.002 276.821 249.011C277.202 249.019 277.501 249.026 277.722 249.03C277.926 249.037 278.029 249.044 278.029 249.05Z" fill="#263238"/>
<path d="M72.4783 88.8842C71.6153 88.6721 67.4593 87.6506 59.4181 85.6753L59.5141 85.6604C56.6423 87.4922 52.7512 88.9705 48.2403 89.0404C45.9964 89.0322 43.623 88.7622 41.2541 88.0204C38.8875 87.2831 36.561 86.06 34.4465 84.4113C30.2154 81.1384 26.921 75.8932 26.2097 69.8556C25.8466 66.8566 26.0899 63.7035 27.0229 60.6851C27.973 57.6741 29.6128 54.8216 31.821 52.42C32.9407 51.1507 34.2583 50.098 35.6035 49.1241C36.3095 48.6881 37.0059 48.235 37.7335 47.8518L38.8443 47.3169L39.3978 47.0506L39.973 46.84C43.0159 45.66 46.2546 45.2032 49.363 45.41C52.4751 45.6102 55.4556 46.4806 58.0626 47.8526C60.674 49.2215 62.9127 51.0801 64.67 53.19C66.4318 55.3008 67.713 57.6607 68.5277 60.043C69.3416 62.4283 69.7129 64.8277 69.7345 67.0947C69.7612 71.6487 68.338 75.5554 66.6059 78.4079L66.6074 78.2904C70.2389 84.8428 72.0736 88.1536 72.4783 88.8842C72.0595 88.1618 70.1608 84.8867 66.4036 78.4057L66.3693 78.3469L66.4051 78.2874C68.0932 75.4498 69.4696 71.5854 69.4183 67.0969C69.3848 64.8627 69.0076 62.5019 68.1973 60.1591C67.3864 57.8185 66.1186 55.5039 64.3799 53.4348C62.6464 51.3665 60.4426 49.5474 57.8758 48.2097C55.3135 46.8698 52.3888 46.0216 49.3362 45.8296C46.2865 45.6317 43.1119 46.0826 40.1299 47.2418L39.566 47.4486L39.0236 47.7097L37.9351 48.2343C37.2217 48.61 36.5401 49.0549 35.8475 49.4819C34.5299 50.4372 33.2375 51.4692 32.1401 52.7131C29.9751 55.0679 28.3673 57.8631 27.4336 60.8131C26.517 63.7705 26.2752 66.8633 26.6271 69.805C27.316 75.7258 30.5346 80.8802 34.6824 84.1099C36.7552 85.7363 39.0378 86.9468 41.3628 87.6811C43.69 88.4199 46.0247 88.6959 48.2358 88.716C52.6805 88.6699 56.5277 87.2385 59.3832 85.4506L59.4286 85.4224L59.4792 85.4357C67.4831 87.5591 71.6205 88.6565 72.4783 88.8842Z" fill="#263238"/>
<path d="M46.0986 57.5112L46.789 68.4204C46.8456 69.3125 47.5583 70.0223 48.4504 70.0759C49.3915 70.1317 50.2114 69.4405 50.3148 68.503L51.5261 57.5387C51.6176 56.7084 50.9614 55.986 50.1259 55.9971L47.4646 56.0343C46.6715 56.0455 46.048 56.7188 46.0986 57.5112Z" fill="#B0B552"/>
<path d="M51.3428 76.2124C50.8792 77.6081 49.3726 78.364 47.9769 77.9005C46.5812 77.437 45.8252 75.9304 46.2888 74.5347C46.7523 73.1389 48.2589 72.383 49.6546 72.8465C51.0504 73.3093 51.8063 74.8166 51.3428 76.2124Z" fill="#B0B552"/>
</svg>
