<svg width="14" height="14" viewBox="0 0 14 14" fill="none" xmlns="http://www.w3.org/2000/svg">
<path d="M12.4367 14H9.26333C8.4 14 7.7 13.3 7.7 12.4367V8.16667C7.7 7.91 7.91 7.7 8.16667 7.7H12.4367C13.3 7.7 14 8.4 14 9.26333V12.4367C14 13.3 13.3 14 12.4367 14ZM8.63333 8.63333V12.4367C8.63333 12.7867 8.91333 13.0667 9.26333 13.0667H12.4367C12.7867 13.0667 13.0667 12.7867 13.0667 12.4367V9.26333C13.0667 8.91333 12.7867 8.63333 12.4367 8.63333H8.63333ZM4.73667 14H1.56333C0.7 14 0 13.3 0 12.4367V9.26333C0 8.4 0.7 7.7 1.56333 7.7H5.83333C6.09 7.7 6.3 7.91 6.3 8.16667V12.4367C6.3 13.3 5.6 14 4.73667 14ZM1.56333 8.63333C1.21333 8.63333 0.933333 8.91333 0.933333 9.26333V12.4367C0.933333 12.7867 1.21333 13.0667 1.56333 13.0667H4.73667C5.08667 13.0667 5.36667 12.7867 5.36667 12.4367V8.63333H1.56333ZM12.4367 6.3H8.16667C7.91 6.3 7.7 6.09 7.7 5.83333V1.56333C7.7 0.7 8.4 0 9.26333 0H12.4367C13.3 0 14 0.7 14 1.56333V4.73667C14 5.6 13.3 6.3 12.4367 6.3ZM8.63333 5.36667H12.4367C12.7867 5.36667 13.0667 5.08667 13.0667 4.73667V1.56333C13.0667 1.21333 12.7867 0.933333 12.4367 0.933333H9.26333C8.91333 0.933333 8.63333 1.21333 8.63333 1.56333V5.36667ZM5.83333 6.3H1.56333C0.7 6.3 0 5.6 0 4.73667V1.56333C0 0.7 0.7 0 1.56333 0H4.73667C5.6 0 6.3 0.7 6.3 1.56333V5.83333C6.3 6.09 6.09 6.3 5.83333 6.3ZM1.56333 0.933333C1.21333 0.933333 0.933333 1.21333 0.933333 1.56333V4.73667C0.933333 5.08667 1.21333 5.36667 1.56333 5.36667H5.36667V1.56333C5.36667 1.21333 5.08667 0.933333 4.73667 0.933333H1.56333Z" fill="#717171"/>
</svg>
