<svg width="13" height="14" viewBox="0 0 13 14" fill="none" xmlns="http://www.w3.org/2000/svg">
<path d="M1.8397 12.7588L2.13171 12.353L1.8397 12.7588ZM1.12069 12.0468L1.52383 11.7511L1.12069 12.0468ZM11.5793 12.0468L11.1762 11.7511L11.5793 12.0468ZM10.8603 12.7588L11.1523 13.1647L10.8603 12.7588ZM10.8603 2.402L11.1523 1.99613L10.8603 2.402ZM11.5793 3.11401L11.1762 3.40978V3.40978L11.5793 3.11401ZM1.8397 2.402L2.13171 2.80787L2.13171 2.80787L1.8397 2.402ZM1.12069 3.11401L1.52383 3.40978V3.40978L1.12069 3.11401ZM11.0416 9.55107L10.9641 9.05711V9.05711L11.0416 9.55107ZM8.34001 12.2264L7.84629 12.1474V12.1474L8.34001 12.2264ZM4.4 7.72409C4.12386 7.72409 3.9 7.94795 3.9 8.22409C3.9 8.50024 4.12386 8.72409 4.4 8.72409V8.22409V7.72409ZM8.3 8.72409C8.57614 8.72409 8.8 8.50024 8.8 8.22409C8.8 7.94795 8.57614 7.72409 8.3 7.72409V8.22409V8.72409ZM7.8 2.43102C7.8 2.70717 8.02386 2.93102 8.3 2.93102C8.57614 2.93102 8.8 2.70717 8.8 2.43102H8.3H7.8ZM8.8 0.5C8.8 0.223858 8.57614 0 8.3 0C8.02386 0 7.8 0.223858 7.8 0.5H8.3H8.8ZM3.9 2.43102C3.9 2.70717 4.12386 2.93102 4.4 2.93102C4.67614 2.93102 4.9 2.70717 4.9 2.43102H4.4H3.9ZM4.9 0.5C4.9 0.223858 4.67614 0 4.4 0C4.12386 0 3.9 0.223858 3.9 0.5H4.4H4.9ZM12.1812 9.51144L12.6809 9.52873L12.1812 9.51144ZM0.518803 5.6494L0.0191025 5.63211L0.518803 5.6494ZM12.1812 5.6494L12.6809 5.63211L12.1812 5.6494ZM6.35 13.3735V12.8735C5.12031 12.8735 4.23781 12.8728 3.55456 12.7995C2.88038 12.7272 2.45963 12.5889 2.13171 12.353L1.8397 12.7588L1.54769 13.1647C2.07408 13.5434 2.68982 13.7125 3.44788 13.7938C4.19687 13.8742 5.14237 13.8735 6.35 13.8735V13.3735ZM0.5 7.58042H0C0 8.77598 -0.000699699 9.7132 0.0805528 10.4559C0.162861 11.2082 0.334111 11.82 0.717559 12.3426L1.12069 12.0468L1.52383 11.7511C1.28658 11.4277 1.14749 11.0131 1.07462 10.3471C1.0007 9.67145 1 8.79847 1 7.58042H0.5ZM1.8397 12.7588L2.13171 12.353C1.89826 12.185 1.69316 11.9818 1.52383 11.7511L1.12069 12.0468L0.717559 12.3426C0.949149 12.6583 1.22932 12.9356 1.54769 13.1647L1.8397 12.7588ZM11.5793 12.0468L11.1762 11.7511C11.0068 11.9818 10.8017 12.185 10.5683 12.353L10.8603 12.7588L11.1523 13.1647C11.4707 12.9357 11.7509 12.6583 11.9824 12.3426L11.5793 12.0468ZM10.8603 2.402L10.5683 2.80787C10.8017 2.97583 11.0068 3.17899 11.1762 3.40978L11.5793 3.11401L11.9824 2.81824C11.7509 2.50258 11.4707 2.22519 11.1523 1.99613L10.8603 2.402ZM1.8397 2.402L1.54769 1.99613C1.22932 2.22519 0.949149 2.50258 0.717559 2.81824L1.12069 3.11401L1.52383 3.40978C1.69316 3.17899 1.89826 2.97583 2.13171 2.80787L1.8397 2.402ZM11.0416 9.55107L10.9641 9.05711C9.36222 9.30835 8.10119 10.5536 7.84629 12.1474L8.34001 12.2264L8.83374 12.3053C9.01935 11.1448 9.93965 10.23 11.1191 10.045L11.0416 9.55107ZM4.4 8.22409V8.72409H8.3V8.22409V7.72409H4.4V8.22409ZM12.1812 9.51144L12.1812 9.01144C11.608 9.01145 11.2622 9.01036 10.9641 9.05711L11.0416 9.55107L11.1191 10.045C11.321 10.0134 11.5717 10.0114 12.1812 10.0114L12.1812 9.51144ZM12.2 7.58042H11.7C11.7 8.33562 11.6999 8.96116 11.6815 9.49415L12.1812 9.51144L12.6809 9.52873C12.7001 8.97476 12.7 8.33003 12.7 7.58042H12.2ZM12.1812 9.51144L11.6815 9.49415C11.6402 10.6875 11.5057 11.3019 11.1762 11.7511L11.5793 12.0468L11.9824 12.3426C12.5073 11.6272 12.6392 10.7352 12.6809 9.52873L12.1812 9.51144ZM8.3 13.3549L8.8 13.3549C8.8 12.7508 8.80197 12.5039 8.83374 12.3053L8.34001 12.2264L7.84629 12.1474C7.79886 12.4439 7.8 12.7878 7.8 13.3549L8.3 13.3549ZM6.35 13.3735V13.8735C7.10706 13.8735 7.75784 13.8735 8.31695 13.8546L8.3 13.3549L8.28305 12.8552C7.7445 12.8734 7.11254 12.8735 6.35 12.8735V13.3735ZM8.3 13.3549L8.31695 13.8546C9.53447 13.8133 10.432 13.6829 11.1523 13.1647L10.8603 12.7588L10.5683 12.353C10.1126 12.6808 9.48897 12.8142 8.28305 12.8552L8.3 13.3549ZM0.5 7.58042H1C1 6.82522 1.00006 6.19968 1.0185 5.66668L0.518803 5.6494L0.0191025 5.63211C-6.38962e-05 6.18608 0 6.83081 0 7.58042H0.5ZM0.518803 5.6494L1.0185 5.66668C1.05979 4.47331 1.1943 3.85893 1.52383 3.40978L1.12069 3.11401L0.717559 2.81824C0.192689 3.53363 0.0608445 4.42562 0.0191025 5.63211L0.518803 5.6494ZM0.518803 5.6494V6.1494H12.1812V5.6494V5.1494H0.518803V5.6494ZM12.2 7.58042H12.7C12.7 6.83081 12.7001 6.18608 12.6809 5.63211L12.1812 5.6494L11.6815 5.66668C11.6999 6.19968 11.7 6.82522 11.7 7.58042H12.2ZM12.1812 5.6494L12.6809 5.63211C12.6392 4.42562 12.5073 3.53363 11.9824 2.81824L11.5793 3.11401L11.1762 3.40978C11.5057 3.85893 11.6402 4.47331 11.6815 5.66668L12.1812 5.6494ZM8.3 2.43102H8.8V1.80597H8.3H7.8V2.43102H8.3ZM8.3 1.80597H8.8V0.5H8.3H7.8V1.80597H8.3ZM6.35 1.78735V2.28735C7.11254 2.28735 7.74451 2.28741 8.28305 2.30568L8.3 1.80597L8.31695 1.30626C7.75784 1.28729 7.10706 1.28735 6.35 1.28735V1.78735ZM8.3 1.80597L8.28305 2.30568C9.48897 2.3466 10.1126 2.48 10.5683 2.80787L10.8603 2.402L11.1523 1.99613C10.432 1.47792 9.53447 1.34756 8.31695 1.30626L8.3 1.80597ZM4.4 2.43102H4.9V1.80597H4.4H3.9V2.43102H4.4ZM4.4 1.80597H4.9V0.5H4.4H3.9V1.80597H4.4ZM6.35 1.78735V1.28735C5.59294 1.28735 4.94216 1.28729 4.38305 1.30626L4.4 1.80597L4.41695 2.30568C4.95549 2.28741 5.58746 2.28735 6.35 2.28735V1.78735ZM4.4 1.80597L4.38305 1.30626C3.16553 1.34756 2.26795 1.47792 1.54769 1.99613L1.8397 2.402L2.13171 2.80787C2.58743 2.48 3.21103 2.3466 4.41695 2.30568L4.4 1.80597Z" fill="black"/>
</svg>
