<svg width="14" height="16" viewBox="0 0 14 16" fill="none" xmlns="http://www.w3.org/2000/svg">
<path d="M8.534 13.59L13.724 12.49C13.664 13.0953 13.5067 13.6793 13.252 14.242L8.074 15.342C8.12733 14.7287 8.28067 14.1447 8.534 13.59ZM13.252 10.94L8.074 12.04V8.74L6.458 9.086V10.918C6.458 11.082 6.41267 11.2313 6.322 11.366L5.48 12.612C5.256 12.9347 4.956 13.1333 4.58 13.208L0 14.186C0.06 13.5793 0.217333 12.9953 0.472 12.434L4.84 11.502V9.422L0.764 10.288C0.824 9.68133 0.980667 9.10133 1.234 8.548L4.84 7.772V1.36C5.296 0.805333 5.83533 0.352 6.458 0V7.436L8.074 7.088V2.168C8.53133 1.61467 9.06667 1.16133 9.68 0.808V6.75L13.724 5.886C13.664 6.49267 13.5067 7.07667 13.252 7.638L9.68 8.402V10.042L13.724 9.188C13.664 9.80134 13.5067 10.3853 13.252 10.94Z" fill="#00B233"/>
</svg>
