<svg width="30" height="21" viewBox="0 0 30 21" fill="none" xmlns="http://www.w3.org/2000/svg">
<path d="M26.6293 21.0001H2.75477C1.23572 21.0001 0 19.8226 0 18.3751V14C0 13.5164 0.41069 13.125 0.918257 13.125C2.43731 13.125 3.67303 11.9475 3.67303 10.5C3.67303 9.0525 2.43731 7.87499 0.918257 7.87499C0.41069 7.87505 0 7.4837 0 7.00004V2.62502C0 1.17751 1.23572 0 2.75477 0H26.6293C28.1484 0 29.3841 1.17751 29.3841 2.62502V7.00004C29.3841 7.4837 28.9734 7.87505 28.4658 7.87505C26.9468 7.87505 25.7111 9.05256 25.7111 10.5001C25.7111 11.9476 26.9468 13.1251 28.4658 13.1251C28.9734 13.1251 29.3841 13.5164 29.3841 14.0001V18.3751C29.384 19.8226 28.1484 21.0001 26.6293 21.0001ZM1.83651 14.787V18.3751C1.83651 18.8578 2.24813 19.2501 2.75477 19.2501H26.6293C27.136 19.2501 27.5476 18.8578 27.5476 18.3751V14.787C25.4546 14.3803 23.8745 12.6132 23.8745 10.5C23.8745 8.38681 25.4546 6.61977 27.5476 6.21299V2.62502C27.5476 2.14224 27.136 1.75001 26.6293 1.75001H2.75477C2.24813 1.75001 1.83651 2.14224 1.83651 2.62502V6.21305C3.92947 6.61977 5.50954 8.38687 5.50954 10.5001C5.50954 12.6133 3.92947 14.3803 1.83651 14.787Z" fill="#CD1696"/>
<path d="M11.078 17.1808L16.5855 3.18579L18.3051 3.80023L12.7976 17.7953L11.078 17.1808ZM10.348 10.7946C8.82898 10.7946 7.59326 9.61711 7.59326 8.1696C7.59326 6.7221 8.82898 5.54459 10.348 5.54459C11.8671 5.54459 13.1028 6.7221 13.1028 8.1696C13.1028 9.61711 11.8671 10.7946 10.348 10.7946ZM10.348 7.2946C9.84139 7.2946 9.42978 7.68683 9.42978 8.1696C9.42978 8.65238 9.84139 9.04461 10.348 9.04461C10.8547 9.04461 11.2663 8.65238 11.2663 8.1696C11.2663 7.68683 10.8547 7.2946 10.348 7.2946ZM19.8397 16.2213C18.3206 16.2213 17.0849 15.0438 17.0849 13.5963C17.0849 12.1488 18.3206 10.9713 19.8397 10.9713C21.3587 10.9713 22.5944 12.1488 22.5944 13.5963C22.5944 15.0438 21.3587 16.2213 19.8397 16.2213ZM19.8397 12.7213C19.333 12.7213 18.9214 13.1135 18.9214 13.5963C18.9214 14.0791 19.333 14.4713 19.8397 14.4713C20.3463 14.4713 20.7579 14.0791 20.7579 13.5963C20.7579 13.1135 20.3463 12.7213 19.8397 12.7213Z" fill="#CD1696"/>
</svg>
