<svg width="25" height="25" viewBox="0 0 25 25" fill="none" xmlns="http://www.w3.org/2000/svg">
<path d="M9.30354 20.9898C9.18128 20.9349 9.04937 20.9046 8.91535 20.9006C8.78132 20.8965 8.64781 20.9188 8.52243 20.9661C8.39705 21.0134 8.28226 21.0849 8.18461 21.1765C8.08696 21.268 8.00837 21.3778 7.95331 21.4996C7.89826 21.6213 7.86783 21.7527 7.86375 21.8862C7.85968 22.0197 7.88204 22.1527 7.92956 22.2776C7.97709 22.4025 8.04884 22.5169 8.14073 22.6141C8.23261 22.7114 8.34283 22.7897 8.46509 22.8445L11.1873 24.0648C11.3096 24.1196 11.4415 24.1499 11.5755 24.154C11.7095 24.158 11.843 24.1358 11.9684 24.0884C12.0938 24.0411 12.2086 23.9696 12.3062 23.8781C12.4039 23.7865 12.4825 23.6768 12.5375 23.555C12.5926 23.4332 12.623 23.3018 12.6271 23.1683C12.6312 23.0348 12.6088 22.9018 12.5613 22.7769C12.5138 22.652 12.442 22.5377 12.3501 22.4404C12.2582 22.3431 12.148 22.2648 12.0258 22.21L9.30354 20.9898Z" fill="#B0B552"/>
<path fill-rule="evenodd" clip-rule="evenodd" d="M14.6681 1.54665C14.0589 1.2644 13.3952 1.11816 12.7233 1.11816C12.0515 1.11816 11.3877 1.2644 10.7785 1.54665L3.72424 4.81545C2.92747 5.1846 2.25311 5.77283 1.78052 6.51092C1.30794 7.24901 1.05679 8.10624 1.05664 8.98173V16.5671C1.05673 17.4491 1.31158 18.3125 1.79075 19.0541C2.26993 19.7958 2.95319 20.3844 3.75897 20.7496L10.8132 23.9481C11.413 24.22 12.0643 24.3607 12.7233 24.3607C13.3823 24.3607 14.0336 24.22 14.6334 23.9481L21.6876 20.7496C22.4934 20.3844 23.1767 19.7958 23.6559 19.0541C24.135 18.3125 24.3899 17.4491 24.39 16.5671V8.98173C24.3898 8.10624 24.1387 7.24901 23.6661 6.51092C23.1935 5.77283 22.5191 5.1846 21.7224 4.81545L14.6681 1.54665ZM11.4655 3.01723C11.8597 2.83461 12.2891 2.73999 12.7238 2.73999C13.1586 2.73999 13.588 2.83461 13.9822 3.01723L21.0365 6.28603C21.5433 6.52068 21.9633 6.88724 22.2607 7.33274L19.0266 8.85955L9.18749 4.07259L11.4655 3.01723ZM7.28718 4.95278L4.41013 6.28711C3.91248 6.51696 3.48813 6.87915 3.18377 7.33382L12.7233 11.8342L17.1447 9.7473L7.28718 4.95278ZM2.68455 8.89307L11.9094 13.2464V22.6279C11.7646 22.587 11.6231 22.5353 11.4861 22.4732L4.43183 19.2747C3.91045 19.0383 3.46837 18.6574 3.15834 18.1775C2.84832 17.6976 2.68347 17.1389 2.68346 16.5682V8.98173L2.68455 8.89307ZM13.5373 22.6268C13.6813 22.5862 13.822 22.5349 13.9583 22.4732L21.0126 19.2747C21.534 19.0383 21.9761 18.6574 22.2861 18.1775C22.5961 17.6976 22.761 17.1389 22.761 16.5682V8.98173L22.7599 8.89199L13.5362 13.2443L13.5373 22.6268Z" fill="#B0B552"/>
</svg>
