<svg width="23" height="27" viewBox="0 0 23 27" fill="none" xmlns="http://www.w3.org/2000/svg">
<path fill-rule="evenodd" clip-rule="evenodd" d="M20.625 26.25H1.875C1.37772 26.25 0.900805 26.0525 0.549175 25.7009C0.197544 25.3492 0 24.8723 0 24.375V15.9375C0 15.4403 0.197544 14.9633 0.549175 14.6117C0.900805 14.2601 1.37772 14.0625 1.875 14.0625H6.87469V13.125C6.87469 12.6278 7.07223 12.1508 7.42386 11.7992C7.77549 11.4476 8.25241 11.25 8.74969 11.25H13.7503V9.37504C13.7503 8.87776 13.9479 8.40084 14.2995 8.04921C14.6511 7.69758 15.128 7.50004 15.6253 7.50004H20.625C21.1223 7.50004 21.5992 7.69758 21.9508 8.04921C22.3025 8.40084 22.5 8.87776 22.5 9.37504V24.375C22.5 24.8723 22.3025 25.3492 21.9508 25.7009C21.5992 26.0525 21.1223 26.25 20.625 26.25ZM6.87469 15.9375H1.875V24.375H6.87469V15.9375ZM13.7503 13.125H8.74969V24.375H13.7503V13.125ZM15.6253 24.375H20.625V9.37504H15.6253V12.1875V24.375ZM14.0494 3.39566C10.5216 8.59691 3.9825 10.2835 3.9825 10.2835C3.74157 10.3451 3.48601 10.3086 3.27204 10.1818C3.16609 10.119 3.07355 10.036 2.99969 9.93748C2.92583 9.83895 2.8721 9.72684 2.84156 9.60754C2.81103 9.48824 2.80429 9.3641 2.82174 9.2422C2.83918 9.1203 2.88047 9.00302 2.94324 8.89708C3.07 8.68311 3.27657 8.52826 3.5175 8.4666C3.5175 8.4666 9.74438 6.88879 12.7884 1.89098L10.9444 1.87504C10.6957 1.8728 10.4582 1.77188 10.2839 1.59448C10.1097 1.41709 10.0131 1.17774 10.0153 0.9291C10.0175 0.68046 10.1185 0.442892 10.2959 0.268659C10.4733 0.0944262 10.7126 -0.00219974 10.9613 3.80194e-05L14.9738 0.0356631C15.2196 0.0373817 15.4549 0.135817 15.6288 0.309678C15.8027 0.48354 15.9011 0.718854 15.9028 0.964725L15.9375 4.88441C15.9397 5.13305 15.8431 5.3724 15.6689 5.5498C15.4946 5.72719 15.2571 5.82811 15.0084 5.83035C14.7598 5.83259 14.5205 5.73596 14.3431 5.56173C14.1657 5.3875 14.0647 5.14993 14.0625 4.90129L14.0494 3.39566Z" fill="#B3B036"/>
</svg>
