<svg width="19" height="19" viewBox="0 0 19 19" fill="none" xmlns="http://www.w3.org/2000/svg">
<path d="M13.9777 0H4.18867C1.87533 0 0 1.87533 0 4.18867V13.9777C0 16.2911 1.87533 18.1664 4.18867 18.1664H13.9777C16.2911 18.1664 18.1664 16.2911 18.1664 13.9777V4.18867C18.1664 1.87533 16.2911 0 13.9777 0Z" fill="url(#paint0_linear_2364_14952)"/>
<path d="M12.0128 3.58389C12.7025 3.58666 13.3631 3.86185 13.8507 4.34951C14.3384 4.83716 14.6136 5.49776 14.6164 6.1874V11.9788C14.6136 12.6684 14.3384 13.3291 13.8507 13.8167C13.3631 14.3044 12.7025 14.5795 12.0128 14.5823H6.15347C5.46383 14.5795 4.80322 14.3044 4.31557 13.8167C3.82792 13.3291 3.55273 12.6684 3.54995 11.9788V6.1874C3.55273 5.49776 3.82792 4.83716 4.31557 4.34951C4.80322 3.86185 5.46383 3.58666 6.15347 3.58389H12.0128ZM12.0128 2.37295H6.15347C4.05542 2.37295 2.33862 4.0917 2.33862 6.18779V11.9788C2.33862 14.0769 4.05737 15.7937 6.15347 15.7937H12.0128C14.1109 15.7937 15.8277 14.0749 15.8277 11.9788V6.1874C15.8277 4.08936 14.1109 2.37256 12.0128 2.37256V2.37295Z" fill="white"/>
<path d="M9.08318 6.82275C9.53027 6.82275 9.96733 6.95533 10.3391 7.20372C10.7108 7.45212 11.0006 7.80517 11.1717 8.21823C11.3427 8.63129 11.3875 9.08581 11.3003 9.52431C11.2131 9.96281 10.9978 10.3656 10.6816 10.6817C10.3655 10.9979 9.96269 11.2132 9.52419 11.3004C9.08569 11.3876 8.63117 11.3429 8.21811 11.1718C7.80505 11.0007 7.452 10.7109 7.2036 10.3392C6.95521 9.96745 6.82263 9.53039 6.82263 9.0833C6.82336 8.48399 7.06175 7.90943 7.48553 7.48565C7.90931 7.06187 8.48387 6.82348 9.08318 6.82275ZM9.08318 5.61182C8.39659 5.61182 7.72541 5.81542 7.15453 6.19687C6.58364 6.57832 6.1387 7.12049 5.87595 7.75482C5.6132 8.38915 5.54445 9.08715 5.6784 9.76055C5.81235 10.434 6.14297 11.0525 6.62847 11.538C7.11397 12.0235 7.73253 12.3541 8.40593 12.4881C9.07933 12.622 9.77733 12.5533 10.4117 12.2905C11.046 12.0278 11.5882 11.5828 11.9696 11.012C12.3511 10.4411 12.5547 9.7699 12.5547 9.0833C12.5547 8.16261 12.1889 7.27962 11.5379 6.62859C10.8869 5.97756 10.0039 5.61182 9.08318 5.61182Z" fill="white"/>
<path d="M12.6304 6.28232C13.085 6.28232 13.4535 5.91383 13.4535 5.45928C13.4535 5.00472 13.085 4.63623 12.6304 4.63623C12.1759 4.63623 11.8074 5.00472 11.8074 5.45928C11.8074 5.91383 12.1759 6.28232 12.6304 6.28232Z" fill="white"/>
<defs>
<linearGradient id="paint0_linear_2364_14952" x1="11.9062" y1="18.9289" x2="6.26016" y2="-0.762501" gradientUnits="userSpaceOnUse">
<stop stop-color="#FFDB73"/>
<stop offset="0.08" stop-color="#FDAD4E"/>
<stop offset="0.15" stop-color="#FB832E"/>
<stop offset="0.19" stop-color="#FA7321"/>
<stop offset="0.23" stop-color="#F6692F"/>
<stop offset="0.37" stop-color="#E84A5A"/>
<stop offset="0.48" stop-color="#E03675"/>
<stop offset="0.55" stop-color="#DD2F7F"/>
<stop offset="0.68" stop-color="#B43D97"/>
<stop offset="0.97" stop-color="#4D60D4"/>
<stop offset="1" stop-color="#4264DB"/>
</linearGradient>
</defs>
</svg>
