<svg width="24" height="24" viewBox="0 0 24 24" fill="none" xmlns="http://www.w3.org/2000/svg">
<path d="M13.6717 16.936L18.8617 15.836C18.8017 16.4413 18.6444 17.0253 18.3897 17.588L13.2117 18.688C13.265 18.0747 13.4184 17.4907 13.6717 16.936ZM18.3897 14.286L13.2117 15.386V12.086L11.5957 12.432V14.264C11.5957 14.428 11.5504 14.5773 11.4597 14.712L10.6177 15.958C10.3937 16.2807 10.0937 16.4793 9.7177 16.554L5.1377 17.532C5.1977 16.9253 5.35503 16.3413 5.6097 15.78L9.97769 14.848V12.768L5.9017 13.634C5.9617 13.0273 6.11836 12.4473 6.3717 11.894L9.97769 11.118V4.70601C10.4337 4.15134 10.973 3.69801 11.5957 3.34601V10.782L13.2117 10.434V5.51401C13.669 4.96068 14.2044 4.50734 14.8177 4.15401V10.096L18.8617 9.23201C18.8017 9.83868 18.6444 10.4227 18.3897 10.984L14.8177 11.748V13.388L18.8617 12.534C18.8017 13.1473 18.6444 13.7313 18.3897 14.286Z" fill="#B0B552"/>
</svg>
