<svg width="50" height="49" viewBox="0 0 50 49" fill="none" xmlns="http://www.w3.org/2000/svg">
<path d="M18.1889 19.5912L18.3991 28.7487L18.5115 33.6223C18.5115 35.641 18.5115 37.6606 18.5115 39.6812C18.5115 40.5321 18.5115 41.386 18.5115 42.2369C18.5115 42.7504 18.5115 43.2667 18.5115 43.7832C18.5115 44.2996 18.5441 44.5226 19.1303 44.6253C19.4648 44.6869 19.8438 44.7866 20.1872 44.8658C21.33 45.1299 21.475 44.9744 21.475 43.8066C21.475 41.0339 21.5017 38.2582 21.475 35.4854C21.4172 34.1503 21.7804 32.8304 22.5142 31.7092C22.8347 31.2325 23.2855 30.8559 23.8139 30.6236C25.4096 29.9018 26.9846 29.1565 28.5685 28.4171C29.9303 27.7892 30.9961 28.4582 31.0346 29.9927C31.0642 31.1077 31.0346 32.2227 31.0346 33.3377V44.1411C31.1145 44.1411 31.1767 44.1881 31.2181 44.1705C31.4046 44.0971 31.606 44.0355 31.8102 43.9768C32.5563 43.7626 33.3527 43.5866 33.779 43.1259L33.8471 43.0467C34.3 42.4599 33.9773 41.2862 33.9773 40.3766C33.9773 35.7994 34.0365 31.2221 33.9448 26.6478C33.9181 25.4742 34.2764 24.5793 35.1112 23.9044C36.0171 23.1679 36.8461 22.3464 37.7757 21.6305C38.6342 20.9585 39.1139 21.1522 39.3033 22.2173C39.3444 22.499 39.3603 22.7837 39.3507 23.0682C39.3507 28.244 39.3507 33.4198 39.3507 38.5956C39.3507 38.7599 39.256 38.9859 39.3507 39.1238C39.3807 39.1606 39.4208 39.1881 39.4662 39.203C39.7296 39.3086 39.8688 39.0152 39.9931 38.8538C41.7398 36.6033 43.4688 34.3441 44.4339 31.6153C46.006 27.2464 46.1925 22.8745 44.656 18.5115C44.5671 18.2181 44.4724 17.9247 44.3599 17.6107C44.2563 16.9623 44.5257 16.5075 45.0379 16.0292C46.6987 14.4771 46.9356 15.2869 47.4063 16.6542C48.4737 19.791 48.9181 23.103 48.7148 26.4072C48.5241 29.2258 47.8126 31.9856 46.6158 34.5494C45.7218 36.6073 44.519 38.5195 43.0484 40.2211C39.8629 43.8389 36.0142 46.5266 31.3514 47.9174C29.9442 48.349 28.4921 48.6207 27.0231 48.7272C25.5931 48.824 24.175 48.8856 22.7451 48.868C20.3027 48.8387 17.9935 48.2049 15.7375 47.3452C13.7403 46.6006 11.8686 45.5598 10.1865 44.2585C8.65596 43.0614 7.12833 41.8819 5.90564 40.3297C3.84257 37.7512 2.22402 34.8523 1.11551 31.7503C0.533085 30.0941 0.18342 28.3663 0.0763607 26.6156C-0.124955 23.2941 0.0171538 19.9433 1.17176 16.7745C2.20722 13.8026 3.78027 11.0425 5.81386 8.62933C7.62059 6.53013 9.73294 4.70954 12.0813 3.2276C13.7747 2.14784 15.6872 1.61382 17.5553 0.953645C20.2198 0.0176567 22.9435 -0.205338 25.7086 -0.0468953C28.601 0.117416 31.4283 0.630889 34.0336 2.007C34.4895 2.2476 34.5694 2.5146 34.4096 2.94005C34.1918 3.46599 33.9019 3.95966 33.5481 4.40711C33.4278 4.60274 33.2495 4.75677 33.0375 4.84816C32.8255 4.93954 32.5903 4.96382 32.3639 4.91766C29.9614 3.94241 27.3982 3.41425 24.8027 3.35964C23.9683 3.33383 23.1332 3.35341 22.301 3.41831C20.09 3.57946 17.9275 4.14136 15.9211 5.0761C14.1191 5.84877 12.4343 6.86589 10.9148 8.09826C10.1652 8.68952 9.46521 9.3401 8.82175 10.0436C8.67372 10.202 8.5257 10.3605 8.38063 10.5218C5.75559 13.4102 4.03383 16.9922 3.42472 20.8324C2.94215 23.8193 2.83261 26.8239 3.84807 29.6729C4.54182 32.3068 5.74868 34.7807 7.4007 36.9554C7.64375 37.4009 7.9668 37.7986 8.35398 38.1291C9.64744 39.5997 11.1422 40.8836 12.7948 41.9435V41.9611V31.5596L12.6379 26.4278C12.7267 22.9802 12.6201 19.5267 12.6586 16.0791C12.6586 14.9318 12.6586 13.7905 12.6793 12.6462C12.7 11.7014 13.5467 11.0383 14.4793 10.8857C16.7589 10.516 18.0912 11.8099 19.453 13.3063C21.5254 15.5862 23.7458 17.7604 25.8833 19.9932C26.2296 20.3571 26.4014 20.3013 26.8395 20.0255C28.1244 19.2157 29.1487 18.0919 30.4218 17.2733C31.016 16.8746 31.5641 16.4121 32.056 15.8942C34.2823 13.6584 36.6418 11.5576 38.7764 9.2279L38.877 9.1164C39.3625 8.56772 39.7829 7.96329 40.3188 7.46448C40.6741 7.13586 40.5556 6.89819 40.2537 6.61945C39.3063 5.75682 38.3767 4.87952 37.3642 3.93766L48.3922 0.143821C48.8688 -0.0175558 49.082 0.143824 49.0316 0.669034C48.851 2.55275 48.6201 4.43353 48.5402 6.32017C48.4869 7.54077 48.407 8.76136 48.3537 9.98196C48.3147 10.8537 48.2058 11.7211 48.028 12.5757C47.9096 13.1626 47.6935 13.0775 47.353 12.8457C46.6662 12.3762 45.9645 11.9214 45.3191 11.3992C44.9846 11.1321 44.8336 11.2143 44.5731 11.4725C43.8773 12.1738 43.2083 12.9102 42.477 13.5704C42.2727 13.7553 42.0655 13.9342 41.8494 14.1044C40.3514 15.2781 38.9481 16.572 37.5418 17.8366C36.1948 19.0455 34.7885 20.1839 33.3971 21.3371C31.7185 22.7454 29.9362 24.0394 28.1954 25.3803C27.7033 25.7769 27.1453 26.0856 26.5464 26.2928C25.6583 26.5862 24.8974 26.4777 24.1928 25.75C22.2388 23.6932 20.3175 21.5688 18.1889 19.5912Z" fill="#B3B036"/>
</svg>
