<svg width="14" height="14" viewBox="0 0 14 14" fill="none" xmlns="http://www.w3.org/2000/svg">
<g clip-path="url(#clip0_3978_5499)">
<path d="M13.3732 1.27481H0.627234C0.371024 1.27481 0.163086 1.06037 0.163086 0.796157C0.163086 0.531941 0.371024 0.317505 0.627234 0.317505H13.3732C13.6294 0.317505 13.8373 0.531941 13.8373 0.796157C13.8373 1.06037 13.6294 1.27481 13.3732 1.27481Z" fill="#717171"/>
<path d="M10.2882 5.41061H0.627234C0.371024 5.41061 0.163086 5.19618 0.163086 4.93196C0.163086 4.66774 0.371024 4.45331 0.627234 4.45331H10.2882C10.5444 4.45331 10.7524 4.66774 10.7524 4.93196C10.7524 5.19618 10.5447 5.41061 10.2882 5.41061Z" fill="#717171"/>
<path d="M7.20305 9.54666H0.627234C0.371024 9.54666 0.163086 9.33222 0.163086 9.06801C0.163086 8.80379 0.371024 8.58936 0.627234 8.58936H7.20305C7.45926 8.58936 7.66719 8.80379 7.66719 9.06801C7.66719 9.33222 7.45949 9.54666 7.20305 9.54666Z" fill="#717171"/>
<path d="M4.11809 13.6825H0.627234C0.371024 13.6825 0.163086 13.468 0.163086 13.2038C0.163086 12.9396 0.371024 12.7252 0.627234 12.7252H4.11809C4.3743 12.7252 4.58224 12.9396 4.58224 13.2038C4.58224 13.468 4.37453 13.6825 4.11809 13.6825Z" fill="#717171"/>
</g>
<defs>
<clipPath id="clip0_3978_5499">
<rect width="14" height="14" fill="white"/>
</clipPath>
</defs>
</svg>
