<svg width="22" height="22" viewBox="0 0 22 22" fill="none" xmlns="http://www.w3.org/2000/svg">
<path d="M16.1034 0H5.65031C2.52973 0 0 2.52973 0 5.65031V16.1034C0 19.224 2.52973 21.7537 5.65031 21.7537H16.1034C19.224 21.7537 21.7537 19.224 21.7537 16.1034V5.65031C21.7537 2.52973 19.224 0 16.1034 0Z" fill="#FFFD00"/>
<path d="M18.4932 14.6437C18.4027 14.6325 17.303 14.5415 16.17 13.0795C15.0371 11.6175 15.4786 11.3569 15.5353 11.2209C15.5921 11.085 16.3092 10.8783 16.7705 10.6997C17.4736 10.4273 17.4394 9.9403 17.326 9.67405C17.2125 9.4078 16.748 9.1692 16.1133 9.43967C15.5105 9.69795 15.2742 9.49639 15.2742 9.49639C15.2742 9.49639 15.4238 7.26514 15.3422 6.8217C14.6372 2.89311 10.8769 3.21936 10.8769 3.21936C10.8769 3.21936 7.11659 2.89123 6.41159 6.82311C6.3319 7.26514 6.47956 9.49827 6.47956 9.49827C6.47956 9.49827 6.24518 9.69983 5.64049 9.44155C5.00581 9.1692 4.54127 9.4078 4.42784 9.67592C4.3144 9.94405 4.28065 10.4292 4.98331 10.7015C5.44456 10.8801 6.16221 11.0869 6.21846 11.2228C6.27471 11.3587 6.71721 11.6194 5.58377 13.0814C4.45034 14.5434 3.35112 14.6344 3.26065 14.6456C3.17018 14.6569 2.71643 14.6681 2.71643 14.9737C2.71643 15.2794 2.86596 15.7875 4.70018 16.1072C4.9894 16.1573 4.96081 16.3678 4.96081 16.3678C4.96081 16.3678 4.96081 17.0934 5.34612 17.1614C5.73143 17.2294 6.41159 16.9912 6.92159 17.048C7.43159 17.1047 7.72596 17.0367 8.72346 17.8298C9.72096 18.623 10.8769 18.5798 10.8769 18.5798C10.8769 18.5798 12.0328 18.6267 13.0303 17.8298C14.0278 17.033 14.3222 17.1047 14.8322 17.048C15.3422 16.9912 16.0224 17.228 16.4082 17.16C16.7939 17.092 16.7935 16.3664 16.7935 16.3664C16.7935 16.3664 16.7649 16.1559 17.0541 16.1058C18.8883 15.7861 19.0378 15.2784 19.0378 14.9723C19.0378 14.6662 18.5841 14.655 18.4932 14.6437Z" fill="white"/>
<path d="M10.6678 3.62068C10.7775 3.62068 10.8417 3.62584 10.8417 3.62584L10.8769 3.62865L10.9111 3.62584C10.9111 3.62584 10.9758 3.62068 11.086 3.62068C11.4141 3.62068 12.2728 3.66756 13.0927 4.11287C14.0841 4.64959 14.7057 5.58615 14.941 6.89537C14.9878 7.16631 14.9269 8.56506 14.8674 9.4735L14.8538 9.67787L15.0094 9.81053C15.0563 9.85131 15.2372 9.9835 15.5672 9.9835C15.8115 9.97673 16.0519 9.92077 16.2741 9.81896C16.3931 9.76456 16.522 9.7349 16.6528 9.73178C16.8521 9.73178 16.9402 9.81662 16.9505 9.83631C16.9843 9.90901 16.9888 9.99192 16.9632 10.0679C16.9233 10.1616 16.8028 10.2521 16.6233 10.3215C16.5014 10.3683 16.3547 10.4199 16.2132 10.4696C15.5644 10.6946 15.2832 10.801 15.1692 11.0405L15.1646 11.0471C15.0952 11.1512 14.933 11.394 15.0202 11.8294C15.0989 12.2227 15.3694 12.7135 15.8475 13.3294C16.9388 14.7357 18.0225 15.0005 18.4378 15.0479H18.4425L18.4894 15.0526C18.5428 15.0572 18.5832 15.0629 18.6127 15.0685C18.5822 15.125 18.5385 15.1733 18.4852 15.2091C18.3075 15.346 17.9035 15.5424 16.9852 15.7022C16.5164 15.7843 16.3758 16.1358 16.3861 16.3782C16.3828 16.5212 16.3458 16.6941 16.306 16.7607H16.2492C16.0797 16.7532 15.9108 16.7339 15.7439 16.703C15.4988 16.6597 15.2508 16.6352 15.0019 16.6299C14.9297 16.6297 14.8576 16.6334 14.7858 16.6412C14.7314 16.6472 14.6766 16.6519 14.6241 16.6566C14.0972 16.7035 13.6838 16.786 12.7749 17.5093C11.9855 18.1374 11.0831 18.1693 10.9107 18.1693H10.8403C10.6678 18.1693 9.76549 18.1374 8.97612 17.5093C8.06721 16.786 7.65377 16.7021 7.1269 16.6566C7.0744 16.6519 7.02002 16.6472 6.96518 16.6412C6.89341 16.6334 6.82127 16.6297 6.74909 16.6299C6.50109 16.6365 6.25396 16.662 6.00987 16.7063C5.84297 16.7372 5.67412 16.7564 5.50456 16.764H5.44784C5.40799 16.6974 5.37049 16.524 5.36721 16.3815C5.38034 16.1396 5.23737 15.7876 4.76862 15.7055C3.84987 15.5457 3.44581 15.3493 3.26862 15.2124C3.21584 15.1764 3.17257 15.1282 3.14252 15.0718C3.18334 15.0645 3.22448 15.0592 3.26581 15.0558L3.31268 15.0512H3.31784C3.73315 15.0043 4.81784 14.7408 5.90815 13.3327C6.38627 12.7163 6.65815 12.2255 6.73549 11.8327C6.82268 11.3972 6.66049 11.1544 6.59112 11.0504L6.58643 11.0438C6.47252 10.8047 6.19268 10.6983 5.54252 10.471C5.4019 10.4213 5.25424 10.3697 5.13237 10.3229C4.95284 10.2535 4.83237 10.163 4.79252 10.0693C4.76689 9.99384 4.77125 9.91143 4.80471 9.83912C4.81549 9.81803 4.90362 9.73318 5.10284 9.73318C5.23369 9.7363 5.36254 9.76596 5.48159 9.82037C5.70376 9.92217 5.94417 9.97813 6.18846 9.9849C6.51659 9.9849 6.69893 9.85271 6.74627 9.81193L6.9019 9.67928L6.88831 9.4749C6.82877 8.56881 6.76643 7.17006 6.81471 6.89678C7.04909 5.58709 7.67159 4.651 8.66299 4.11428C9.48284 3.6699 10.3397 3.62209 10.6697 3.62209M11.086 3.2124C10.9528 3.2124 10.8769 3.21943 10.8769 3.21943C10.8769 3.21943 10.8005 3.2124 10.6678 3.2124C9.86815 3.2124 7.01627 3.4524 6.41159 6.82178C6.3319 7.26381 6.47956 9.49693 6.47956 9.49693C6.47956 9.49693 6.3919 9.57193 6.18659 9.57193C5.99755 9.5652 5.81181 9.5204 5.64049 9.44022C5.47072 9.36377 5.28713 9.32277 5.10096 9.31975C4.74987 9.31975 4.50565 9.4899 4.42784 9.67272C4.3144 9.93897 4.28065 10.426 4.98331 10.6983C5.44456 10.8769 6.16221 11.0837 6.21846 11.2196C6.27471 11.3555 6.71721 11.6162 5.58377 13.0782C4.45034 14.5402 3.35112 14.6312 3.26065 14.6424C3.17018 14.6537 2.71643 14.6649 2.71643 14.9705C2.71643 15.2762 2.86596 15.7843 4.70018 16.104C4.9894 16.1541 4.96081 16.3646 4.96081 16.3646C4.96081 16.3646 4.96081 17.0902 5.34612 17.1582C5.39896 17.1668 5.45243 17.1708 5.50596 17.1704C5.85237 17.1704 6.33659 17.0358 6.75049 17.0358C6.80764 17.0357 6.86476 17.0387 6.92159 17.0447C7.43159 17.1015 7.72596 17.0335 8.72346 17.8266C9.61831 18.5387 10.6416 18.5766 10.8417 18.5766H10.9121C11.1122 18.5766 12.135 18.5401 13.0303 17.8266C14.0278 17.0335 14.3222 17.1015 14.8322 17.0447C14.889 17.0387 14.9462 17.0357 15.0033 17.0358C15.4172 17.0358 15.9014 17.1704 16.2478 17.1704C16.3014 17.1709 16.3548 17.1668 16.4077 17.1582C16.793 17.0902 16.793 16.3646 16.793 16.3646C16.793 16.3646 16.7644 16.1541 17.0536 16.104C18.8878 15.7843 19.0374 15.2766 19.0374 14.9705C19.0374 14.6644 18.5841 14.6532 18.4932 14.6424C18.4022 14.6316 17.303 14.5402 16.17 13.0782C15.0371 11.6162 15.4786 11.3555 15.5353 11.2196C15.5921 11.0837 16.3092 10.8769 16.7705 10.6983C17.4736 10.426 17.4394 9.93897 17.326 9.67272C17.2481 9.4899 17.0039 9.31975 16.6528 9.31975C16.4667 9.32277 16.2831 9.36377 16.1133 9.44022C15.942 9.5204 15.7563 9.5652 15.5672 9.57193C15.3619 9.57193 15.2742 9.49693 15.2742 9.49693C15.2742 9.49693 15.4238 7.26521 15.3422 6.82178C14.7375 3.45146 11.8856 3.2124 11.086 3.2124Z" fill="black"/>
</svg>
