<svg width="34" height="34" viewBox="0 0 34 34" fill="none" xmlns="http://www.w3.org/2000/svg">
<path d="M21.7356 12.2644C21.5363 12.0653 21.2661 11.9534 20.9844 11.9534C20.7026 11.9534 20.4324 12.0653 20.2332 12.2644L12.2644 20.2332C12.163 20.3312 12.082 20.4484 12.0263 20.5781C11.9706 20.7077 11.9413 20.8471 11.9401 20.9882C11.9389 21.1293 11.9658 21.2692 12.0192 21.3998C12.0726 21.5303 12.1515 21.649 12.2513 21.7487C12.351 21.8485 12.4697 21.9274 12.6002 21.9808C12.7308 22.0342 12.8707 22.0611 13.0118 22.0599C13.1529 22.0587 13.2923 22.0294 13.4219 21.9737C13.5516 21.918 13.6688 21.837 13.7668 21.7356L21.7356 13.7668C21.9348 13.5676 22.0466 13.2974 22.0466 13.0156C22.0466 12.7339 21.9348 12.4637 21.7356 12.2644ZM17 12.75C17 12.1196 16.8131 11.5033 16.4628 10.9791C16.1126 10.4549 15.6147 10.0464 15.0323 9.80514C14.4499 9.56388 13.809 9.50076 13.1907 9.62375C12.5723 9.74674 12.0044 10.0503 11.5586 10.4961C11.1128 10.9419 10.8092 11.5098 10.6862 12.1282C10.5633 12.7465 10.6264 13.3874 10.8676 13.9698C11.1089 14.5522 11.5174 15.0501 12.0416 15.4003C12.5658 15.7506 13.1821 15.9375 13.8125 15.9375C14.6579 15.9375 15.4686 15.6017 16.0664 15.0039C16.6642 14.4061 17 13.5954 17 12.75ZM12.75 12.75C12.75 12.5399 12.8123 12.3344 12.9291 12.1597C13.0458 11.985 13.2118 11.8488 13.4059 11.7684C13.6 11.688 13.8137 11.6669 14.0198 11.7079C14.2259 11.7489 14.4152 11.8501 14.5638 11.9987C14.7124 12.1473 14.8136 12.3366 14.8546 12.5427C14.8956 12.7488 14.8745 12.9625 14.7941 13.1566C14.7137 13.3507 14.5775 13.5167 14.4028 13.6334C14.2281 13.7502 14.0226 13.8125 13.8125 13.8125C13.5307 13.8125 13.2605 13.7006 13.0612 13.5013C12.8619 13.302 12.75 13.0318 12.75 12.75ZM20.1875 18.0625C19.5571 18.0625 18.9408 18.2494 18.4166 18.5997C17.8924 18.9499 17.4839 19.4478 17.2426 20.0302C17.0014 20.6126 16.9383 21.2535 17.0612 21.8719C17.1842 22.4902 17.4878 23.0581 17.9336 23.5039C18.3794 23.9497 18.9473 24.2533 19.5657 24.3763C20.184 24.4992 20.8249 24.4361 21.4073 24.1949C21.9897 23.9536 22.4876 23.5451 22.8378 23.0209C23.1881 22.4967 23.375 21.8804 23.375 21.25C23.375 20.4046 23.0392 19.5939 22.4414 18.9961C21.8436 18.3983 21.0329 18.0625 20.1875 18.0625ZM20.1875 22.3125C19.9774 22.3125 19.7719 22.2502 19.5972 22.1334C19.4225 22.0167 19.2863 21.8507 19.2059 21.6566C19.1255 21.4625 19.1044 21.2488 19.1454 21.0427C19.1864 20.8366 19.2876 20.6473 19.4362 20.4987C19.5848 20.3501 19.7741 20.2489 19.9802 20.2079C20.1863 20.1669 20.4 20.188 20.5941 20.2684C20.7882 20.3488 20.9542 20.485 21.0709 20.6597C21.1877 20.8344 21.25 21.0399 21.25 21.25C21.25 21.5318 21.1381 21.802 20.9388 22.0013C20.7395 22.2006 20.4693 22.3125 20.1875 22.3125Z" fill="#1D36D9"/>
<path d="M30.5233 13.9952L29.3099 12.7808C29.1119 12.584 28.9549 12.3499 28.848 12.092C28.7412 11.8341 28.6865 11.5576 28.6873 11.2784V9.56249C28.6873 8.43532 28.2395 7.35432 27.4425 6.55729C26.6454 5.76026 25.5644 5.31249 24.4373 5.31249H22.7213C22.4422 5.31325 22.1656 5.2586 21.9078 5.15173C21.6499 5.04485 21.4158 4.88787 21.219 4.68986L20.0045 3.47649C19.2075 2.67974 18.1267 2.23215 16.9998 2.23215C15.8728 2.23215 14.792 2.67974 13.995 3.47649L12.7806 4.68986C12.5838 4.88787 12.3497 5.04485 12.0918 5.15173C11.8339 5.2586 11.5574 5.31325 11.2782 5.31249H9.56228C8.43511 5.31249 7.3541 5.76026 6.55707 6.55729C5.76004 7.35432 5.31228 8.43532 5.31228 9.56249V11.2784C5.31303 11.5576 5.25839 11.8341 5.15151 12.092C5.04464 12.3499 4.88765 12.584 4.68965 12.7808L3.47628 13.9952C2.67952 14.7922 2.23193 15.873 2.23193 17C2.23193 18.1269 2.67952 19.2077 3.47628 20.0047L4.68965 21.2192C4.88765 21.416 5.04464 21.6501 5.15151 21.908C5.25839 22.1659 5.31303 22.4424 5.31228 22.7216V24.4375C5.31228 25.5647 5.76004 26.6457 6.55707 27.4427C7.3541 28.2397 8.43511 28.6875 9.56228 28.6875H11.2782C11.5574 28.6867 11.8339 28.7414 12.0918 28.8483C12.3497 28.9551 12.5838 29.1121 12.7806 29.3101L13.995 30.5235C14.792 31.3202 15.8728 31.7678 16.9998 31.7678C18.1267 31.7678 19.2075 31.3202 20.0045 30.5235L21.219 29.3101C21.4158 29.1121 21.6499 28.9551 21.9078 28.8483C22.1656 28.7414 22.4422 28.6867 22.7213 28.6875H24.4373C25.5644 28.6875 26.6454 28.2397 27.4425 27.4427C28.2395 26.6457 28.6873 25.5647 28.6873 24.4375V22.7216C28.6865 22.4424 28.7412 22.1659 28.848 21.908C28.9549 21.6501 29.1119 21.416 29.3099 21.2192L30.5233 20.0047C31.32 19.2077 31.7676 18.1269 31.7676 17C31.7676 15.873 31.32 14.7922 30.5233 13.9952ZM29.0209 18.5024L27.8075 19.7168C27.4114 20.1103 27.0973 20.5785 26.8836 21.0943C26.6698 21.6101 26.5606 22.1632 26.5623 22.7216V24.4375C26.5623 25.0011 26.3384 25.5416 25.9399 25.9401C25.5414 26.3386 25.0009 26.5625 24.4373 26.5625H22.7213C22.163 26.561 21.61 26.6703 21.0942 26.8841C20.5784 27.0978 20.1102 27.4118 19.7166 27.8077L18.5022 29.0211C18.1037 29.4195 17.5633 29.6433 16.9998 29.6433C16.4363 29.6433 15.8959 29.4195 15.4974 29.0211L14.284 27.8077C13.8901 27.4119 13.4217 27.098 12.9057 26.8843C12.3898 26.6706 11.8367 26.5612 11.2782 26.5625H9.56228C8.99869 26.5625 8.45819 26.3386 8.05967 25.9401C7.66116 25.5416 7.43728 25.0011 7.43728 24.4375V22.7216C7.43873 22.1632 7.32942 21.6102 7.11567 21.0944C6.90192 20.5787 6.58798 20.1104 6.19203 19.7168L4.97865 18.5024C4.58027 18.1039 4.35648 17.5635 4.35648 17C4.35648 16.4365 4.58027 15.8961 4.97865 15.4976L6.19203 14.2842C6.58787 13.8903 6.90173 13.4219 7.11546 12.906C7.3292 12.39 7.43858 11.8369 7.43728 11.2784V9.56249C7.43728 8.9989 7.66116 8.4584 8.05967 8.05989C8.45819 7.66137 8.99869 7.43749 9.56228 7.43749H11.2782C11.8365 7.43894 12.3896 7.32963 12.9053 7.11588C13.4211 6.90213 13.8894 6.58819 14.283 6.19224L15.4974 4.97886C15.8959 4.58049 16.4363 4.35669 16.9998 4.35669C17.5633 4.35669 18.1037 4.58049 18.5022 4.97886L19.7155 6.19224C20.1094 6.58808 20.5779 6.90194 21.0938 7.11568C21.6097 7.32941 22.1629 7.43879 22.7213 7.43749H24.4373C25.0009 7.43749 25.5414 7.66137 25.9399 8.05989C26.3384 8.4584 26.5623 8.9989 26.5623 9.56249V11.2784C26.5608 11.8367 26.6701 12.3898 26.8839 12.9056C27.0976 13.4213 27.4116 13.8896 27.8075 14.2832L29.0209 15.4976C29.4193 15.8961 29.6431 16.4365 29.6431 17C29.6431 17.5635 29.4193 18.1039 29.0209 18.5024Z" fill="#1D36D9"/>
</svg>
