<svg width="34" height="34" viewBox="0 0 34 34" fill="none" xmlns="http://www.w3.org/2000/svg">
<path d="M21.7356 12.2644C21.5363 12.0653 21.2661 11.9534 20.9844 11.9534C20.7026 11.9534 20.4324 12.0653 20.2332 12.2644L12.2644 20.2332C12.163 20.3312 12.082 20.4484 12.0263 20.5781C11.9706 20.7077 11.9413 20.8471 11.9401 20.9882C11.9389 21.1293 11.9658 21.2692 12.0192 21.3998C12.0726 21.5303 12.1515 21.649 12.2513 21.7487C12.351 21.8485 12.4697 21.9274 12.6002 21.9808C12.7308 22.0342 12.8707 22.0611 13.0118 22.0599C13.1529 22.0587 13.2923 22.0294 13.4219 21.9737C13.5516 21.918 13.6688 21.837 13.7668 21.7356L21.7356 13.7668C21.9348 13.5676 22.0466 13.2974 22.0466 13.0156C22.0466 12.7339 21.9348 12.4637 21.7356 12.2644ZM17 12.75C17 12.1196 16.8131 11.5033 16.4628 10.9791C16.1126 10.4549 15.6147 10.0464 15.0323 9.80514C14.4499 9.56388 13.809 9.50076 13.1907 9.62375C12.5723 9.74674 12.0044 10.0503 11.5586 10.4961C11.1128 10.9419 10.8092 11.5098 10.6862 12.1282C10.5633 12.7465 10.6264 13.3874 10.8676 13.9698C11.1089 14.5522 11.5174 15.0501 12.0416 15.4003C12.5658 15.7506 13.1821 15.9375 13.8125 15.9375C14.6579 15.9375 15.4686 15.6017 16.0664 15.0039C16.6642 14.4061 17 13.5954 17 12.75ZM12.75 12.75C12.75 12.5399 12.8123 12.3344 12.9291 12.1597C13.0458 11.985 13.2118 11.8488 13.4059 11.7684C13.6 11.688 13.8137 11.6669 14.0198 11.7079C14.2259 11.7489 14.4152 11.8501 14.5638 11.9987C14.7124 12.1473 14.8136 12.3366 14.8546 12.5427C14.8956 12.7488 14.8745 12.9625 14.7941 13.1566C14.7137 13.3507 14.5775 13.5167 14.4028 13.6334C14.2281 13.7502 14.0226 13.8125 13.8125 13.8125C13.5307 13.8125 13.2605 13.7006 13.0612 13.5013C12.8619 13.302 12.75 13.0318 12.75 12.75ZM20.1875 18.0625C19.5571 18.0625 18.9408 18.2494 18.4166 18.5997C17.8924 18.9499 17.4839 19.4478 17.2426 20.0302C17.0014 20.6126 16.9383 21.2535 17.0612 21.8719C17.1842 22.4902 17.4878 23.0581 17.9336 23.5039C18.3794 23.9497 18.9473 24.2533 19.5657 24.3763C20.184 24.4992 20.8249 24.4361 21.4073 24.1949C21.9897 23.9536 22.4876 23.5451 22.8378 23.0209C23.1881 22.4967 23.375 21.8804 23.375 21.25C23.375 20.4046 23.0392 19.5939 22.4414 18.9961C21.8436 18.3983 21.0329 18.0625 20.1875 18.0625ZM20.1875 22.3125C19.9774 22.3125 19.7719 22.2502 19.5972 22.1334C19.4225 22.0167 19.2863 21.8507 19.2059 21.6566C19.1255 21.4625 19.1044 21.2488 19.1454 21.0427C19.1864 20.8366 19.2876 20.6473 19.4362 20.4987C19.5848 20.3501 19.7741 20.2489 19.9802 20.2079C20.1863 20.1669 20.4 20.188 20.5941 20.2684C20.7882 20.3488 20.9542 20.485 21.0709 20.6597C21.1877 20.8344 21.25 21.0399 21.25 21.25C21.25 21.5318 21.1381 21.802 20.9388 22.0013C20.7395 22.2006 20.4693 22.3125 20.1875 22.3125Z" fill="#00BB16"/>
<path d="M30.5238 13.9953L29.3104 12.7808C29.1124 12.584 28.9554 12.3499 28.8485 12.092C28.7416 11.8341 28.687 11.5576 28.6878 11.2785V9.56252C28.6878 8.43535 28.24 7.35435 27.443 6.55732C26.6459 5.76029 25.5649 5.31252 24.4378 5.31252H22.7218C22.4427 5.31328 22.1661 5.25863 21.9082 5.15176C21.6504 5.04488 21.4162 4.8879 21.2195 4.6899L20.005 3.47652C19.208 2.67977 18.1272 2.23218 17.0003 2.23218C15.8733 2.23218 14.7925 2.67977 13.9955 3.47652L12.7811 4.6899C12.5843 4.8879 12.3502 5.04488 12.0923 5.15176C11.8344 5.25863 11.5579 5.31328 11.2787 5.31252H9.56276C8.43559 5.31252 7.35459 5.76029 6.55756 6.55732C5.76053 7.35435 5.31276 8.43535 5.31276 9.56252V11.2785C5.31352 11.5576 5.25888 11.8341 5.152 12.092C5.04512 12.3499 4.88814 12.584 4.69014 12.7808L3.47676 13.9953C2.68001 14.7923 2.23242 15.8731 2.23242 17C2.23242 18.127 2.68001 19.2078 3.47676 20.0048L4.69014 21.2192C4.88814 21.416 5.04512 21.6501 5.152 21.908C5.25888 22.1659 5.31352 22.4424 5.31276 22.7216V24.4375C5.31276 25.5647 5.76053 26.6457 6.55756 27.4427C7.35459 28.2398 8.43559 28.6875 9.56276 28.6875H11.2787C11.5579 28.6868 11.8344 28.7414 12.0923 28.8483C12.3502 28.9552 12.5843 29.1121 12.7811 29.3101L13.9955 30.5235C14.7925 31.3203 15.8733 31.7679 17.0003 31.7679C18.1272 31.7679 19.208 31.3203 20.005 30.5235L21.2195 29.3101C21.4162 29.1121 21.6504 28.9552 21.9082 28.8483C22.1661 28.7414 22.4427 28.6868 22.7218 28.6875H24.4378C25.5649 28.6875 26.6459 28.2398 27.443 27.4427C28.24 26.6457 28.6878 25.5647 28.6878 24.4375V22.7216C28.687 22.4424 28.7416 22.1659 28.8485 21.908C28.9554 21.6501 29.1124 21.416 29.3104 21.2192L30.5238 20.0048C31.3205 19.2078 31.7681 18.127 31.7681 17C31.7681 15.8731 31.3205 14.7923 30.5238 13.9953ZM29.0214 18.5024L27.808 19.7168C27.4119 20.1103 27.0978 20.5785 26.884 21.0943C26.6703 21.6101 26.5611 22.1632 26.5628 22.7216V24.4375C26.5628 25.0011 26.3389 25.5416 25.9404 25.9401C25.5419 26.3386 25.0013 26.5625 24.4378 26.5625H22.7218C22.1635 26.5611 21.6105 26.6704 21.0947 26.8841C20.5789 27.0979 20.1107 27.4118 19.7171 27.8078L18.5026 29.0211C18.1041 29.4195 17.5637 29.6433 17.0003 29.6433C16.4368 29.6433 15.8964 29.4195 15.4979 29.0211L14.2845 27.8078C13.8906 27.4119 13.4222 27.0981 12.9062 26.8843C12.3903 26.6706 11.8371 26.5612 11.2787 26.5625H9.56276C8.99918 26.5625 8.45868 26.3386 8.06016 25.9401C7.66165 25.5416 7.43776 25.0011 7.43776 24.4375V22.7216C7.43922 22.1633 7.32991 21.6102 7.11616 21.0945C6.90241 20.5787 6.58847 20.1104 6.19251 19.7168L4.97914 18.5024C4.58076 18.1039 4.35697 17.5635 4.35697 17C4.35697 16.4365 4.58076 15.8961 4.97914 15.4976L6.19251 14.2843C6.58836 13.8904 6.90221 13.4219 7.11595 12.906C7.32969 12.3901 7.43906 11.8369 7.43776 11.2785V9.56252C7.43776 8.99894 7.66165 8.45843 8.06016 8.05992C8.45868 7.6614 8.99918 7.43752 9.56276 7.43752H11.2787C11.837 7.43897 12.3901 7.32966 12.9058 7.11591C13.4216 6.90216 13.8898 6.58822 14.2835 6.19227L15.4979 4.97889C15.8964 4.58052 16.4368 4.35672 17.0003 4.35672C17.5637 4.35672 18.1041 4.58052 18.5026 4.97889L19.716 6.19227C20.1099 6.58811 20.5784 6.90197 21.0943 7.11571C21.6102 7.32944 22.1634 7.43882 22.7218 7.43752H24.4378C25.0013 7.43752 25.5419 7.6614 25.9404 8.05992C26.3389 8.45843 26.5628 8.99894 26.5628 9.56252V11.2785C26.5613 11.8368 26.6706 12.3898 26.8844 12.9056C27.0981 13.4214 27.4121 13.8896 27.808 14.2832L29.0214 15.4976C29.4198 15.8961 29.6436 16.4365 29.6436 17C29.6436 17.5635 29.4198 18.1039 29.0214 18.5024Z" fill="#00BB16"/>
</svg>
