<svg width="31" height="30" viewBox="0 0 31 30" fill="none" xmlns="http://www.w3.org/2000/svg">
<path fill-rule="evenodd" clip-rule="evenodd" d="M24.8345 28.125H5.73069C5.22403 28.125 4.73811 27.9275 4.37985 27.5759C4.02158 27.2242 3.82031 26.7473 3.82031 26.25V17.8125C3.82031 17.3153 4.02158 16.8383 4.37985 16.4867C4.73811 16.1351 5.22403 15.9375 5.73069 15.9375H10.8247V15C10.8247 14.5028 11.026 14.0258 11.3842 13.6742C11.7425 13.3226 12.2284 13.125 12.7351 13.125H17.8301V11.25C17.8301 10.7528 18.0313 10.2758 18.3896 9.92421C18.7479 9.57258 19.2338 9.37504 19.7404 9.37504H24.8345C25.3411 9.37504 25.827 9.57258 26.1853 9.92421C26.5436 10.2758 26.7448 10.7528 26.7448 11.25V26.25C26.7448 26.7473 26.5436 27.2242 26.1853 27.5759C25.827 27.9275 25.3411 28.125 24.8345 28.125ZM10.8247 17.8125H5.73069V26.25H10.8247V17.8125ZM17.8301 15H12.7351V26.25H17.8301V15ZM19.7404 26.25H24.8345V11.25H19.7404V14.0625V26.25ZM18.1348 5.27066C14.5404 10.4719 7.87795 12.1585 7.87795 12.1585C7.63248 12.2201 7.37209 12.1836 7.15409 12.0568C7.04614 11.994 6.95185 11.911 6.8766 11.8125C6.80134 11.714 6.7466 11.6018 6.71549 11.4825C6.68438 11.3632 6.67752 11.2391 6.69529 11.1172C6.71307 10.9953 6.75513 10.878 6.81908 10.7721C6.94824 10.5581 7.1587 10.4033 7.40418 10.3416C7.40418 10.3416 13.7485 8.76379 16.85 3.76598L14.9712 3.75004C14.7179 3.7478 14.4758 3.64688 14.2983 3.46948C14.1208 3.29209 14.0223 3.05274 14.0246 2.8041C14.0269 2.55546 14.1297 2.31789 14.3104 2.14366C14.4912 1.96943 14.735 1.8728 14.9884 1.87504L19.0766 1.91066C19.3271 1.91238 19.5669 2.01082 19.744 2.18468C19.9211 2.35854 20.0214 2.59385 20.0232 2.83973L20.0585 6.75941C20.0608 7.00805 19.9624 7.2474 19.7848 7.4248C19.6073 7.60219 19.3653 7.70311 19.1119 7.70535C18.8586 7.70759 18.6147 7.61096 18.434 7.43673C18.2532 7.2625 18.1504 7.02493 18.1481 6.77629L18.1348 5.27066Z" fill="#1D36D9"/>
</svg>
