<svg width="17" height="17" viewBox="0 0 17 17" fill="none" xmlns="http://www.w3.org/2000/svg">
<path d="M6.16234 5.45418L7.7915 3.82501V10.625C7.7915 11.05 8.07484 11.3333 8.49984 11.3333C8.92484 11.3333 9.20817 11.05 9.20817 10.625V3.82501L10.8373 5.45418C11.1207 5.73751 11.5457 5.73751 11.829 5.45418C12.1123 5.17085 12.1123 4.74585 11.829 4.46251L8.99567 1.62918C8.92484 1.55835 8.854 1.48751 8.78317 1.48751C8.6415 1.41668 8.429 1.41668 8.2165 1.48751C8.14567 1.48751 8.07484 1.55835 8.004 1.62918L5.17067 4.46251C4.88734 4.74585 4.88734 5.17085 5.17067 5.45418C5.454 5.73751 5.879 5.73751 6.16234 5.45418ZM14.8748 9.91668C14.4498 9.91668 14.1665 10.2 14.1665 10.625V13.4583C14.1665 13.8833 13.8832 14.1667 13.4582 14.1667H3.5415C3.1165 14.1667 2.83317 13.8833 2.83317 13.4583V10.625C2.83317 10.2 2.54984 9.91668 2.12484 9.91668C1.69984 9.91668 1.4165 10.2 1.4165 10.625V13.4583C1.4165 14.6625 2.33734 15.5833 3.5415 15.5833H13.4582C14.6623 15.5833 15.5832 14.6625 15.5832 13.4583V10.625C15.5832 10.2 15.2998 9.91668 14.8748 9.91668Z" fill="white"/>
</svg>
