<svg width="24" height="24" viewBox="0 0 24 24" fill="none" xmlns="http://www.w3.org/2000/svg">
<path fill-rule="evenodd" clip-rule="evenodd" d="M13.6115 0.42849C13.0023 0.146239 12.3385 0 11.6667 0C10.9948 0 10.3311 0.146239 9.72186 0.42849L2.6676 3.69729C1.87083 4.06644 1.19647 4.65467 0.723883 5.39276C0.251297 6.13085 0.000150965 6.98808 0 7.86357V15.449C9.35895e-05 16.331 0.254939 17.1943 0.734113 17.936C1.21329 18.6776 1.89655 19.2662 2.70233 19.6315L9.75659 22.83C10.3564 23.1019 11.0077 23.2425 11.6667 23.2425C12.3256 23.2425 12.9769 23.1019 13.5767 22.83L20.631 19.6315C21.4368 19.2662 22.12 18.6776 22.5992 17.936C23.0784 17.1943 23.3332 16.331 23.3333 15.449V7.86357C23.3332 6.98808 23.082 6.13085 22.6095 5.39276C22.1369 4.65467 21.4625 4.06644 20.6657 3.69729L13.6115 0.42849ZM10.4088 1.89907C10.803 1.71645 11.2325 1.62183 11.6672 1.62183C12.1019 1.62183 12.5314 1.71645 12.9256 1.89907L19.9798 5.16787C20.4867 5.40251 20.9067 5.76907 21.204 6.21457L17.9699 7.74138L8.13085 2.95443L10.4088 1.89907ZM6.23054 3.83461L3.35349 5.16895C2.85584 5.3988 2.43149 5.76099 2.12713 6.21566L11.6667 10.7161L16.0881 8.62914L6.23054 3.83461ZM1.62791 7.7749L10.8527 12.1283V21.5097C10.7079 21.4688 10.5665 21.4171 10.4295 21.3551L3.37519 18.1566C2.85381 17.9202 2.41172 17.5393 2.1017 17.0594C1.79168 16.5794 1.62683 16.0208 1.62682 15.45V7.86357L1.62791 7.7749ZM12.4806 21.5086C12.6246 21.468 12.7654 21.4167 12.9017 21.3551L19.956 18.1566C20.4773 17.9202 20.9194 17.5393 21.2295 17.0594C21.5395 16.5794 21.7043 16.0208 21.7043 15.45V7.86357L21.7033 7.77382L12.4795 12.1261L12.4806 21.5086Z" fill="#B0B552"/>
</svg>
