<svg width="25" height="25" viewBox="0 0 25 25" fill="none" xmlns="http://www.w3.org/2000/svg">
<path d="M12.3653 24.9995C12.188 24.9994 12.0155 24.9415 11.8732 24.8345C11.731 24.7275 11.6266 24.577 11.5756 24.4053L6.62947 7.73901C6.58675 7.59488 6.58342 7.44176 6.61984 7.29587C6.65625 7.14998 6.73104 7.01678 6.83629 6.91039C6.94154 6.804 7.07331 6.72839 7.21762 6.69158C7.36194 6.65478 7.51342 6.65814 7.656 6.70133L24.1431 11.7012C24.293 11.7467 24.4269 11.8344 24.5294 11.9539C24.6319 12.0734 24.6987 12.2198 24.722 12.3762C24.7451 12.5327 24.7237 12.6925 24.6603 12.8371C24.5968 12.9817 24.494 13.1051 24.3639 13.1929L20.2546 15.9622L24.4896 20.2436C24.5662 20.3209 24.6269 20.4127 24.6684 20.5138C24.7098 20.6149 24.7312 20.7233 24.7312 20.8327C24.7312 20.9421 24.7098 21.0505 24.6684 21.1516C24.6269 21.2527 24.5662 21.3445 24.4896 21.4219L21.1921 24.7551C21.1156 24.8326 21.0248 24.894 20.9248 24.9359C20.8248 24.9778 20.7176 24.9994 20.6093 24.9994C20.5011 24.9994 20.3939 24.9778 20.2939 24.9359C20.1939 24.894 20.103 24.8326 20.0265 24.7551L15.7912 20.4742L13.0516 24.6281C12.9763 24.7423 12.8743 24.836 12.7545 24.9007C12.6348 24.9655 12.5011 24.9995 12.3653 24.9995ZM15.6628 18.333C15.8806 18.333 16.0902 18.4201 16.2456 18.5771L20.6089 22.9879L22.7405 20.8329L18.3774 16.4222C18.2911 16.335 18.225 16.2296 18.1838 16.1135C18.1427 15.9974 18.1277 15.8735 18.1397 15.7507C18.1517 15.628 18.1906 15.5095 18.2534 15.4038C18.3162 15.2981 18.4015 15.2078 18.5031 15.1395L21.9914 12.7889L8.64915 8.74274L12.6518 22.23L14.9771 18.7038C15.0523 18.5897 15.1543 18.4961 15.2739 18.4314C15.3935 18.3667 15.5271 18.3329 15.6628 18.333ZM4.7046 4.75574C4.7812 4.6784 4.84196 4.58656 4.88342 4.48547C4.92488 4.38438 4.94622 4.27602 4.94622 4.16658C4.94622 4.05715 4.92488 3.94879 4.88342 3.8477C4.84196 3.7466 4.7812 3.65476 4.7046 3.57743L3.05589 1.9108C2.73377 1.58518 2.21216 1.58518 1.89025 1.9108C1.56834 2.23641 1.56813 2.76369 1.89025 3.08911L3.53896 4.75574C3.69992 4.91844 3.91075 4.9999 4.12178 4.9999C4.33282 4.9999 4.54365 4.91844 4.7046 4.75574ZM4.12178 7.49985C4.12178 7.27884 4.03493 7.06688 3.88033 6.91061C3.72574 6.75433 3.51606 6.66653 3.29743 6.66653H0.824356C0.605723 6.66653 0.396045 6.75433 0.241448 6.91061C0.0868515 7.06688 0 7.27884 0 7.49985C0 7.72086 0.0868515 7.93282 0.241448 8.0891C0.396045 8.24537 0.605723 8.33317 0.824356 8.33317H3.29743C3.51606 8.33317 3.72574 8.24537 3.88033 8.0891C4.03493 7.93282 4.12178 7.72086 4.12178 7.49985ZM3.05589 13.0889L4.7046 11.4223C5.02672 11.0967 5.02672 10.5694 4.7046 10.244C4.38248 9.91855 3.86087 9.91834 3.53896 10.244L1.89025 11.9106C1.81365 11.9879 1.75289 12.0798 1.71143 12.1809C1.66997 12.282 1.64863 12.3903 1.64863 12.4998C1.64863 12.6092 1.66997 12.7175 1.71143 12.8186C1.75289 12.9197 1.81365 13.0116 1.89025 13.0889C2.0512 13.2516 2.26203 13.3331 2.47307 13.3331C2.6841 13.3331 2.89493 13.2516 3.05589 13.0889ZM11.2995 4.75574L12.9482 3.08911C13.2703 2.76349 13.2703 2.23621 12.9482 1.9108C12.626 1.58539 12.1044 1.58518 11.7825 1.9108L10.1338 3.57743C10.0572 3.65476 9.99645 3.7466 9.95499 3.8477C9.91353 3.94879 9.8922 4.05715 9.8922 4.16658C9.8922 4.27602 9.91353 4.38438 9.95499 4.48547C9.99645 4.58656 10.0572 4.6784 10.1338 4.75574C10.2948 4.91844 10.5056 4.9999 10.7166 4.9999C10.9277 4.9999 11.1385 4.91844 11.2995 4.75574ZM8.24356 3.33327V0.833317C8.24356 0.612307 8.15671 0.40035 8.00211 0.244073C7.84752 0.0877956 7.63784 0 7.41921 0C7.20057 0 6.9909 0.0877956 6.8363 0.244073C6.6817 0.40035 6.59485 0.612307 6.59485 0.833317V3.33327C6.59485 3.55428 6.6817 3.76623 6.8363 3.92251C6.9909 4.07879 7.20057 4.16658 7.41921 4.16658C7.63784 4.16658 7.84752 4.07879 8.00211 3.92251C8.15671 3.76623 8.24356 3.55428 8.24356 3.33327Z" fill="#FF7614"/>
</svg>
