<svg width="22" height="22" viewBox="0 0 22 22" fill="none" xmlns="http://www.w3.org/2000/svg">
<path d="M16.1873 0H5.63297C2.52197 0 0 2.52197 0 5.63297V16.1873C0 19.2983 2.52197 21.8203 5.63297 21.8203H16.1873C19.2983 21.8203 21.8203 19.2983 21.8203 16.1873V5.63297C21.8203 2.52197 19.2983 0 16.1873 0Z" fill="url(#paint0_linear_2364_14989)"/>
<path d="M10.9102 2.98413C9.54737 2.98436 8.20864 3.34351 7.0287 4.02544C5.84876 4.70737 4.86922 5.68803 4.18865 6.86876C3.50808 8.04949 3.15047 9.38863 3.15181 10.7515C3.15315 12.1143 3.51339 13.4527 4.19629 14.6321L3.1416 18.6694L7.24551 17.5824C8.28535 18.1393 9.43848 18.4518 10.6172 18.4962C11.796 18.5405 12.9693 18.3154 14.0481 17.8381C15.1268 17.3608 16.0825 16.6439 16.8425 15.7418C17.6025 14.8396 18.1468 13.7761 18.434 12.632C18.7212 11.4879 18.7437 10.2934 18.4999 9.13926C18.2561 7.98514 17.7524 6.9018 17.027 5.97162C16.3016 5.04144 15.3737 4.2889 14.3137 3.77122C13.2538 3.25354 12.0898 2.98436 10.9102 2.98413ZM15.473 15.3062C14.4312 16.3474 13.0647 17.0011 11.6003 17.159C10.1359 17.3168 8.66148 16.9692 7.42176 16.1738L5.0377 16.8062L5.64707 14.4774C4.93518 13.4742 4.52487 12.2884 4.46447 11.0597C4.40408 9.83107 4.69611 8.61074 5.30617 7.54253C5.91623 6.47432 6.8189 5.60272 7.90782 5.03045C8.99674 4.45817 10.2265 4.20905 11.4523 4.31243C12.6781 4.41582 13.8488 4.86741 14.8265 5.61399C15.8042 6.36057 16.5481 7.37104 16.9706 8.52635C17.3932 9.68165 17.4767 10.9336 17.2113 12.1348C16.946 13.336 16.3429 14.4363 15.473 15.3062Z" fill="#FFFBFB"/>
<path d="M14.7979 12.775C14.7983 12.9025 14.7875 13.0299 14.7656 13.1556C14.745 13.283 14.7136 13.4085 14.6718 13.5306C14.5758 13.802 14.0508 14.1343 14.0508 14.1343C13.6777 14.3827 13.2319 14.4982 12.7851 14.4625C12.6804 14.4518 12.5763 14.4352 12.4734 14.4128C12.299 14.3739 12.2142 14.349 12.2142 14.349C12.1298 14.3242 11.9109 14.2553 11.9109 14.2553C11.692 14.1868 11.6428 14.1737 11.6428 14.1737C11.3103 14.0738 10.988 13.9424 10.6804 13.7814C9.97122 13.3961 9.19872 12.7056 9.19872 12.7056C8.74135 12.299 8.32784 11.8456 7.96497 11.3528C7.77195 11.0643 7.60564 10.7588 7.4681 10.4401C7.44935 10.3932 7.357 10.1828 7.357 10.1828C7.26325 9.97277 7.23044 9.89168 7.23044 9.89168C7.19669 9.81011 7.13669 9.64136 7.13669 9.64136C7.10246 9.54179 7.07444 9.44019 7.05278 9.33715C7.03554 9.24418 7.02395 9.15026 7.0181 9.0559C6.99091 8.56277 7.23606 8.04386 7.23606 8.04386C7.5056 7.48605 7.76716 7.35855 7.76716 7.35855C7.88414 7.30575 8.00476 7.26142 8.1281 7.22589C8.25018 7.18803 8.37584 7.1629 8.5031 7.1509C8.54119 7.14716 8.57965 7.1505 8.61653 7.16074C8.71497 7.18746 8.92356 7.55215 8.92356 7.55215C8.98825 7.65058 9.10028 7.8334 9.10028 7.8334C9.21278 8.01527 9.307 8.16152 9.307 8.16152C9.40075 8.30918 9.48888 8.43855 9.48888 8.43855C9.50622 8.45918 9.59013 8.56746 9.59013 8.56746C9.63622 8.62571 9.6782 8.68711 9.71575 8.75121C9.74152 8.79763 9.75747 8.84884 9.76263 8.90168C9.76825 9.00902 9.62481 9.17824 9.62481 9.17824C9.52737 9.29026 9.42177 9.39492 9.30888 9.49136C9.19743 9.58587 9.09177 9.68699 8.99247 9.79418C8.8481 9.95261 8.85185 10.0492 8.85185 10.0492C8.85749 10.0902 8.86869 10.1302 8.88513 10.1682C8.91607 10.239 8.93716 10.2756 8.93716 10.2756C8.95778 10.3117 9.01919 10.3998 9.01919 10.3998C9.0806 10.4879 9.08622 10.4982 9.08622 10.4982C9.36921 10.9405 9.706 11.346 10.0889 11.7053C10.6434 12.2012 11.4014 12.5673 11.4014 12.5673C11.4126 12.572 11.5068 12.6231 11.5068 12.6231C11.6006 12.6746 11.6395 12.6911 11.6395 12.6911C11.6779 12.7079 11.752 12.7304 11.752 12.7304C11.7912 12.7438 11.8324 12.7506 11.8739 12.7506C11.9704 12.7454 12.112 12.5842 12.112 12.5842C12.2072 12.4734 12.2958 12.3571 12.3773 12.2359C12.4608 12.1132 12.553 11.9968 12.6534 11.8876C12.8058 11.7259 12.9131 11.7198 12.9131 11.7198C12.9661 11.7194 13.0186 11.7292 13.0678 11.7489C13.1353 11.7798 13.2008 11.8147 13.2642 11.8534C13.3814 11.9246 13.4048 11.9396 13.4048 11.9396C13.5454 12.0128 13.7011 12.0896 13.7011 12.0896C13.8586 12.167 14.0517 12.2584 14.0517 12.2584C14.2448 12.3498 14.3498 12.4028 14.3498 12.4028C14.7356 12.5696 14.7717 12.6643 14.7717 12.6643C14.7858 12.6997 14.7947 12.737 14.7979 12.775Z" fill="#FFFBFB"/>
<defs>
<linearGradient id="paint0_linear_2364_14989" x1="10.9102" y1="21.8203" x2="10.9102" y2="0" gradientUnits="userSpaceOnUse">
<stop stop-color="#00D02D"/>
<stop offset="0.25" stop-color="#10D93A"/>
<stop offset="0.75" stop-color="#3AF15D"/>
<stop offset="1" stop-color="#51FE71"/>
</linearGradient>
</defs>
</svg>
